<?xml version="1.0" standalone="no"?>
<!DOCTYPE svg PUBLIC "-//W3C//DTD SVG 1.1//EN" "http://www.w3.org/Graphics/SVG/1.1/DTD/svg11.dtd" >
<svg>
<metadata>
Created by FontForge 20090914 at Wed Oct 18 13:34:40 2017
 By www-data
Generated in 2010 by FontLab Studio. Copyright info pending.
</metadata>
<defs>
<font id="LeagueScriptThin-LeagueScript" horiz-adv-x="1703" >
  <font-face 
    font-family="League Script Thin"
    font-weight="400"
    font-stretch="normal"
    units-per-em="2048"
    panose-1="0 0 0 0 0 0 0 0 0 0"
    ascent="1536"
    descent="-512"
    x-height="1038"
    cap-height="1851"
    bbox="-1369 -1225 4353 2264"
    underline-thickness="102"
    underline-position="-102"
    unicode-range="U+0020-U+FB04"
  />
<missing-glyph horiz-adv-x="841" 
 />
    <glyph glyph-name=".notdef" horiz-adv-x="841" 
 />
    <glyph glyph-name="space" unicode=" " horiz-adv-x="841" 
 />
    <glyph glyph-name="exclam" unicode="!" horiz-adv-x="1271" 
d="M158 94c0 31.333 11.5 58.666 34.5 81.999s49.5 35 79.5 35c31.333 0 58.666 -11.667 81.999 -35s35 -50.666 35 -81.999c0 -30 -11.667 -56.5 -35 -79.5s-50.666 -34.5 -81.999 -34.5c-30 0 -56.5 11.5 -79.5 34.5s-34.5 49.5 -34.5 79.5zM393 383
c117.333 285.333 297 601.334 539 948.001l166 230l123 165c22 28.667 37 47.167 45 55.5s16.667 9.16602 26 2.49902c9.33301 -5.33301 10 -14.333 2 -27c-8 -8 -23 -26.333 -45 -55l-125 -164l-161 -227c-248.667 -362 -427 -676 -535 -942c-6 -8 -12 -12.333 -18 -13h-2
c-1.33301 0 -2 0.333008 -2 1s-1 1 -3 1c-10.667 4.66699 -14 13 -10 25z" />
    <glyph glyph-name="quotedbl" unicode="&#x22;" horiz-adv-x="831" 
d="M98 1040c-5.33301 9.33301 -4.00195 17.668 3.99805 25.001c164 126.667 263 254.334 297 383.001c2.66699 9.33301 5.66699 22.333 9 39c0 1.33301 1 6.5 3 15.5s3 15.5 3 19.5v30c0 12 -0.666992 20.167 -2 24.5s-2 10.5 -2 18.5
c0 1.33301 -0.333008 3.66602 -1 6.99902l-1 4l-2 4c-2.66699 10.667 1.33301 18 12 22c12 2.66699 19.333 -1.33301 22 -12c2.66699 -2.66699 4.66699 -10.334 6 -23.001c2.66699 -19.333 4.33398 -40.333 5.00098 -63c0 -26 -5 -56.667 -15 -92
c-15.333 -58.667 -45.333 -121 -90 -187c-56 -79.333 -129.667 -152.333 -221 -219c-1.33301 0 -3.66602 -1 -6.99902 -3l-3 -1c-7.33301 0 -13 2.66699 -17 8zM321.998 1040c-5.33301 9.33301 -4.00195 17.667 3.99805 25c164 126.667 263 254.334 297 383.001l10 39
c2.66699 16.667 4 28.334 4 35.001v30c0 12 -0.666992 20.167 -2 24.5s-2 10.5 -2 18.5c0 1.33301 -0.333008 3.66602 -1 6.99902l-1 4l-2 4c-2.66699 10.667 1.33301 18 12 22c10.667 1.33301 18.334 -2.66699 23.001 -12c2.66699 -2.66699 4.66699 -10.334 6 -23.001
c2.66699 -19.333 4 -40.333 4 -63c0 -26 -5 -56.667 -15 -92c-15.333 -58.667 -45.333 -121 -90 -187c-56 -79.333 -129.667 -152.333 -221 -219c-2.66699 0 -4.66699 -1 -6 -3c-1.33301 -0.666992 -2.66602 -1 -3.99902 -1c-6.66699 0 -12 2.66699 -16 8z" />
    <glyph glyph-name="numbersign" unicode="#" horiz-adv-x="1968" 
d="M68 -123l1218 1876c5.33301 9.33301 14.333 10.666 27 3.99902c9.33301 -5.33301 10.666 -13.333 3.99902 -24l-1219 -1876c-1.33301 -5.33301 -6 -8.33301 -14 -9c-5.33301 0 -8.66602 1.66699 -9.99902 5c-10 6 -12 14 -6 24zM199 497.501
c0 12.333 6.00098 18.5 18.001 18.5h1239c12 0 18.167 -6.16699 18.5 -18.5s-5.83398 -18.5 -18.501 -18.5h-1239c-12 0 -18 6.16699 -18 18.5zM553.001 1157.5c0 12.333 6.00098 18.5 18.001 18.5h1239c12 0 18.167 -6.16699 18.5 -18.5s-5.83398 -18.5 -18.501 -18.5
h-1239c-12 0 -18 6.16699 -18 18.5zM678.002 -122.999l1218 1876c5.33301 9.33301 13.666 10.666 24.999 3.99902c10 -6 12 -14 6 -24l-1218 -1876c-5.33301 -5.33301 -11 -8.33301 -17 -9c-2.66699 0 -6 1.66699 -10 5c-10.667 6.66699 -12 14.667 -4 24z" />
    <glyph glyph-name="dollar" unicode="$" horiz-adv-x="1943" 
d="M86 41c-56 130 -37.667 256.334 55 379.001c9.33301 12 32.666 36.667 69.999 74c23.333 23.333 42.333 40.333 57 51c16.667 10.667 25.667 16.667 27 18c10 6 18 4 24 -6c8 -10 6 -18.333 -6 -25l-8 -6l-24 -18c-12 -9.33301 -23 -18.333 -33 -27l-39 -39
c-9.33301 -9.33301 -22.333 -25 -39 -47c-82 -110.667 -98.333 -224 -49 -340c27.333 -60 73.666 -109 138.999 -147c66.667 -38 145.334 -59.333 236.001 -64c110.667 -4 217.834 20 321.501 72s186.834 137.333 249.501 256c36.667 72.667 66 146.334 88 221.001
c20.667 70.667 31 145.667 31 225c0 74 -3.33301 138.333 -10 193c-5.33301 45.333 -15.666 115.666 -30.999 210.999c-2.66699 8 -6.66699 32.667 -12 74c-5.33301 42 -9.66602 69.333 -12.999 82c-1.33301 9.33301 -4.66602 34.333 -9.99902 75
c-5.33301 36.667 -8 64.667 -8 84c0 26 -0.666992 51.333 -2 76c-2.66699 39.333 -2 68.666 2 87.999c1.33301 8 3 22 5 42s3.66699 32.667 5 38c4 31.333 10 61.333 18 90l31 86c30 76.667 71.667 141.667 125 195s108 88.666 164 105.999
c53.333 18 110.666 25.667 171.999 23c53.333 -1.33301 105.333 -14.333 156 -39c82 -39.333 135 -96.666 159 -171.999c24.667 -74 14 -163.333 -32 -268c-23.333 -46.667 -59 -87.667 -107 -123c-40.667 -30 -78 -53.333 -112 -70c-19.333 -8 -40 -15.667 -62 -23
c-9.33301 -5.33301 -16.666 -1.66602 -21.999 11.001c-4 12 -0.666992 20 10 24c5.33301 0 22.333 6.33301 51 19c27.333 12 62.666 34.333 105.999 67c42 32.667 73.667 68.334 95 107.001c44 96.667 55.667 177.167 35 241.5s-67.334 116.166 -140.001 155.499
c-40.667 22 -85.667 33.667 -135 35s-101.333 -6.33398 -156 -23.001c-50.667 -15.333 -101.667 -48 -153 -98c-48 -46.667 -87 -106.667 -117 -180c-30.667 -76 -49 -158 -55 -246c-6.66699 -94 -7.33398 -162.333 -2.00098 -205c4 -34 15.667 -109 35 -225
c1.33301 -6.66699 2.66602 -14.5 3.99902 -23.5s2 -14.833 2 -17.5c30 -170.667 43.667 -309.334 41 -416.001c-5.33301 -161.333 -46.333 -313.333 -123 -456c-58.667 -114.667 -142.667 -202 -252 -262c-108 -58.667 -226 -87.667 -354 -87
c-88.667 2.66699 -170.667 24 -246 64c-78 42.667 -132 99.334 -162 170.001zM215 -355.999l1665 2601c8 9.33301 17 11.333 27 6c5.33301 -2.66699 8 -6 8 -10c0 -5.33301 -1.33301 -11 -4 -17l-1665 -2601c-6.66699 -9.33301 -15.667 -10.666 -27 -3.99902
c-9.33301 6 -10.666 14.333 -3.99902 25z" />
    <glyph glyph-name="percent" unicode="%" 
d="M203 -41l1202 1874c8 9.33301 17 11.333 27 6c8 -5.33301 10 -14.333 6 -27l-1205 -1873c-4 -5.33301 -9.33301 -8.33301 -16 -9c-4 0 -6.66699 0.666992 -8 2c-12 6 -14 15 -6 27zM590 1624c0 57.333 20.999 107.333 62.999 150c40.667 40.667 90 61 148 61
c60 0 110.5 -20.5 151.5 -61.5s61.5 -90.833 61.5 -149.5s-20.5 -108.5 -61.5 -149.5s-91.5 -61.5 -151.5 -61.5c-57.333 0 -106.666 20.667 -147.999 62c-42 42 -63 91.667 -63 149zM607.999 145c0 58.667 20.5 108.5 61.5 149.5s90.833 61.5 149.5 61.5
s108.5 -20.5 149.5 -61.5s61.5 -90.833 61.5 -149.5s-20.5 -108.5 -61.5 -149.5s-90.833 -61.5 -149.5 -61.5s-108.5 20.5 -149.5 61.5s-61.5 90.833 -61.5 149.5z" />
    <glyph glyph-name="ampersand" unicode="&#x26;" horiz-adv-x="2379" 
d="M258 35c-48 138 -40.9971 290.335 21.0029 457.002c31.333 84.667 72 161.667 122 231c50.667 68 108 128 172 180c65.333 52 131.666 97 198.999 135c76.667 44 152.334 79.667 227.001 107c74 27.333 150.667 53.333 230 78c114.667 35.333 193 58.333 235 69
c2.66699 1.33301 6.33398 2 11.001 2c8 1.33301 27.667 7 59 17c32.667 9.33301 51.667 14.666 57 15.999l148 229c50.667 76.667 101.667 141 153 193c53.333 53.333 98.5 88.166 135.5 104.499s75.167 25.833 114.5 28.5c32.667 1.33301 62 -3.33398 88 -14.001
c23.333 -10.667 42.666 -25.667 58 -45c27.333 -35.333 34.666 -78.333 22 -129c-27.333 -131.333 -202.666 -247.333 -526 -348l-170 -50c-162.667 -262 -285.667 -481.667 -369 -659c-169.333 -354.667 -217.666 -602.334 -144.999 -743.001
c14.667 -26.667 33 -49.334 55 -68.001c138 57.333 267 146.666 387 267.999c16.667 16.667 38.667 41.334 66 74.001c8 10.667 27 33.334 57 68.001l49 63c5.33301 8 12.166 18.833 20.499 32.5s13.166 21.834 14.499 24.501c5.33301 8 10 15.5 14 22.5
s8.33301 13.833 13 20.5l16 29l6 10c5.33301 9.33301 13.666 12 24.999 8c10.667 -6.66699 13.334 -14.667 8.00098 -24c-57.333 -116 -144.666 -234 -261.999 -354c-102.667 -102.667 -211.334 -184 -326.001 -244c-5.33301 -2.66699 -11.833 -5.66699 -19.5 -9
s-13.834 -6.16602 -18.501 -8.49902l-11 -5.5c46.667 -24.667 102 -37.667 166 -39c162.667 -6.66699 312 53 448 179c34 28.667 63.333 58.667 88 90c35.333 44 55.333 68.333 60 73l16 27c8 9.33301 17 11.333 27 6c10 -6 12 -14 6 -24l-8 -13
c-1.33301 -1.33301 -4.5 -6 -9.5 -14s-9.5 -14 -13.5 -18c-10.667 -15.333 -21.334 -29.666 -32.001 -42.999c-2.66699 -2.66699 -19.334 -21.334 -50.001 -56.001c-12 -13.333 -31.667 -32.333 -59 -57c-146 -132.667 -304.333 -194.667 -475 -186
c-83.333 2.66699 -152.333 21.667 -207 57c-118.667 -46.667 -239.667 -70 -363 -70c-128.667 0 -239.667 26.667 -333 80c-92 52 -157.667 132.667 -197 242zM293.003 47.002c34 -95.333 93.334 -168.334 178.001 -219.001c87.333 -52 193 -78 317 -78
c117.333 0 226.666 20 327.999 60c-22.667 22.667 -39 45 -49 67c-42 80.667 -47.333 193.334 -16 338.001c27.333 122.667 81 268.667 161 438c88.667 186 205 395 349 627c-19.333 -4 -31.666 -7.33301 -36.999 -10c-2.66699 -1.33301 -15.667 -4.66602 -39 -9.99902
l-213 -62c-45.333 -12 -112.333 -33.667 -201 -65c-82 -28.667 -147.5 -55.334 -196.5 -80.001s-106.333 -57.5 -172 -98.5s-120.167 -83.5 -163.5 -127.5c-40.667 -40.667 -82.334 -91.667 -125.001 -153c-38 -56 -71.667 -121 -101 -195
c-60 -162.667 -66.667 -306.667 -20 -432zM1645 1343c66.667 19.333 109.667 32.333 129 39c311.333 96.667 477.666 202.667 498.999 318c8 36.667 3.33301 69.334 -14 98.001c-20.667 28.667 -52 45 -94 49c-38 4 -71 -2 -99 -18
c-101.333 -46.667 -200.333 -144.334 -297 -293.001c-55.333 -82 -96.666 -146.333 -123.999 -193z" />
    <glyph glyph-name="quotesingle" unicode="'" horiz-adv-x="495" 
d="M549 1174l280.001 563.001c5.33301 12 13.666 14.667 24.999 8c10.667 -4 13.334 -12.333 8.00098 -25l-280 -563c-4 -6.66699 -9.66699 -10 -17 -10c-4 0 -6.66699 0.666992 -8 2c-10.667 7.33301 -13.334 15.666 -8.00098 24.999z" />
    <glyph glyph-name="parenleft" unicode="(" horiz-adv-x="784" 
d="M225 -281c-36.667 316.667 11.332 628.666 143.999 935.999c104 244.667 261.667 487 473 727c146 164 313 321 501 471c95.333 75.333 173.333 131.333 234 168c9.33301 5.33301 18.333 3.33301 27 -6c6 -10 3.66699 -18 -7 -24c-2 0 -12 -6.33301 -30 -19
c-15.333 -9.33301 -43.333 -29 -84 -59l-117 -88c-187.333 -146 -353.333 -302.333 -498 -469c-86 -95.333 -167.667 -200.666 -245 -315.999c-72.667 -106.667 -142.334 -230.667 -209.001 -372c-65.333 -139.333 -112.666 -291 -141.999 -455
c-27.333 -158.667 -30.666 -321.667 -9.99902 -489c1.33301 -9.33301 -4 -16.333 -16 -21h-2c-8.66699 0 -15 5.33301 -19 16z" />
    <glyph glyph-name="parenright" unicode=")" horiz-adv-x="1212" 
d="M-334 -365c-5.33301 8 -3.33203 16.333 6.00098 25c49.333 30 126.666 86 231.999 168c182 143.333 347.667 299 497 467c470 535.333 671.667 1079.33 605 1632c0 9.33301 5.33301 16.333 16 21c13.333 0 20 -5.66699 20 -17c38 -304.667 -9 -616.667 -141 -936
c-109.333 -254 -267 -496.333 -473 -727c-150 -169.333 -317.333 -326.333 -502 -471l-121 -90l-84 -59c-18.667 -12 -28.667 -18.333 -30 -19c-2.66699 -2.66699 -6 -4 -10 -4c-6 0 -11 3.33301 -15 10z" />
    <glyph glyph-name="asterisk" unicode="*" horiz-adv-x="880" 
d="M100 1425l0.00488281 7.00195c1.33301 32.667 20 54.334 56 65.001c32.667 9.33301 69.334 4.66602 110.001 -14.001c45.333 -19.333 98.666 -33 159.999 -41c-38.667 34.667 -85.667 63.334 -141 86.001c-40.667 16.667 -69.334 39 -86.001 67c-18 30 -16.667 58 4 84
l6 7c27.333 20.667 55.333 22.667 84 6c27.333 -16.667 49.666 -46 66.999 -88c20.667 -52 49.334 -99.333 86.001 -142c-8 61.333 -21.333 114.666 -40 159.999c-19.333 40.667 -24.333 77.667 -15 111c10.667 35.333 32.667 53.666 66 54.999h6
c35.333 -2.66699 57.166 -21.167 65.499 -55.5s2.83301 -71.166 -16.5 -110.499c-19.333 -45.333 -32.333 -98.666 -39 -159.999c36.667 44 64.667 91.333 84 142c19.333 40.667 42.666 69.334 69.999 86.001c30 18 58 16.667 84 -4l6 -7
c23.333 -27.333 25.333 -55.333 6 -84c-19.333 -30 -49.333 -52.333 -90 -67c-51.333 -22.667 -98.333 -51.334 -141 -86.001c58.667 8 111.667 21.667 159 41c40.667 19.333 77.667 24 111 14c35.333 -10.667 53.666 -32.334 54.999 -65.001v-7
c-1.33301 -22 -10 -39 -26 -51c-15.333 -10.667 -36 -16 -62 -16c-24.667 0 -50.667 6 -78 18c-46.667 19.333 -99.667 32.333 -159 39c53.333 -40.667 100.333 -68.667 141 -84c45.333 -19.333 75.333 -42.333 90 -69c16.667 -30 14 -58 -8 -84l-4 -4
c-26 -22 -54 -24.333 -84 -7c-28.667 16.667 -52 46 -70 88c-15.333 40.667 -43.333 88 -84 142c6.66699 -60 19.667 -113.333 39 -160c12 -27.333 18 -53.333 18 -78c0 -26 -5.33301 -46.333 -16 -61c-12 -16.667 -29 -25.667 -51 -27h-6
c-32.667 1.33301 -54.667 19.666 -66 54.999c-9.33301 32.667 -4.33301 69.667 15 111c19.333 48 32.666 101.333 39.999 160c-36.667 -45.333 -65.334 -92.666 -86.001 -141.999c-16.667 -42 -39 -71.333 -67 -88c-30 -16.667 -58.667 -15.334 -86 3.99902
c-24.667 24.667 -28.834 53.5 -12.501 86.5s46.5 57.5 90.5 73.5c50.667 19.333 97.667 47.333 141 84c-61.333 -6.66699 -114.666 -19.667 -159.999 -39c-39.333 -19.333 -76.166 -24.833 -110.499 -16.5s-52.833 30.166 -55.5 65.499z" />
    <glyph glyph-name="plus" unicode="+" 
d="M227 770c0 12 6.33301 18 19 18h1239c12 0 18 -6 18 -18s-6 -18 -18 -18h-1239c-12.667 0 -19 6 -19 18zM403 150l770.999 1183c6.66699 10.667 14.667 12 24 4c10 -6 12 -14 6 -24l-770 -1184c-5.33301 -5.33301 -10.666 -8 -15.999 -8l-4 1
c-3.33301 0.666992 -5.33301 1.66699 -6 3c-10 6 -11.667 14.333 -5 25z" />
    <glyph glyph-name="comma" unicode="," horiz-adv-x="413" 
d="M129 -96c-4 9.33301 0 16.667 12 22c56 15.333 100.333 38 133 68c-2.66699 -1.33301 -8.66699 -2 -18 -2c-32.667 0 -60 10.833 -82 32.5s-33 49 -33 82s11 60.167 33 81.5c23.333 23.333 50.666 35 81.999 35c32.667 0 60.667 -11.667 84 -35c22 -22 33 -49.333 33 -82
c0 -18 -3.66699 -33.667 -11 -47c-30 -80.667 -100.667 -136.667 -212 -168h-5c-9.33301 0.666992 -14.666 5 -15.999 13z" />
    <glyph glyph-name="hyphen" unicode="-" horiz-adv-x="1464" 
d="M96 639c0 12 6.33301 18 19 18h1239c12 0 18 -6 18 -18s-6 -18 -18 -18h-1239c-12.667 0 -19 6 -19 18z" />
    <glyph glyph-name="period" unicode="." horiz-adv-x="454" 
d="M158 94c0 31.333 11.5 58.666 34.5 81.999s49.5 35 79.5 35c31.333 0 58.666 -11.667 81.999 -35s35 -50.666 35 -81.999c0 -30 -11.667 -56.5 -35 -79.5s-50.666 -34.5 -81.999 -34.5c-30 0 -56.5 11.5 -79.5 34.5s-34.5 49.5 -34.5 79.5z" />
    <glyph glyph-name="slash" unicode="/" horiz-adv-x="1982" 
d="M346 -432l1665 2601c5.33301 9.33301 14.333 10.666 27 4c9.33301 -5.33301 10.666 -13.666 3.99902 -25l-1665 -2601c-4 -5.33301 -9.66699 -8 -17 -8c-5.33301 0 -8.66602 0.666992 -9.99902 2c-10.667 8.66699 -12 17.667 -4 27z" />
    <glyph glyph-name="zero" unicode="0" horiz-adv-x="1591" 
d="M162 666c40.667 203.333 132.668 421.667 276.001 655c120 188.667 245.667 337.334 377 446.001c105.333 87.333 218 152.333 338 195c15.333 5.33301 42.666 13 81.999 23c36.667 8 60.667 12.667 72 14c22.667 2 43 4 61 6h51h39c8 0 16.333 -1.33301 25 -4l10 -2
c13.333 -5.33301 18 -13.666 14 -24.999c-1.33301 -13.333 -9.33301 -18.666 -24 -15.999c-86 20.667 -192.667 9 -320 -35c-254 -90 -484 -298.333 -690 -625c-139.333 -224 -229.333 -437.667 -270 -641c-40.667 -192.667 -32 -351.667 26 -477
c52 -109.333 138.667 -170 260 -182c170.667 -19.333 338 47 502 199c172 160 327 405.667 465 737c50.667 125.333 83.334 232.333 98.001 321c16.667 96.667 19 176.667 7 240s-26.333 112.333 -43 147c-19.333 40.667 -38 71 -56 91
c-38 39.333 -81.667 66.666 -131 81.999c-52 15.333 -101 16 -147 2h-2c-1.33301 0 -10.333 -3.66699 -27 -11c-10.667 -5.33301 -26.334 -21 -47.001 -47c-16.667 -23.333 -26.334 -52.666 -29.001 -87.999c-1.33301 -38 15.834 -70 51.501 -96s68.5 -43 98.5 -51
c24.667 -6.66699 43 -10.334 55 -11.001c15.333 -2.66699 21.666 -10 18.999 -22c-2.66699 -16.667 -10.334 -22.667 -23.001 -18c-31.333 0 -71.666 12 -120.999 36c-84.667 39.333 -125 94.666 -121 165.999c1.33301 58.667 24.666 107.334 69.999 146.001
c27.333 23.333 48.333 34.666 63 33.999c54.667 18 112 18 172 0c56 -16.667 106 -48.667 150 -96c70.667 -79.333 108.334 -184.333 113.001 -315c6.66699 -158.667 -31 -334 -113 -526c-137.333 -334 -295 -584 -473 -750c-86 -80 -174 -137.333 -264 -172
c-69.333 -27.333 -139.666 -41 -210.999 -41c-30 0 -50 0.666992 -60 2c-138 15.333 -235.333 83.666 -292 204.999c-64 129.333 -74.333 297.333 -31 504z" />
    <glyph glyph-name="one" unicode="1" horiz-adv-x="1159" 
d="M172 12c345.333 513.333 784.334 1121.67 1317 1825c-86 -60 -168.667 -109 -248 -147c-138 -64 -289 -114.667 -453 -152c-198 -44 -370 -65.667 -516 -65c-13.333 0 -20 6.66699 -20 20s6.66699 20 20 20c148.667 0 318 21.333 508 64
c374 83.333 655.333 229.333 844 438l31 -24l-53 -70l-142 -188l-203 -271l-249 -340l-271 -374l-274 -388l-256 -372c-6.66699 -8 -16.334 -9.33301 -29.001 -4c-10.667 6.66699 -12.667 16 -6 28z" />
    <glyph glyph-name="two" unicode="2" horiz-adv-x="1648" 
d="M96 -25c-13.333 22 -3.66992 55.0039 28.9971 99.0039c57.333 76.667 128.333 153.667 213 231c86 80.667 185 160.667 297 240l291 203l313 200c186 116 316.333 201.333 391 256c104.667 78 180.667 166 228 264c48 98 60 189.667 36 275
c-36.667 124 -133.334 195.667 -290.001 215c-132.667 12 -264.5 -14.667 -395.5 -80s-230.167 -161 -297.5 -287c-27.333 -50.667 -32.666 -96.334 -15.999 -137.001s56.334 -66 119.001 -76c95.333 -15.333 176.333 33.334 243 146.001c20.667 34 35 61.333 43 82
c12 28.667 20.333 51 25 67l8 27c2.66699 15.333 11 20 25 14c13.333 -1.33301 18 -9.33301 14 -24c0 -4 -2.66699 -13.667 -8 -29c-1.33301 -1.33301 -4.66602 -10.833 -9.99902 -28.5s-11 -32.834 -17 -45.501c-9.33301 -24.667 -24.333 -53.334 -45 -86.001
c-79.333 -128.667 -174 -183.334 -284 -164.001c-52 8 -93 28 -123 60c-28.667 30 -41.667 64 -39 102c1.33301 34 10.666 71.667 27.999 113c76.667 138 180.5 240.333 311.5 307s271.833 92.667 422.5 78c79.333 -8 148.333 -32.667 207 -74c60 -42 99.333 -98 118 -168
c28.667 -105.333 13.667 -211 -45 -317c-57.333 -104 -135 -193 -233 -267c-60 -45.333 -191 -131.333 -393 -258l-312 -200l-288 -199c-108 -76.667 -207 -156 -297 -238c-80.667 -72.667 -149.667 -148.334 -207 -227.001c-22 -30 -31.667 -47.667 -29 -53
c6.66699 -10.667 31.334 -9.33398 74.001 3.99902c35.333 12 56.333 18.667 63 20c39.333 10.667 63.333 17.667 72 21c184 61.333 315.667 89.333 395 84c101.333 -5.33301 221.666 -41.666 360.999 -108.999c45.333 -20.667 70.333 -32 75 -34
c16.667 -6 37.334 -12.333 62.001 -19s44.334 -8.66699 59.001 -6c12 1.33301 29 8 51 20c18 9.33301 35.333 26 52 50c10.667 9.33301 20 10 28 2c10.667 -6.66699 12 -16.334 4 -29.001c-48 -56 -104 -84 -168 -84c-44 2.66699 -104.667 24 -182 64
c-132.667 62.667 -248 97.334 -346 104.001c-75.333 5.33301 -201.666 -22 -378.999 -82c-80.667 -24.667 -126.334 -38.334 -137.001 -41.001c-64.667 -15.333 -103.667 -10.666 -117 14.001z" />
    <glyph glyph-name="three" unicode="3" 
d="M53 221c1.33301 54.667 14.3301 110.668 38.9971 168.001c31.333 80.667 89.333 149 174 205c2 2 10.333 6 25 12c16.667 6.66699 36.334 12.334 59.001 17.001c24.667 4 50 1.66699 76 -7c44 -15.333 77.333 -49.333 100 -102c20.667 -52 22 -98.333 4 -139
c-9.33301 -23.333 -27 -47.333 -53 -72c-23.333 -22 -42.333 -37 -57 -45c-10.667 -6.66699 -21 -11.334 -31 -14.001c-9.33301 -4 -18.333 0 -27 12c-5.33301 12 -1 21 13 27c60 24.667 99.667 60 119 106c13.333 31.333 11.666 67.666 -5.00098 108.999
c-18 42 -43 68.667 -75 80c-40.667 12 -83 5.66699 -127 -19l-31 -20c-13.333 -9.33301 -35.333 -31.333 -66 -66c-27.333 -31.333 -47.666 -64.666 -60.999 -99.999c-48 -117.333 -50 -223.333 -6 -318c35.333 -75.333 96.666 -127 183.999 -155
c168 -58.667 353.667 -49.334 557 27.999c226.667 90 405 247 535 471c109.333 194 137.333 378.333 84 553c-18 56 -44.667 108 -80 156h-23c-124.667 -14.667 -229 -0.333984 -313 42.999c-24.667 13.333 -45 31.666 -61 54.999c-13.333 19.333 -18.333 40.666 -15 63.999
c8 44 43 67.667 105 71c84.667 6.66699 160.334 -18.333 227.001 -75c30 -24.667 54.667 -52.667 74 -84c12 -12 20 -21.667 24 -29c28.667 4 59.334 13 92.001 27c102.667 39.333 191 108 265 206c40.667 58.667 65 119.667 73 183c8 66.667 -0.666992 129.334 -26 188.001
c-45.333 98 -124 153.333 -236 166c-67.333 6 -130.666 0 -189.999 -18c-58.667 -18 -99.667 -36 -123 -54c-20.667 -16.667 -41.334 -35.667 -62.001 -57c-8 -9.33301 -17.333 -10 -28 -2c-9.33301 9.33301 -10 19 -2 29c40.667 45.333 91 81.333 151 108
c83.333 31.333 169.333 42.333 258 33c64 -5.33301 120 -25.666 168 -60.999c45.333 -34 79 -76.333 101 -127c28.667 -64 38 -133.667 28 -209c-10 -76 -36.667 -143.667 -80 -203c-80.667 -106.667 -175.334 -180.334 -284.001 -221.001
c-13.333 -5.33301 -39.333 -13.666 -78 -24.999c30 -46.667 54.667 -97 74 -151c26 -87.333 34 -172 24 -254c-9.33301 -109.333 -46.666 -220 -111.999 -332c-67.333 -118.667 -151.333 -221 -252 -307c-87.333 -75.333 -188.333 -135.666 -303 -180.999
c-101.333 -40.667 -204.666 -63 -309.999 -67c-5.33301 -1.33301 -18.333 -2 -39 -2c-90 0 -169 13 -237 39c-101.333 35.333 -170.333 94.666 -207 177.999c-24.667 50.667 -35.667 111.334 -33 182.001zM1032 1262c-6.66699 -27.333 10.999 -51.9971 52.999 -73.9971
c70.667 -36.667 166.334 -50.334 287.001 -41.001l-6 6l-2 2v4l-6 10c-1.33301 1.33301 -4.83301 5.16602 -10.5 11.499s-10.5 12.166 -14.5 17.499c-10 14.667 -22.333 27 -37 37c-50.667 44 -108.667 65.667 -174 65h-22c-41.333 -3.33301 -64 -16 -68 -38z" />
    <glyph glyph-name="four" unicode="4" horiz-adv-x="1681" 
d="M172 836c349.333 91.333 785 308.333 1307 651l342 235l250 185c53.333 40.667 82 63 86 67l28 -28l-874 -1117c5.33301 -2.66699 10.666 -4.66699 15.999 -6c10.667 -2.66699 17 -4 19 -4c173.333 -46.667 287.333 -121 342 -223c5.33301 -12 2.33301 -21.667 -9 -29
c-12 -8 -20.667 -5.33301 -26 8c-49.333 91.333 -155.333 159.666 -318 204.999l-51 13l-655 -836c-4 -5.33301 -9.66699 -8 -17 -8l-12 4c-9.33301 9.33301 -10.666 19 -3.99902 29l643 821c-112 22 -245.667 33.667 -401 35h-111c-26 0 -62.333 -1.33301 -109 -4
c-34 -2.66699 -68 -5 -102 -7c-16.667 -1.33301 -32.5 -2.66602 -47.5 -3.99902s-29.167 -2 -42.5 -2c-38 -2.66699 -65.333 -4.66699 -82 -6l-36.5 -5c-15 -2 -25.5 -3 -31.5 -3c-18 -1.33301 -35 -3.33301 -51 -6c-4 0 -9.66699 -0.333008 -17 -1s-12.333 -1.66699 -15 -3
l-13 -2zM389 860c140.667 13.333 275.335 20.335 404.002 21.002c23.333 0 38.333 -0.666992 45 -2c169.333 -1.33301 312.666 -15 429.999 -41l784 1003c-191.333 -144.667 -375 -274.334 -551 -389.001c-212.667 -140.667 -428.334 -268.334 -647.001 -383.001
c-162.667 -87.333 -317.667 -157 -465 -209z" />
    <glyph glyph-name="five" unicode="5" horiz-adv-x="1753" 
d="M100 182c-16.667 125.333 49.001 264 197.001 416c9.33301 9.33301 18.833 9.33301 28.5 0s9.83398 -19 0.500977 -29c-138 -144.667 -200.333 -272.334 -187 -383.001c1.33301 -18 7 -38.333 17 -61c6.66699 -16.667 16 -32.334 28 -47.001
c13.333 -16.667 23 -27.667 29 -33c8 -8 16.333 -14.667 25 -20l8 -9c96 -57.333 194.333 -86 295 -86c170.667 0 337 77.333 499 232c132.667 124 249.667 285 351 483c27.333 56 49 117.333 65 184c32.667 137.333 28.667 250 -12 338c-42 90 -124 149.667 -246 179
c-45.333 10.667 -95.666 10.667 -150.999 0c-54.667 -9.33301 -104.667 -26 -150 -50c-54.667 -27.333 -97.667 -51 -129 -71c-45.333 -30 -76 -51.333 -92 -64c-20.667 -16.667 -33 -27 -37 -31l-31 27l484 623c12 18 24.667 31 38 39c36.667 20.667 82.667 22 138 4
c139.333 -45.333 304.333 -53 495 -23c40.667 5.33301 82.334 13.666 125.001 24.999c27.333 6.66699 57.333 15.334 90 26.001l31 11c12 5.33301 21 1 27 -13c5.33301 -12 1 -20.667 -13 -26c-40.667 -19.333 -124.334 -40.666 -251.001 -63.999
c-98 -13.333 -180.667 -19.333 -248 -18c-98 2 -188.333 16.333 -271 43c-35.333 10.667 -61 13.334 -77 8.00098c-18 -5.33301 -31 -11.333 -39 -18c-6.66699 -5.33301 -10.334 -10.333 -11.001 -15l-2 -2l-393 -508l78 47c67.333 36.667 130.666 63.334 189.999 80.001
c80.667 20.667 149.667 24 207 10c135.333 -30 227.666 -96.667 276.999 -200c24.667 -53.333 37 -115.666 37 -186.999c0 -56 -8.33301 -116.667 -25 -182l-18 -61c-8 -28.667 -13.667 -45.667 -17 -51c-5.33301 -13.333 -10 -26.333 -14 -39
c-1.33301 -4 -5.33301 -13 -12 -27l-7 -12c-2.66699 -2.66699 -6.66699 -10.334 -12 -23.001c-6.66699 -16.667 -17.667 -37.667 -33 -63c-22 -38 -39 -66 -51 -84c-90 -138 -177.333 -246.667 -262 -326c-126.667 -118.667 -255 -193 -385 -223
c-49.333 -12 -97 -18.333 -143 -19c-109.333 0 -214.666 31 -315.999 93c-6.66699 2.66699 -17.334 10 -32.001 22c-10.667 9.33301 -28 32.666 -52 69.999c-22 34 -35.667 70 -41 108z" />
    <glyph glyph-name="six" unicode="6" horiz-adv-x="1425" 
d="M188 20c-64 121.333 -61.0029 294.999 8.99707 520.999c54.667 190 141.334 375 260.001 555c186.667 290.667 373 507.667 559 651c144.667 110.667 269 164 373 160c96.667 0 162.667 -30 198 -90c12 -22 19.667 -50.667 23 -86c2 -32.667 0 -63.667 -6 -93
c-6.66699 -32.667 -15 -62 -25 -88c-8 -24.667 -16.333 -45.667 -25 -63l-14 -29c-5.33301 -13.333 -14.333 -16 -27 -8c-12 5.33301 -14.667 15 -8 29l6 12c1.33301 2.66699 6.33301 13.667 15 33l18 45c6.66699 19.333 12.334 38.333 17.001 57
c5.33301 28.667 8.66602 48.667 9.99902 60c2.66699 27.333 2.66699 47 0 59c-4 20.667 -10.333 37.667 -19 51c-26 46.667 -81.333 70 -166 70h-2c-40.667 0 -87 -10.333 -139 -31c-70.667 -30 -138.334 -70.333 -203.001 -121c-180 -135.333 -364.333 -348.333 -553 -639
c-114.667 -181.333 -199 -363.666 -253 -546.999c-65.333 -216 -69 -378.333 -11 -487c48 -92.667 139.667 -139.667 275 -141c70.667 -1.33301 140.834 10.167 210.501 34.5s129.167 55.833 178.5 94.5c40.667 31.333 89 78.333 145 141c46.667 52 85 101.667 115 149
c28.667 45.333 55.334 92.666 80.001 141.999c53.333 105.333 85.333 207.666 96 306.999c9.33301 95.333 -3 174 -37 236c-45.333 78 -121.666 120 -228.999 126c-151.333 6 -288.666 -43 -411.999 -147c-62.667 -54.667 -109.667 -109.334 -141 -164.001
c-5.33301 -12 -15 -14.667 -29 -8c-10.667 6.66699 -13.334 16.334 -8.00098 29.001l5 8l13 20c10.667 15.333 28 36.666 52 63.999c24.667 28.667 51 55.334 79 80.001c58.667 50.667 120.334 88.667 185.001 114c78 34 164 49 258 45c122.667 -8 210 -57 262 -147
c39.333 -72.667 54.333 -158.667 45 -258c-10.667 -101.333 -45.334 -209.333 -104.001 -324c-26 -49.333 -53.333 -97.666 -82 -144.999c-27.333 -44 -65.666 -95.333 -114.999 -154c-48 -56 -97.667 -103.667 -149 -143c-54.667 -40.667 -116.334 -74 -185.001 -100
c-74 -27.333 -147 -41 -219 -41h-14c-150.667 0.666992 -254.667 54.334 -312 161.001z" />
    <glyph glyph-name="seven" unicode="7" horiz-adv-x="954" 
d="M72 -186c8 8 46 52.9961 114 134.996l306 364l366 451c221.333 276 394.666 504 519.999 684c69.333 102.667 120.666 184.667 153.999 246c24.667 48 37 84 37 108c-9.33301 0 -20.333 -2 -33 -6c-102.667 -35.333 -219.334 -57 -350.001 -65
c-117.333 -6.66699 -235.666 -4 -354.999 8c-147.333 12 -275.666 31 -384.999 57c-13.333 1.33301 -18.666 9.66602 -15.999 24.999c1.33301 12 9.66602 16.667 24.999 14l10 -2l29 -6c2.66699 0 8.66699 -1 18 -3s17.5 -3.66699 24.5 -5s16 -2.33301 27 -3
s22.5 -2.66699 34.5 -6c5.33301 -1.33301 12.5 -2.66602 21.5 -3.99902s17.167 -2.66602 24.5 -3.99902l22 -4c8 -1.33301 21.167 -2.66602 39.5 -3.99902s32.5 -2.66602 42.5 -3.99902c42 -5.33301 71.333 -8.66602 88 -9.99902c282.667 -27.333 511.334 -9 686.001 55
c38 13.333 64.667 10 80 -10c27.333 -42 -36.334 -175.333 -191.001 -400c-121.333 -174.667 -294.666 -404 -519.999 -688l-227 -280l-215 -262l-177 -209l-125 -148c-30 -34 -45 -51.667 -45 -53c-4 -4 -9.33301 -6 -16 -6l-12 4c-9.33301 10 -10 20.333 -2 31z" />
    <glyph glyph-name="eight" unicode="8" horiz-adv-x="2048" 
d="M18 154c0 4 0.334961 8.99805 1.00195 14.998s1.5 11.833 2.5 17.5s2.16699 11.167 3.5 16.5c4 15.333 8 28.333 12 39c2.66699 6.66699 5.33398 15.334 8.00098 26.001l4 15c36.667 91.333 77.667 168.333 123 231c53.333 76.667 116 145.667 188 207
c91.333 79.333 193.333 144 306 194c90 42 213.333 86.667 370 134c15.333 4 31.166 8.66699 47.499 14s29.333 9.33301 39 12s16.5 4.66699 20.5 6c-39.333 82 -66 141.667 -80 179c-19.333 53.333 -29 110 -29 170c0 70.667 17 138 51 202
c52 102.667 130.667 173.667 236 213c100 36.667 198.333 39.334 295 8.00098c49.333 -19.333 90.333 -40.333 123 -63c-9.33301 39.333 -14.333 59.666 -15 60.999c-6 24.667 -14 49.334 -24 74.001c-16.667 38 -25.667 59.333 -27 64c-1.33301 1.33301 -10 17 -26 47
c-4 8 -8.16699 14.333 -12.5 19s-7.16602 8.33398 -8.49902 11l-6 13c-9.33301 9.33301 -8 18.666 4 28c9.33301 6.66699 19 5.33398 29 -4l4 -8c2.66699 -4 6 -10 10 -18c1.33301 -1.33301 7.66602 -10.333 18.999 -27c8 -13.333 14 -25 18 -35l20 -43
c1.33301 -2.66699 4.5 -10.5 9.5 -23.5l11.5 -29.5l18 -57c12 -50.667 19.667 -89 23 -115c19.333 -22 35.666 -44 48.999 -66c56 -92.667 74.333 -202.334 55 -329.001c-2.66699 -15.333 -10 -21.666 -22 -18.999c-12 2 -18.333 10.333 -19 25
c18 126.667 -2.33301 233.667 -61 321c0 -6.66699 -1.33301 -27.667 -4 -63c-12 -98 -49 -190.333 -111 -277c-69.333 -96.667 -227 -190 -473 -280c75.333 -147.333 117.666 -269 126.999 -365c20.667 -168 -22.333 -342 -129 -522
c-66.667 -122.667 -176.667 -225 -330 -307c-139.333 -78 -275 -117 -407 -117c-192.667 0 -323.667 51.333 -393 154c-45.333 67.333 -62 151.333 -50 252zM55.002 73.998c0 -12 2.83105 -29 8.49805 -51s10.5 -38.667 14.5 -50c8 -20.667 16 -37 24 -49
c61.333 -90 181 -135 359 -135c122.667 0 253 37.667 391 113c140.667 76.667 244.334 173.667 311.001 291c54.667 94 91.667 180 111 258c20.667 82 24.667 159.667 12 233c-13.333 80.667 -28.333 142 -45 184c-15.333 39.333 -42 98 -80 176l-112 -34
c-150 -44 -271.667 -87.667 -365 -131c-203.333 -94 -363 -224 -479 -390c-27.333 -36.667 -50.666 -72.667 -69.999 -108s-32.333 -62.666 -39 -81.999l-8 -29v-2l-2 -8c-1.33301 -2.66699 -3.33301 -9.33398 -6 -20.001c-4 -16.667 -6.66699 -27 -8 -31
c-2.66699 -8 -5.5 -21.667 -8.5 -41s-5.16699 -34.333 -6.5 -45s-2 -27 -2 -49zM1075 1430c2.66699 -65.333 11.667 -118.669 27 -160.002c15.333 -39.333 42 -97.333 80 -174c240 88.667 392.667 178 458 268c79.333 110.667 114.333 232.334 105 365.001
c-39.333 39.333 -86.333 67 -141 83c-40.667 13.333 -81.667 20.333 -123 21c-70.667 0 -139 -18.333 -205 -55c-64 -35.333 -116 -90 -156 -164c-31.333 -61.333 -46.333 -122.666 -45 -183.999z" />
    <glyph glyph-name="nine" unicode="9" horiz-adv-x="1130" 
d="M215 1163c-35.333 95.333 -26.332 197.667 27.001 307c56 116 159.667 224 311 324c106.667 66.667 222.667 113.667 348 141c95.333 20.667 199 27.667 311 21c57.333 -4 110.666 -11 159.999 -21c56 -10.667 94.333 -18.667 115 -24c22 -6.66699 35 -11.667 39 -15
c13.333 -4 17.333 -12.833 12 -26.5s-14.333 -17.5 -27 -11.5c-88.667 32.667 -189 51.667 -301 57c-240 15.333 -451.667 -36.667 -635 -156c-144.667 -88.667 -243.334 -191 -296.001 -307c-48 -98 -56.333 -189.333 -25 -274c26 -66.667 72.5 -116.5 139.5 -149.5
s143.5 -42.833 229.5 -29.5c176 24.667 402.667 171.667 680 441c68 65.333 129.333 127.333 184 186c53.333 57.333 98.333 108 135 152c30 35.333 45 54.333 45 57l33 -25l-1411 -1925c-4 -5.33301 -9.66699 -8 -17 -8l-12 4c-9.33301 5.33301 -10.666 15 -3.99902 29
l1167 1591l-28 -28c-6.66699 -6.66699 -12.5 -12.834 -17.5 -18.501s-10.167 -11.167 -15.5 -16.5s-10.833 -10.5 -16.5 -15.5s-10.5 -9.5 -14.5 -13.5c-128.667 -122.667 -244 -219 -346 -289c-139.333 -94 -258 -148 -356 -162
c-102.667 -15.333 -190 -3.66602 -262 35.001c-70 35.333 -120.667 92 -152 170z" />
    <glyph glyph-name="colon" unicode=":" horiz-adv-x="661" 
d="M242 211c0 32.667 11.333 60.667 34 84c22 22 48.667 33 80 33c32.667 0 60 -11 82 -33c23.333 -23.333 35 -51.333 35 -84c0 -31.333 -11.667 -58.666 -35 -81.999c-22 -22 -49.333 -33 -82 -33c-31.333 0 -58 11 -80 33c-22.667 23.333 -34 50.666 -34 81.999zM375 770
c0 34 10.834 61.999 32.501 83.999s49 33 82 33s60.167 -11 81.5 -33c23.333 -23.333 35 -51.333 35 -84c0 -31.333 -11.667 -58.666 -35 -81.999c-22 -22 -49.333 -33 -82 -33s-59.834 11 -81.501 33s-32.5 49.333 -32.5 82z" />
    <glyph glyph-name="semicolon" unicode=";" horiz-adv-x="677" 
d="M129 -96c-4 9.33301 0 16.667 12 22c56 15.333 100.333 38 133 68c-2.66699 -1.33301 -8.66699 -2 -18 -2c-32.667 0 -60 10.833 -82 32.5s-33 49 -33 82s11 60.167 33 81.5c23.333 23.333 50.666 35 81.999 35c32.667 0 60.667 -11.667 84 -35c22 -22 33 -49.333 33 -82
c0 -18 -3.66699 -33.667 -11 -47c-30 -80.667 -100.667 -136.667 -212 -168h-5c-9.33301 0.666992 -14.666 5 -15.999 13zM375 770.001c0 34 10.834 61.999 32.501 83.999s49 33 82 33s60.167 -11 81.5 -33c23.333 -23.333 35 -51.333 35 -84
c0 -31.333 -11.667 -58.666 -35 -81.999c-22 -22 -49.333 -33 -82 -33s-59.834 11 -81.501 33s-32.5 49.333 -32.5 82z" />
    <glyph glyph-name="less" unicode="&#x3c;" 
d="M188 815c2.66699 8 9.6709 11.998 21.0039 11.998c273.333 -28.667 556.666 47.333 849.999 228c138 82 258.667 174.667 362 278c9.33301 8 18.166 8 26.499 0s8.5 -16.667 0.5 -26l-16 -17c-2.66699 -2.66699 -9.83398 -9.16699 -21.501 -19.5
s-21.834 -18.833 -30.501 -25.5l-73 -61c-36.667 -28.667 -71.667 -54.667 -105 -78c-54.667 -38 -95.667 -65.333 -123 -82c-136.667 -82 -268.334 -142.667 -395.001 -182c-137.333 -40.667 -270.333 -59.334 -399 -56.001c70.667 -44 140.334 -92.333 209.001 -145
c87.333 -66.667 153.333 -133.667 198 -201c63.333 -84 98.333 -165.667 105 -245c0 -13.333 -6.16699 -20.166 -18.5 -20.499s-18.5 4.83398 -18.5 15.501c-10.667 138 -107 278.667 -289 422c-35.333 28.667 -78.333 60.334 -129 95.001c-31.333 22 -66 43.667 -104 65
l-39 21c-10 4 -13.667 11.333 -11 22z" />
    <glyph glyph-name="equal" unicode="=" 
d="M76 497.5c0 12.333 6.00098 18.5 18.001 18.5h1239c12 0 18.167 -6.16699 18.5 -18.5s-5.83398 -18.5 -18.501 -18.5h-1239c-12 0 -18 6.16699 -18 18.5zM328.001 925.5c0 12.333 6.00098 18.5 18.001 18.5h1239c12 0 18.167 -6.16699 18.5 -18.5
s-5.83398 -18.5 -18.501 -18.5h-1239c-12 0 -18 6.16699 -18 18.5z" />
    <glyph glyph-name="greater" unicode="&#x3e;" 
d="M162 246c-10 8 -9.99609 16.0039 0.00390625 24.0039l43 41c36.667 34 81.667 71.667 135 113c75.333 57.333 138.666 101 189.999 131c130 79.333 262 139.333 396 180c131.333 42 263.666 61.333 396.999 58c-80.667 49.333 -150.334 97.666 -209.001 144.999
c-83.333 65.333 -149.666 131.666 -198.999 198.999c-61.333 84.667 -95.333 167 -102 247c0 9.33301 5.33301 16.333 16 21c13.333 0 20.333 -6.33301 21 -19c10.667 -136.667 107 -276.334 289 -419.001c31.333 -27.333 73.666 -59 126.999 -95
c23.333 -16.667 58.666 -38.334 105.999 -65.001c23.333 -13.333 36.333 -20.333 39 -21c9.33301 -4 12.666 -11.333 9.99902 -22c-5.33301 -9.33301 -12 -13.333 -20 -12c-272 28.667 -556 -47.333 -852 -228c-45.333 -27.333 -85.666 -54 -120.999 -80l-100 -77l-76 -62
l-49 -45l-17 -14c-2 -4 -6 -6 -12 -6s-10 2 -12 6z" />
    <glyph glyph-name="question" unicode="?" horiz-adv-x="1710" 
d="M121 94c0 32.667 11.002 59.999 33.002 81.999c23.333 23.333 50.666 35 81.999 35s58.5 -11.667 81.5 -35s34.5 -50.666 34.5 -81.999c0 -30 -11.5 -56.5 -34.5 -79.5s-50.333 -34.5 -82 -34.5s-58.834 11.333 -81.501 34c-22 22 -33 48.667 -33 80zM369.002 382.999
l285.999 458.999h11c198 -28.667 392.333 23.666 583 156.999c146 102.667 248.333 220.334 307 353.001c62.667 139.333 56 248.333 -20 327c-30 30 -70.333 53.333 -121 70c-68 26 -143 32.667 -225 20c-72.667 -10.667 -150 -36.334 -232 -77.001
c-74 -36.667 -141.333 -92 -202 -166c-62.667 -75.333 -110 -158.666 -142 -249.999c-5.33301 -12 -12.666 -16 -21.999 -12c-10.667 2.66699 -14.667 10 -12 22c58.667 177.333 169.667 318 333 422c162.667 102.667 332 128.667 508 78c146 -44 217 -133.333 213 -268
c-1.33301 -125.333 -64 -256.666 -188 -393.999c-134 -150 -293 -249.667 -477 -299c-104 -27.333 -201.667 -34 -293 -20l-275 -440c-2.66699 -6.66699 -8 -10.334 -16 -11.001l-4 2c-3.33301 0.666992 -5.33301 1.33398 -6 2.00098c-9.33301 6 -11.333 14.333 -6 25z" />
    <glyph glyph-name="at" unicode="@" horiz-adv-x="2338" 
d="M100 471c2.66699 128.667 51.999 261 147.999 397c112 160 260.667 300 446 420c188.667 121.333 384 204.666 586 249.999c203.333 45.333 400 41.333 590 -12c117.333 -39.333 210 -89.333 278 -150c69.333 -61.333 112.333 -135.666 129 -222.999
s-4.33301 -183.666 -63 -288.999c-31.333 -61.333 -77 -124.666 -137 -189.999c-60 -66.667 -127 -129.667 -201 -189c-72.667 -58.667 -150.667 -104.334 -234 -137.001c-80.667 -32.667 -155 -40 -223 -22c-54.667 16.667 -84 45.334 -88 86.001
c-6.66699 42 17.333 92.333 72 151l-127 -98c-28.667 -22 -71 -50.667 -127 -86c-53.333 -34 -104 -58 -152 -72c-52 -15.333 -101 -22.666 -147 -21.999c-75.333 0 -141.666 22.5 -198.999 67.5s-88.666 102.833 -93.999 173.5c-15.333 131.333 70 275.333 256 432
c243.333 206 474.666 309.333 693.999 310c68 0 130.333 -12.333 187 -37c54.667 -24.667 89.334 -65.667 104.001 -123c19.333 -90 -32.667 -200.667 -156 -332l9 6l153 107l127 84c31.333 19.333 47.666 28.666 48.999 27.999c10 8 18.333 6 25 -6c6 -8 4 -16 -6 -24
l-2 -1c-1.33301 -0.666992 -3.33301 -2 -6 -4s-5.83398 -4.16699 -9.50098 -6.5l-13.5 -8.5c-5.33301 -3.33301 -10.666 -6.33301 -15.999 -9l-127 -84l-154 -106c-212.667 -157.333 -313.667 -269.333 -303 -336c0 -26 20.667 -44 62 -54
c60 -16.667 130.167 -8.5 210.5 24.5s154.833 78.833 223.5 137.5c69.333 60 133.333 122.333 192 187c58.667 65.333 101 122.666 127 171.999c40.667 75.333 61.167 147 61.5 215s-16.167 125.333 -49.5 172c-34 48 -79.667 91 -137 129
c-54.667 35.333 -120.667 66 -198 92c-184 54.667 -380 56.667 -588 6c-200.667 -49.333 -392.667 -134 -576 -254c-181.333 -118.667 -320.333 -250.334 -417 -395.001c-100 -144.667 -147.333 -276.5 -142 -395.5s45 -218.5 119 -298.5c70.667 -79.333 169 -139 295 -179
c120 -38 249 -49.333 387 -34c184 20.667 341 58.667 471 114c131.333 57.333 251.333 132.666 360 225.999c9.33301 8 18.333 8 27 0c9.33301 -8 10 -16.333 2 -25c-105.333 -101.333 -234.333 -182 -387 -242c-155.333 -61.333 -312.333 -98.666 -471 -111.999
c-152.667 -13.333 -297.334 3 -434.001 49c-128.667 44 -229.667 110.333 -303 199c-71.333 84 -105.666 191 -102.999 321zM593.999 530c6.66699 -64 35.334 -114.332 86.001 -150.999c53.333 -38 110 -57 170 -57c62.667 0 135 20.333 217 61c83.333 42 149 81 197 117
l202 164c223.333 186.667 321.666 332 294.999 436c-26 87.333 -110.667 131 -254 131c-101.333 0 -210.333 -26.667 -327 -80c-118.667 -54.667 -232.667 -128.334 -342 -221.001c-176 -148 -257.333 -281.333 -244 -400z" />
    <glyph glyph-name="A" unicode="A" horiz-adv-x="2471" 
d="M49 285l0.00292969 2.00195c0 12 6.16699 18 18.5 18s18.5 -6 18.5 -18v-2c0 -35.333 5.33301 -75 16 -119c24.667 -82 61.667 -140 111 -174c55.333 -32.667 113.666 -49 174.999 -49c25.333 0 51 2.66699 77 8c87.333 18 165.666 61 234.999 129
c61.333 57.333 134 145.333 218 264l174 268c-72.667 28.667 -124.667 65.667 -156 111c-20.667 26 -31 58 -31 96c0 61.333 22 110.666 66 147.999c48 39.333 121 59 219 59c61.333 0 114.666 -6.66699 159.999 -20l16 25c10.667 17.333 21 31.333 31 42
c229.333 308.667 427.333 536 594 682c220 191.333 439 305.333 657 341.999c45.333 8 99.333 12 162 12c138 0 255.333 -34 352 -102c6.66699 -5.33301 10 -10.666 10 -15.999c0 -3.33301 -1.33301 -7 -4 -11c-6.66699 -10.667 -15.334 -11.334 -26 -2.00098
c-82 56 -179 88.333 -291 97l-41 -29c-24.667 -16.667 -61 -45.334 -109 -86.001c-120 -100 -230.333 -218 -331 -354c-216 -285.333 -359.667 -611.666 -431 -978.999c56 13.333 117.667 34.333 185 63c45.333 19.333 83.333 38.666 114 57.999c18 9.33301 30.333 18 37 26
c9.33301 8 18.166 7.33301 26.5 -2c8.33301 -9.33301 7.16602 -18.333 -3.50098 -27c0 -2.66699 -12.333 -12 -37 -28c-27.333 -18 -70.333 -40 -129 -66c-57.333 -24.667 -124.333 -45.667 -201 -63c-28.667 -168 -43 -335.333 -43 -502v-86h-37c0 82 -10 179 -30 291
c-18 88.667 -43.333 176.667 -76 264c-72 -4.66699 -137.333 -7 -196 -7c-19.333 0 -38 0.333008 -56 1c-150 6.66699 -272.333 23.667 -367 51l-67 -108c-135.333 -210 -246.666 -356.333 -333.999 -439c-48 -45.333 -100.667 -80.666 -158 -105.999
c-61.333 -27.333 -125.333 -41 -192 -41c-69.333 0 -130 19 -182 57c-45.333 34 -79 75.667 -101 125c-28.667 64 -43 129.667 -43 197zM942.003 819.002c0 -72.667 56.668 -130.666 170.001 -173.999c109.333 170.667 181 280.667 215 330
c-46.667 10.667 -92.334 16 -137.001 16c-86 0 -151 -17.667 -195 -53c-35.333 -28.667 -53 -68.334 -53 -119.001zM1147 633.003c96.667 -27.333 212.668 -43.001 348.001 -47.001c20 -0.666992 40 -1 60 -1c58.667 0 117.334 2.33301 176.001 7
c-32.667 76.667 -74.334 144.334 -125.001 203.001c-66.667 82 -147.334 138 -242.001 168zM1386 995.002c96.667 -35.333 179.334 -93.999 248.001 -175.999c56 -68 100.333 -142.333 133 -223c65.333 9.33301 110 16 134 20c69.333 375.333 216 712.666 440 1012
c142 187.333 290.667 336.333 446 447c-50.667 -1.33301 -94.334 -5.66602 -131 -13c-218.667 -39.333 -432.334 -151.333 -641 -336c-173.333 -152.667 -369.333 -377.667 -588 -675c-24.667 -33.333 -38.334 -52 -41.001 -56zM1782 559.003
c12 -28.667 22.002 -57.333 30.002 -86c19.333 -56 34.666 -117.333 45.999 -184c5.33301 90 16.666 186.333 33.999 289c-47.333 -8.66699 -84 -15 -110 -19z" />
    <glyph glyph-name="B" unicode="B" horiz-adv-x="2035" 
d="M-386 86c0 9.33301 5.00586 14.668 15.0059 16.001c13.333 2.66699 21 -2 23 -14c8 -44 29 -78.667 63 -104c36 -32.667 81 -49.334 135 -50.001c16 0 32.667 1.66699 50 5c74 8 147 42 219 102c65.333 55.333 130.666 133 195.999 233
c39.333 61.333 107.666 178.333 204.999 351l205 360c162.667 278.667 292.334 484.334 389.001 617.001c66.667 94 133 172.333 199 235h-15c-214.667 0 -408.334 -60 -581.001 -180c-87.333 -61.333 -154.333 -124.333 -201 -189c-8 -10.667 -17 -12 -27 -4
c-10.667 8 -12 17 -4 27l9 10c1.33301 1.33301 5 5.5 11 12.5s11 12.5 15 16.5l41 43c8 8 27 25.667 57 53c26 24.667 50 43.667 72 57c182 126.667 384.667 190.334 608 191.001c30 0 48 -0.666992 54 -2c55.333 51.333 114.666 94.333 177.999 129
c104 56.667 222.333 85 355 85c13.333 0 26.666 -0.333008 39.999 -1c57.333 -1.33301 114 -15.666 170 -42.999c54.667 -26 92.334 -62.333 113 -109c2 -4 3 -7.33301 3 -10c0 -6.66699 -3.66699 -11.334 -11 -14.001c-9.33301 -5.33301 -17.666 -2.66602 -25 8.00098
c-18 36.667 -52 67.334 -102 92.001c-48 23.333 -98.667 36.333 -152 39h-16c-142.667 0 -262.334 -26.667 -359.001 -80c-36.667 -19.333 -84.334 -52.666 -143.001 -99.999c10.667 0 35.334 -2.66699 74.001 -8c194 -31.333 331.667 -97 413 -197
c60 -72.667 90 -159.334 90 -260.001c0 -48 -4.66699 -85.667 -14 -113c-15.333 -44 -30.333 -77.333 -45 -100c-48 -78 -113.667 -134 -197 -168l-77 -29c62.667 -54.667 108.334 -109.334 137.001 -164.001c39.333 -70.667 59 -153.667 59 -249
c0 -94 -22.333 -185 -67 -273c-54.667 -110.667 -134 -199.334 -238 -266.001c-102.667 -65.333 -216.667 -98 -342 -98c-161.333 0 -296.333 38 -405 114c-108 75.333 -162 190.666 -162 345.999c0 2.66699 0.333008 6.83398 1 12.501s1 9.83398 1 12.501
s0.333008 6.83398 1 12.501s1 9.16699 1 10.5c0 2.66699 0.333008 5.66699 1 9s1 5.66602 1 6.99902s0.333008 3.33301 1 6l1 4v4c1.33301 13.333 8.66602 18.333 21.999 15c10 -2 14.333 -10.333 13 -25c-4 -20.667 -6 -43.334 -6 -68.001c0 -109.333 38 -206 114 -290
c88.667 -88.667 227.334 -133 416.001 -133c116 0 222.5 30 319.5 90s172.833 144.667 227.5 254c44 87.333 66 172.666 66 255.999c0 76 -18 151 -54 225c-22.667 49.333 -65.667 102.666 -129 159.999c-12 9.33301 -19.333 16 -22 20
c-49.333 -7.33301 -97.666 -11 -144.999 -11s-94 3.66699 -140 11c-102.667 16.667 -154 50 -154 100c0 27.333 11 49.333 33 66c20.667 15.333 46.667 23 78 23c35.333 0 71.333 -6.33301 108 -19c74 -27.333 150 -71 228 -131c96.667 20.667 175 63 235 127l25 31l11 16
c4.66699 6.66699 7.66699 11.334 9 14.001c4 5.33301 9 13.666 15 24.999l12 25c1.33301 2.66699 2.66602 6.33398 3.99902 11.001s2 7.66699 2 9l4 12l2 6c8 32.667 12.333 67 13 103c0 91.333 -27.333 170.333 -82 237c-76.667 92.667 -207.334 153.667 -392.001 183
c-36.667 6.66699 -72 10.667 -106 12c-38 -38 -68.667 -70 -92 -96c-50.667 -54.667 -110.667 -132 -180 -232c-40.667 -58.667 -91.334 -136.334 -152.001 -233.001l-184 -307l-314 -557c-113.333 -190 -213 -322 -299 -396c-75.333 -64 -155 -101.333 -239 -112
c-18 -2.66699 -35 -4 -51 -4c-64.667 0 -118.667 19 -162 57c-18.667 16 -36.167 36.167 -52.5 60.5s-24.5 47.833 -24.5 70.5zM1202.01 1085c0 -22 24.668 -39.667 74.001 -53c44 -12 107.333 -19.333 190 -22c35.333 0 67.666 2 96.999 6
c-83.333 56 -145.666 91.333 -186.999 106c-36.667 12 -69.334 18.333 -98.001 19c-18 0 -35.667 -5.66699 -53 -17c-15.333 -9.33301 -23 -22.333 -23 -39z" />
    <glyph glyph-name="C" unicode="C" horiz-adv-x="1509" 
d="M84 389c0 206 99.666 439.667 298.999 701c146 191.333 321.333 363.333 526 516c-50.667 70.667 -80.667 145.667 -90 225c-1.33301 12 3.66699 18.667 15 20c10.667 2.66699 17.334 -3.33301 20.001 -18c16.667 -82 45.334 -150.333 86.001 -205
c24.667 19.333 56 41.333 94 66c166.667 106.667 319 178.334 457 215.001c69.333 16.667 128 24.667 176 24c54.667 0 104 -10.667 148 -32c32.667 -22 55.667 -51.667 69 -89c8 -23.333 12 -47 12 -71c0 -64 -19 -121.333 -57 -172
c-24.667 -36.667 -59.334 -71.667 -104.001 -105c-90 -65.333 -199.333 -99.333 -328 -102c-44 0 -85 3.33301 -123 10c-90 16.667 -172.667 51 -248 103c-45.333 31.333 -80 65.333 -104 102l-109 -86c-244.667 -202 -433 -419.667 -565 -653
c-91.333 -165.333 -137 -315 -137 -449c6.66699 -166.667 62.667 -284.667 168 -354c63.333 -40.667 143 -61.334 239 -62.001c122.667 4 228 33.333 316 88c151.333 86 290.666 227.333 417.999 424c5.33301 9.33301 14 11.666 26 6.99902c10.667 -8 12 -17 4 -27
c-129.333 -198.667 -272.666 -344 -429.999 -436c-110.667 -61.333 -222 -92 -334 -92c-68 0 -132.667 11.333 -194 34c-80.667 32.667 -143 87.334 -187 164.001c-42 75.333 -63 160 -63 254zM960.999 1597c27.333 -32.667 59.333 -63.332 96 -91.999
c68 -50.667 145.667 -82.667 233 -96c38 -6.66699 77 -10 117 -10c113.333 0 214.333 30.667 303 92c4 2.66699 9.16699 6.66699 15.5 12s10.166 8 11.499 8l20 21l19 18l14 17c2.66699 2.66699 4.66699 5 6 7s2.66602 3.66699 3.99902 5l6 6l4 4
c32.667 45.333 49.334 96 50.001 152c0 34 -7.66699 62.667 -23 86c-16.667 24.667 -42 43.667 -76 57c-24.667 8 -56 12 -94 12c-52 0 -108 -8 -168 -24c-167.333 -42.667 -346.666 -134.334 -537.999 -275.001z" />
    <glyph glyph-name="D" unicode="D" horiz-adv-x="2062" 
d="M-312 57c0 9.33301 5.00098 14.9941 15.001 16.9941c12 1.33301 19.667 -3 23 -13c10.667 -45.333 31 -80.666 61 -105.999c40 -32 87.333 -48 142 -48c14 0 28.667 1 44 3c78 10.667 150.333 45.334 217 104.001c62.667 57.333 125.667 136 189 236l186 325
c84.667 152.667 159 280.334 223 383.001l168 263c-82 12 -149.333 40 -202 84c-56 45.333 -91 99 -105 161c-3.33301 14 -5 28.667 -5 44c0 50.667 18.667 105 56 163c52 78 123.667 132.667 215 164c64 22 130 33 198 33l73 -4c91.333 -10.667 182 -34 272 -70
c58.667 42 112.667 74.667 162 98c118.667 58.667 244.334 88 377.001 88c202 0 331 -64.667 387 -194c1.33301 -3.33301 2 -6.33301 2 -9c0 -6 -3.33301 -11.333 -10 -16c-12 -4 -20.333 -0.333008 -25 11c-52 114.667 -170 172 -354 172c-124 0 -244.333 -28 -361 -84
c-61.333 -32.667 -107 -60.667 -137 -84c134 -60 239.333 -146.667 316 -260c84.667 -130 127 -285.667 127 -467c0 -140.667 -23.333 -282.667 -70 -426c-94 -292 -245 -492 -453 -600c-100 -52 -202.333 -78 -307 -78c-86 0 -164.333 18.333 -235 55
c-72 36.667 -125.333 92 -160 166c-12 23.333 -21.667 57.333 -29 102c-1.33301 10.667 -2 21.334 -2 32.001c0 30 6.33301 63.667 19 101c16.667 48 47.334 85.667 92.001 113c44 26 94.333 39 151 39c75.333 0 160 -19 254 -57c9.33301 -6.66699 12.666 -15 9.99902 -25
c-6.66699 -10.667 -14.667 -14 -24 -10c-90 36.667 -170 55 -240 55c-48 0 -90.333 -10.333 -127 -31c-49.333 -28.667 -80 -75.667 -92 -141c-4 -20 -6 -39 -6 -57c0 -39.333 9 -74.333 27 -105c32.667 -65.333 81 -115 145 -149c65.333 -34 137.666 -51 216.999 -51
c100 0 197 24.333 291 73c203.333 106.667 348 300 434 580c45.333 146 68 284 68 414c0 173.333 -40.333 322 -121 446c-74 112 -180.667 197.333 -320 256c-32.667 -24.667 -76.334 -63 -131.001 -115c-104 -104 -207.667 -233.667 -311 -389c138 0 261 38.333 369 115
c54.667 36.667 101.667 78.334 141 125.001c5.33301 9.33301 14.333 10 27 2c9.33301 -8 10 -16.333 2 -25c0 -1.33301 -5 -7.33301 -15 -18c-8 -10.667 -25.667 -27 -53 -49c-39.333 -32.667 -64 -52.667 -74 -60c-117.333 -84.667 -240.666 -127 -369.999 -127
c-16.667 0 -34 0.666992 -52 2l-178 -274l-186 -322c-76.667 -136.667 -120.334 -213.667 -131.001 -231c-109.333 -194 -205 -327 -287 -399c-72.667 -65.333 -152 -103.666 -238 -114.999c-18 -2.66699 -35 -4 -51 -4c-64.667 0 -118.667 19 -162 57
c-18.667 16 -36 36.167 -52 60.5s-24 47.833 -24 70.5zM707.001 1422.99c45.333 -87.333 136.667 -143.334 274 -168.001c62.667 94 125.334 178.667 188.001 254c87.333 106.667 172.666 193.334 255.999 260.001c-74 27.333 -149.667 46.666 -227 57.999
c-25.333 3.33301 -51.333 5 -78 5c-48 0 -97.667 -5.66699 -149 -17c-82 -19.333 -147.667 -55.666 -197 -108.999c-60 -66.667 -90 -131 -90 -193c0 -30.667 7.66699 -60.667 23 -90z" />
    <glyph glyph-name="E" unicode="E" horiz-adv-x="1732" 
d="M221 575c27.333 165.333 103.335 299.999 228.002 403.999c106.667 88.667 217 144.667 331 168c-22.667 62.667 -34 125.667 -34 189c0 61.333 10.667 123.333 32 186c-88.667 92.667 -141 195 -157 307c-2.66699 13.333 2.66602 20.666 15.999 21.999
c10.667 0 17.334 -5.33301 20.001 -16c18.667 -104.667 64 -196.667 136 -276c16.667 45.333 43.667 94.333 81 147c48 66.667 109.667 123.334 185 170.001c48 27.333 87 47 117 59c32.667 12 62.667 21.667 90 29c19.333 4 30.666 6 33.999 6c34 4 66.333 6 97 6
c106 0 186.333 -26 241 -78c42 -42 64.667 -97 68 -165v-11c0 -61.333 -16.333 -114.333 -49 -159c-46.667 -66.667 -110.334 -118.667 -191.001 -156c-79.333 -36.667 -162.333 -55 -249 -55c-165.333 5.33301 -301.333 52.333 -408 141c-16 -60 -24 -116 -24 -168
c0 -62 11.333 -119.333 34 -172c34 6.66699 74.667 10 122 10c20.667 0 43 -0.666992 67 -2c52 -6.66699 93.667 -21.667 125 -45c24.667 -18.667 37 -41 37 -67c0 -9.33301 -1.66699 -19.666 -5 -30.999c-10.667 -32.667 -35.667 -51 -75 -55
c-9.33301 -1.33301 -19 -2 -29 -2c-31.333 0 -62 5.33301 -92 16c-38 13.333 -70.333 29.666 -97 48.999c-34 27.333 -58.333 56 -73 86c-125.333 -24.667 -234.666 -78.667 -327.999 -162c-114.667 -96.667 -185.667 -223.667 -213 -381c-4 -34.667 -6 -67.667 -6 -99
c0 -106 24 -192.333 72 -259c49.333 -65.333 112.666 -115.333 189.999 -150c82 -35.333 162 -53 240 -53c162.667 0 310 39.667 442 119c134 80.667 235 192 303 334c5.33301 12 13.666 15.333 24.999 10c12 -5.33301 15.333 -13.666 10 -24.999
c-82 -154 -189.333 -271.333 -322 -352c-135.333 -82 -288 -123 -458 -123c-203.333 8 -355.666 79 -456.999 213c-56 78 -84 173 -84 285c0 34 2.66699 69.333 8 106zM821.002 1532c104 -95.333 236.002 -143 396.002 -143c95.333 1.33301 174.333 18.333 237 51
c65.333 34 122.666 82.333 171.999 145c28.667 36.667 43 86 43 148c0 57.333 -18.333 103.666 -55 138.999c-44.667 44.667 -115 67 -211 67c-32.667 0 -68.334 -2.66699 -107.001 -8c-72 -10 -143.667 -38.667 -215 -86c-72.667 -48 -132 -102 -178 -162
c-30 -43.333 -57.333 -93.666 -82 -150.999zM838.004 1118c13.333 -23.333 32.334 -44.332 57.001 -62.999c40.667 -30.667 85.667 -49.334 135 -56.001c10 -1.33301 19.667 -2 29 -2c35.333 0 59 10.333 71 31c2.66699 7.33301 4 14 4 20c0 20 -11.333 36.667 -34 50
c-30 18 -62 27.333 -96 28c-16.667 1.33301 -33.334 2 -50.001 2c-38 0 -76.667 -3.33301 -116 -10z" />
    <glyph glyph-name="F" unicode="F" 
d="M-59 154c0 20.667 3.3291 50.001 9.99609 88.001c4 12 11.333 16.667 22 14c12 -1.33301 17 -9 15 -23c-6.66699 -34 -10.334 -60.333 -11.001 -79c0 -57.333 16.5 -102.5 49.5 -135.5s78.833 -52.833 137.5 -59.5c14 -2 28.333 -3 43 -3c65.333 0 130 18.667 194 56
c63.333 38.667 129 94 197 166c46.667 49.333 97.334 109.333 152.001 180l194 256l131 177l17 22c-72.667 -23.333 -145.334 -35 -218.001 -35c-40.667 0 -76.667 2.66699 -108 8c-34.667 6 -69.334 20.333 -104.001 43c-30.667 20 -46.334 45.667 -47.001 77
c0 5.33301 0.333008 10.666 1 15.999c10 82 77.667 122.667 203 122c40.667 0 91.334 -6 152.001 -18c34 -6.66699 63.333 -14 88 -22c40.667 -13.333 65.334 -21 74.001 -23c26 -8 49.667 -14 71 -18c134 174.667 249.333 316.667 346 426c82 88 156 161.667 222 221
c-147.333 38 -301.666 87 -462.999 147c-98 35.333 -194.333 53 -289 53c-90 0 -180.667 -18.333 -272 -55c-95.333 -38 -172.666 -86.333 -231.999 -145c-9.33301 -8 -18.333 -8 -27 0c-9.33301 8 -10 16 -2 24c66.667 66.667 147.334 118.667 242.001 156
c98 38 195 57 291 57c98 0 198.333 -18.333 301 -55c174 -63.333 335.667 -114.666 485 -153.999c96.667 84.667 193 151 289 199c139.333 69.333 278 104.333 416 105c131.333 0 220.666 -24 268 -72c25.333 -18.667 38 -48 38 -88c0 -6.66699 -0.333008 -13.667 -1 -21
c-4 -51.333 -30.667 -98.333 -80 -141c-70.667 -58.667 -174.334 -91.334 -311 -98.001c-56 0 -111.333 1.33301 -166 4c-46.667 2.66699 -106.667 9.33398 -180 20.001c-90 13.333 -177.333 31 -262 53l-70 -61c-138 -130 -305.333 -324 -502 -582
c19.333 -2.66699 41.333 -4 66 -4c79.333 0 154.333 19.333 225 58c10 8 18.333 6 25 -6s3.66699 -20.333 -9 -25c-76.667 -42 -157 -63.333 -241 -64c-31.333 0 -61.333 2.33301 -90 7l-31 -41l-39 -50c-1.33301 -2.66699 -4.66602 -8 -9.99902 -16
s-10.333 -14.667 -15 -20c-12 -16.667 -18.667 -25.667 -20 -27c-210 -282.667 -335 -447.334 -375 -494.001c-117.333 -142 -221 -240 -311 -294c-72 -40 -143.333 -60.333 -214 -61c-15.333 0 -30.666 1 -45.999 3c-69.333 8 -124 32.667 -164 74
c-36.667 41.333 -55 94 -55 158zM652.996 908.001c0 -24 13.668 -43.334 41.001 -58.001c30 -16.667 61.333 -27 94 -31c24.667 -3.33301 46.667 -5 66 -5c7.33301 0 14 0.333008 20 1c35.333 0 82.666 5.33301 141.999 16c57.333 10.667 94.666 21 111.999 31
c6.66699 6.66699 14.167 15.834 22.5 27.501l29.5 40.5c-1.33301 0 -4.5 1 -9.5 3s-11.5 3.66699 -19.5 5c-13.333 2.66699 -23 4.66699 -29 6l-146 41c-7.33301 2.66699 -11.666 4 -12.999 4c-54.667 12 -102.667 18.333 -144 19c-110.667 0 -166 -33.333 -166 -100z
M1851 1628c90 -22.667 171.999 -38.999 245.999 -48.999c72.667 -9.33301 128.667 -15.333 168 -18c24.667 -1.33301 77.334 -2 158.001 -2c113.333 4 202 28.333 266 73c34 18 60.667 48.667 80 92c6.66699 15.333 10 30.666 10 45.999c0 24 -8.66699 47.667 -26 71
c-38 38 -118.667 59.333 -242 64c-132.667 0 -265 -33.667 -397 -101c-92 -48 -179.667 -106.667 -263 -176z" />
    <glyph glyph-name="G" unicode="G" horiz-adv-x="1976" 
d="M49 -16c0 16.667 0.664062 28.665 1.99707 35.998c0 4 0.333008 9.83301 1 17.5s1.66699 12.834 3 15.501s2 6.83398 2 12.501s0.666992 9.83398 2 12.501l4 16l3 6c4 9.33301 12 14.333 24 15c13.333 -2.66699 16.666 -11.667 9.99902 -27
c-9.33301 -32.667 -14 -67.334 -14 -104.001c4 -88.667 36 -152.334 96 -191.001c62.667 -39.333 138 -59 226 -59c88.667 0 173.334 18.333 254.001 55c62.667 30 123.334 75.667 182.001 137l49 56c-92 24.667 -163.667 77.667 -215 159c-48 72.667 -72 163 -72 271
c0 206 99.667 439.333 299 700c151.333 198 327.666 370 528.999 516c-4 4 -6.83301 8.16699 -8.5 12.5s-4.5 8.5 -8.5 12.5c-19.333 32.667 -35 64.667 -47 96c-8 23.333 -15.333 49.333 -22 78l-7 26c-1.33301 10.667 4.33398 18.334 17.001 23.001
c12 2.66699 18.667 -2.66602 20 -15.999c13.333 -76.667 41.333 -146.334 84 -209.001l94 65c166.667 106.667 319 178.334 457 215.001c69.333 16.667 128.666 25 177.999 25c57.333 0 106 -11 146 -33c36.667 -24.667 61 -58 73 -100c6 -21.333 9.33301 -43 10 -65
c0 -19.333 -2.33301 -38.666 -7 -57.999c-9.33301 -38 -26 -74.333 -50 -109c-22 -32.667 -57.333 -67.334 -106 -104.001c-96.667 -68 -206 -102.333 -328 -103c-143.333 1.33301 -266.666 39 -369.999 113c-39.333 28.667 -74.333 62.667 -105 102l-106 -86
c-248.667 -207.333 -437.334 -425 -566.001 -653c-92.667 -165.333 -139 -314.666 -139 -447.999c1.33301 -102.667 23.333 -186 66 -250c46.667 -72.667 116.334 -122.667 209.001 -150c42 61.333 93 144.666 153 249.999c56 100 116 188 180 264
c74 90 148 155.667 222 197c56 31.333 111.667 47.666 167 48.999h9c52.667 0 99.667 -17.667 141 -53c24.667 -32 37 -66 37 -102c0 -42.667 -9.66699 -82.334 -29 -119.001c-112 -206 -247.667 -356.333 -407 -451c-110 -61.333 -218.667 -92 -326 -92
c-45.333 0 -89.666 5.33301 -132.999 16c-78 -100 -163.333 -171.667 -256 -215c-83.333 -39.333 -172.666 -59 -267.999 -59c-104 0 -190 24 -258 72c-67.333 46.667 -101 118.334 -101 215.001zM955.997 3.99805c38.667 -6.66699 76.334 -10.002 113.001 -10.002
c58 0 112.667 8.66699 164 26c69.333 26 115.666 46 138.999 60c153.333 88 284.333 233.333 393 436c15.333 36 23.333 68.333 24 97c0 31.333 -9.33301 58.333 -28 81c-32.667 27.333 -71.667 41 -117 41h-10c-46.667 -1.33301 -94.334 -16.333 -143.001 -45
c-53.333 -31.333 -101 -69.666 -143 -114.999c-79.333 -79.333 -160.666 -189.666 -243.999 -330.999c-66 -114.667 -115.333 -194.667 -148 -240zM1485 1620c22 -30 54.001 -60.6689 96.001 -92.002c100 -70.667 216 -106.334 348 -107.001c116 0 217 30.667 303 92
c58.667 45.333 102.334 98 131 158c14 30.667 21.333 60.334 22 89.001c0 30.667 -8 60.334 -24 89.001c-26 46.667 -82.667 70 -170 70c-54.667 0 -111.334 -8.33301 -170.001 -25c-167.333 -43.333 -346 -134.666 -536 -273.999z" />
    <glyph glyph-name="H" unicode="H" horiz-adv-x="1890" 
d="M-35 -193c0 133.333 57.3252 276.996 171.992 430.996c160 208.667 402.333 391.334 727 548.001l148 451c114.667 345.333 227.334 596.666 338.001 753.999l8 12l8 12c-32.667 12 -49.667 19 -51 21c-75.333 34 -147.666 91.333 -216.999 172
c-9.33301 9.33301 -8.66602 18 2.00098 26c8 8 16 7.33301 24 -2c69.333 -79.333 137.666 -133 204.999 -161c26.667 -12 47.334 -20.333 62.001 -25c78 101.333 161 168.333 249 201c30.667 11.333 57.667 17 81 17c20 0 37.667 -4.33301 53 -13
c23.333 -15.333 36 -36 38 -62c0 -4 0.333008 -7.66699 1 -11c0 -21.333 -5.66699 -40 -17 -56c-15.333 -23.333 -44.666 -48.666 -87.999 -75.999c-60 -35.333 -127.667 -53 -203 -53c-31.333 0 -64.666 4 -99.999 12c-2 -4 -6 -10 -12 -18
c-1.33301 -1.33301 -3.16602 -3.5 -5.49902 -6.5s-4.16602 -5.16699 -5.49902 -6.5s-2 -2.66602 -2 -3.99902c-78 -112 -154.333 -264.333 -229 -457c-62.667 -164 -143.334 -399.333 -242.001 -706c120 54.667 243 104.334 369 149.001c140.667 49.333 275.667 106 405 170
c112 202 233.667 390.667 365 566l2 2c1.33301 1.33301 2.66602 3 4 5c1.33301 2 2.66602 4.33301 4 7l29 35l37 43c57.333 65.333 114.666 117 172 155c50.667 31.333 96.334 47.333 137 48c46.667 0 84.334 -15.167 113.001 -45.5s43 -66.5 43 -108.5
c-4 -74 -39.667 -144.333 -107 -211c-2.66699 -2.66699 -7 -7.5 -13 -14.5s-13.333 -13.833 -22 -20.5c-9.33301 -9.33301 -41.333 -36 -96 -80c-68 -54.667 -120 -95 -156 -121c-56 -40.667 -127 -87 -213 -139c-101.333 -61.333 -192 -111 -272 -149
c-88.667 -155.333 -161 -303.666 -217 -444.999c-70.667 -184 -106.334 -340.333 -107.001 -469c0 -79.333 14.667 -149.666 44 -210.999c34 -65.333 75.333 -118.333 124 -159c49.333 -34 114.333 -62.667 195 -86c9.33301 -4 13.333 -11.667 12 -23
c-1.33301 -12 -8.66602 -16.667 -21.999 -14c-90 27.333 -158.333 58.666 -205 93.999c-54.667 38 -100.334 95.333 -137.001 172c-31.333 65.333 -47 141 -47 227c0 132.667 36.667 293.334 110 482.001c47.333 124.667 111 259.667 191 405
c-109.333 -53.333 -229.666 -103 -360.999 -149c-138 -49.333 -269.667 -103.333 -395 -162l-170 -535l-70 -180c-60 -143.333 -118 -256 -174 -338c-53.333 -78 -105.666 -134 -156.999 -168c-36 -20.667 -72.333 -31 -109 -31l-51 7
c-54.667 15.333 -99 44.666 -133 87.999c-44 55.333 -66 123.333 -66 204zM1.99219 -193.004c0 -78 18.9971 -138.666 56.9971 -181.999c32.667 -39.333 70.334 -64 113.001 -74c14.667 -3.33301 29.334 -5 44.001 -5c29.333 0 57 7.33301 83 22
c22.667 12 49.334 34.333 80.001 67c49.333 56 97.666 128.667 144.999 218c62.667 117.333 118 245.666 166 384.999l160 499c-309.333 -151.333 -536.666 -325.333 -681.999 -522c-110.667 -146.667 -166 -282.667 -166 -408zM1429.99 2036
c27.333 -4 52.333 -6.00098 75 -6.00098c31.333 0 62.666 4 93.999 12c32.667 8 54.667 15.333 66 22l23 13c36.667 23.333 62.334 45 77.001 65c9.33301 18 12 33.833 8 47.5s-10 23.167 -18 28.5c-12 6.66699 -25.333 10 -40 10c-17.333 0 -37.333 -4.66699 -60 -14
c-80.667 -35.333 -155.667 -94.666 -225 -177.999zM1742.99 1155c135.333 69.333 262.332 145 380.999 227s199 142.333 241 181c50.667 46.667 80.334 74.667 89 84c65.333 68 98 130 98 186c-2.66699 32.667 -15 60 -37 82c-23.333 23.333 -50.666 35 -81.999 35
c-60 -1.33301 -133 -43 -219 -125c-86 -86 -152.333 -167.333 -199 -244l-155 -233c-64.667 -102.667 -103.667 -167 -117 -193z" />
    <glyph glyph-name="I" unicode="I" 
d="M37 63c0 28.667 3.33594 58.332 10.0029 88.999c1.33301 10.667 8.16602 15.334 20.499 14.001s17.166 -9 14.499 -23c-5.33301 -23.333 -8 -50 -8 -80c2.66699 -57.333 20.334 -102.333 53.001 -135c32.667 -34 77 -53.667 133 -59
c10.667 -0.666992 21.334 -1 32.001 -1c72.667 0 140.667 18 204 54c61.333 36.667 126.666 92 195.999 166l72 80c26 30 48.333 57.333 67 82l82 104c16.667 20.667 42 55 76 103l90 123l90 120l203 277c101.333 139.333 180.666 245 237.999 317
c105.333 134 207 242.667 305 326c-91.333 28.667 -140 44.334 -146 47.001c-96.667 31.333 -191.334 47 -284.001 47c-133.333 0 -256.333 -30.667 -369 -92c-58.667 -32.667 -105.667 -66.667 -141 -102c-8 -9.33301 -17 -9.33301 -27 0c-9.33301 8 -9.33301 16.667 0 26
c30 31.333 77.333 65.666 142 102.999c124 68 255.667 102 395 102c96 0 194.333 -16.333 295 -49c94 -31.333 150.667 -49 170 -53c40.667 30.667 79.334 57.334 116.001 80.001c116 69.333 237.667 109.333 365 120c14 0.666992 27.333 1.33398 40 2.00098
c133.333 0 200 -48.333 200 -145c-1.33301 -61.333 -26 -108.333 -74 -141c-45.333 -31.333 -98.333 -47.333 -159 -48c-4 0 -7.66699 0.333008 -11 1c-65.333 0 -151.333 10.667 -258 32c-66.667 16.667 -137 36 -211 58c-48 -38 -106.667 -94 -176 -168
c-35.333 -38 -84.666 -96 -147.999 -174c-61.333 -75.333 -107 -134 -137 -176l-151 -209l-146 -203c-210 -282.667 -335 -447.334 -375 -494.001c-118.667 -144.667 -222.334 -242.334 -311.001 -293.001c-71.333 -40 -147.333 -60 -228 -60
c-10.667 0 -21.334 0.333008 -32.001 1c-61.333 5.33301 -113.333 29.333 -156 72c-40.667 40.667 -61 93.667 -61 159zM1993 1634c58.667 -18 120.001 -33.668 184.001 -47.001c92.667 -22 176.667 -33 252 -33c55.333 4 102.333 18.333 141 43c38 24.667 58.667 61 62 109
c-4 72 -56 108 -156 108c-12.667 0 -25.667 -0.666992 -39 -2c-118.667 -10.667 -236 -48.667 -352 -114c-24.667 -15.333 -55.334 -36.666 -92.001 -63.999z" />
    <glyph glyph-name="J" unicode="J" horiz-adv-x="1245" 
d="M-735 -106c0 65.333 24.3369 118.329 73.0039 158.996c48 39.333 107 59.333 177 60c80.667 0 174 -24.667 280 -74c177.333 -79.333 308.333 -126.333 393 -141c61.333 53.333 126.333 119.333 195 198c65.333 74 125.333 147.667 180 221l225 306
c87.333 122.667 149 207.334 185 254.001c196.667 270.667 355.667 472.667 477 606c65.333 72.667 142.333 149.667 231 231c-194 44 -333 66 -417 66c-50.667 0 -95.334 -2.66699 -134.001 -8c-34 -5.33301 -64.667 -11 -92 -17c-19.333 -4 -30 -6.66699 -32 -8
c-12 -2 -20.333 2 -25 12c-1.33301 10.667 2.66699 18.334 12 23.001c69.333 23.333 159.666 35 270.999 35c94 -1.33301 244.667 -26 452 -74c96.667 82 191.667 146 285 192c143.333 70.667 284.666 106.334 424 107.001c117.333 -6.66699 197 -34.667 239 -84
c26.667 -35.333 40.334 -73 41 -113c0 -7.33301 -0.666992 -14.666 -2 -21.999c-6.66699 -46.667 -26.334 -88.334 -59 -125.001c-75.333 -75.333 -185.666 -113 -331 -113c-73.333 0 -155.666 9.66699 -246.999 29c-69.333 16.667 -183.333 46 -342 88l-73 -68
c-75.333 -70.667 -154 -154 -236 -250c-86 -100 -153 -181 -201 -243l-213 -285l-139 -194l-164 -228l-139 -182c-118.667 -152.667 -226.334 -273.667 -323.001 -363c45.333 -5.33301 92.333 -8 141 -8c83.333 0 159.666 9 228.999 27c13.333 2.66699 21 -2 23 -14
c2.66699 -13.333 -2.33301 -21 -15 -23c-72.667 -18 -151.667 -27 -237 -27c-69.333 0 -128 5 -176 15c-42 -35.333 -75 -61.333 -99 -78c-158.667 -109.333 -313.334 -164 -464.001 -164c-94 0 -178.667 24.667 -254 74c-78 50.667 -117.667 118.334 -119 203.001z
M-693.996 -106.004c4 -76.667 41.334 -135.666 112.001 -176.999c74 -42 147.333 -63 220 -63c150 2.66699 297.333 54.667 442 156l74 57c-102.667 24.667 -227 71 -373 139c-102.667 46.667 -191.334 70 -266.001 70c-58.667 -2.66699 -108 -19.667 -148 -51
c-40.667 -32.667 -61 -76.334 -61 -131.001zM1759 1731c169.333 -46.667 273.999 -74.001 313.999 -82.001c45.333 -8 93 -15 143 -21c52 -5.33301 98.333 -8 139 -8c55.333 0 104.666 8.33301 148 25c40.667 15.333 77.334 40.333 110.001 75
c28.667 32.667 45.667 68.334 51 107.001c1.33301 8 2 15.667 2 23c0 30 -9.33301 57 -28 81c-44 49.333 -115 74 -213 74c-131.333 0 -267.333 -34 -408 -102c-80 -40.667 -166 -98 -258 -172z" />
    <glyph glyph-name="K" unicode="K" horiz-adv-x="1837" 
d="M-602 211c0 19.333 3.33203 49.3311 9.99902 89.998c2.66699 10.667 10.334 14.667 23.001 12c12 -1.33301 16.667 -8 14 -20c-6.66699 -24.667 -10 -52 -10 -82c0 -53.333 15 -97 45 -131c31.333 -34 78.333 -55.333 141 -64c6.66699 -1.33301 21 -2 43 -2
c65.333 0 129.666 18.667 192.999 56c63.333 38.667 128.666 94 195.999 166c79.333 84.667 224.666 269.667 435.999 555c9.33301 13.333 17.5 24.5 24.5 33.5l18.5 23.5l78 106l-7 4c-4.66699 2.66699 -11 7 -19 13c-12 6.66699 -22.333 14 -31 22
c-1.33301 1.33301 -4.66602 4.5 -9.99902 9.5l-15 13.5c-9.33301 9.33301 -16 20.333 -20 33c-5.33301 16.667 -8 30.334 -8 41.001c0 34.667 14.333 63.334 43 86.001c30 23.333 62.667 34.666 98 33.999c45.333 0 90.333 -10 135 -30c96.667 128.667 167 218.667 211 270
c102.667 124 199.667 227 291 309c-191.333 38 -377.666 77.667 -558.999 119c-96.667 22 -178.667 33 -246 33c-70.667 0 -126 -11.667 -166 -35c-39.333 -26 -58.333 -58 -57 -96c1.33301 -13.333 -4.33398 -20.333 -17.001 -21c-12 -2.66699 -18.667 3 -20 17
c-2.66699 26 3.33301 51 18 75c22 36.667 56.333 62 103 76c36.667 13.333 83 20.333 139 21c72.667 0 157.334 -11 254.001 -33l559 -121c6.66699 -2.66699 16.334 -4.66699 29.001 -6c36.667 30.667 81.667 63.334 135 98.001c112 66.667 223.333 102.334 334 107.001
c74 0 123 -21.333 147 -64c12 -19.333 18.167 -43.166 18.5 -71.499s-5.16699 -52.833 -16.5 -73.5c-34.667 -62 -106.667 -93.333 -216 -94c-12.667 0 -26 0.666992 -40 2c-65.333 4 -182.666 23 -351.999 57c-28.667 -23.333 -82 -74 -160 -152
c-87.333 -91.333 -205.333 -236 -354 -434c30.667 -14.667 55.334 -29 74.001 -43c68 -46.667 127.333 -101.334 178 -164.001c126.667 23.333 263.334 74 410.001 152c169.333 90 346.666 213.667 531.999 371l70 63l82 72c65.333 56 116.333 92 153 108
c37.333 16.667 72.333 25 105 25c23.333 0 45.666 -4 67 -12c28.667 -10 51.334 -28.667 68 -56c18 -28.667 26.667 -58.667 26 -90c0 -24.667 -5.33301 -51.334 -16 -80.001c-4 -8 -11.667 -11.333 -23 -10c-9.33301 1.33301 -12.666 9.66602 -10 24.999
c8 24.667 12.333 46.334 13 65.001c0 52 -24 89.667 -72 113c-16.667 5.33301 -34.334 8 -53 8c-29.333 0 -58.666 -6.66699 -88 -20c-31.333 -16.667 -63.666 -38 -97 -64c-15.333 -10.667 -52.666 -42.667 -111.999 -96l-90 -78
c-182.667 -158.667 -362.334 -284.334 -539.001 -377.001c-139.333 -75.333 -272.333 -125.666 -399 -150.999c62.667 -82 102 -169.333 118 -262c8 -45.333 12.333 -88.666 13 -129.999c0 -61.333 -7.66699 -133.666 -23 -216.999
c-13.333 -83.333 -20 -142.666 -20 -177.999c0 -62.667 17.667 -110.334 53 -143.001c28 -28 60.667 -42 98 -42c5.33301 0 11 0.333008 17 1c48 4 90.333 17 127 39c38.667 22.667 73.334 49.334 104.001 80.001c10.667 6.66699 19.667 6 27 -2c8 -8 8 -16.333 0 -25
c-34.667 -34.667 -73.667 -63.334 -117 -86.001c-48 -24.667 -96 -39 -144 -43c-5.33301 -0.666992 -10.333 -1 -15 -1c-46.667 0 -87.334 17.333 -122.001 52c-44 39.333 -65.667 96 -65 170c0 39.333 6.66699 101 20 185c15.333 83.333 23 153.333 23 210
c0 44 -3.33301 85 -10 123c-16.667 86 -58.334 172.667 -125.001 260c-46.667 -9.33301 -100 -14 -160 -14c-86 0 -167.333 13 -244 39c-2.66699 -4 -30.667 -42.333 -84 -115c-226.667 -304.667 -351 -469 -373 -493c-120 -144.667 -224.333 -242.334 -313 -293.001
c-66.667 -40.667 -137 -61.334 -211 -62.001c-24.667 0 -40.334 1 -47.001 3c-68 8 -122.667 32.333 -164 73c-36.667 41.333 -55 94 -55 158zM536.999 1090c0 -40.667 32.001 -75.667 96.001 -105l121 164c-40.667 18 -78.334 27 -113.001 27
c-24.667 0 -48.667 -7.66699 -72 -23c-21.333 -13.333 -32 -34.333 -32 -63zM668 970.998c66.667 -22 140.333 -33 221 -33c31.333 0 75.666 3.33301 132.999 10c-48 54.667 -100.667 102 -158 142c-31.333 22 -56.666 37 -75.999 45zM1362 1780
c170.667 -32.667 276.999 -49.668 318.999 -51.001l36 -2c76.667 0 133 17.667 169 53c15.333 16.667 25 37.667 29 63c0.666992 5.33301 1 10.333 1 15c0 17.333 -5 35 -15 53c-19.333 28.667 -58.333 43.667 -117 45c-104 -2.66699 -209.333 -37 -316 -103
c-21.333 -13.333 -56.666 -37.666 -105.999 -72.999z" />
    <glyph glyph-name="L" unicode="L" 
d="M37 145c13.333 38 39.3359 67.332 78.0029 87.999c36.667 20.667 77.667 31 123 31c122.667 -4 235 -47 337 -129l84 -82c40.667 30 81 62.333 121 97c146 128.667 323.667 332.667 533 612l211 295l221 305c116 152.667 223 270 321 352
c-20.667 6.66699 -60 20.334 -118 41.001c-64 19.333 -125 29 -183 29c-30 0 -51.833 -0.666992 -65.5 -2s-32.834 -4.66602 -57.501 -9.99902c-6.66699 -1.33301 -15.5 -3.83301 -26.5 -7.5l-22.5 -7.5c-22 -5.33301 -36.333 -9.33301 -43 -12
c-16.667 -5.33301 -27.334 -9.33301 -32.001 -12l-21 -11l-8 -4c-10 -6 -18.333 -4 -25 6c-8 10 -6 18.333 6 25c4 4 16.333 10.833 37 20.5s56.334 20.5 107.001 32.5c49.333 12 99.666 18.333 150.999 19c65.333 0 130.333 -10.333 195 -31
c53.333 -16.667 100.333 -33 140.999 -49c23.333 18 52 37.667 86 59c110.667 68 229 105 355 111h9c66.667 0 115.334 -22 146.001 -66c15.333 -24.667 23 -50.334 23 -77.001c0 -18.667 -3.33301 -38 -10 -58c-16.667 -38.667 -45.667 -67.334 -87 -86.001
c-36.667 -16.667 -82.667 -25 -138 -25h-19c-69.333 6.66699 -145.333 24 -228 52l-131 49c-61.333 -48 -126 -111 -194 -189c-65.333 -75.333 -124 -148.333 -176 -219l-207 -291l-189 -262c-158.667 -211.333 -294.334 -375.666 -407.001 -492.999
c-86 -88.667 -169.333 -161.667 -250 -219l18 -19c2.66699 -2.66699 5.83398 -6.33398 9.50098 -11.001s6.16699 -7.66699 7.5 -9c38 -44 73.333 -82.333 106 -115c30 -30 71 -66.333 123 -109c45.333 -36.667 104 -75.334 176 -116.001c130 -72.667 251.667 -109 365 -109
c112 1.33301 189.667 35.666 233 102.999c16.667 30.667 25.334 61.667 26.001 93c0 41.333 -14.667 82.666 -44 123.999c-20.667 26 -37.667 43 -51 51c-6.66699 8 -7.33398 16.833 -2.00098 26.5s13.333 11.167 24 4.5l4 -2c1.33301 0 2.33301 -1.16699 3 -3.5
s2.66699 -4.16602 6 -5.49902l12 -12l14 -14l17 -21c35.333 -49.333 53 -98.666 53 -147.999c0 -37.333 -10.333 -74.666 -31 -111.999c-52 -80.667 -140 -121 -264 -121c-122.667 0 -250.334 37.667 -383.001 113c-122.667 69.333 -235.334 157.333 -338.001 264l-115 127
c-12 -9.33301 -43.333 -27.666 -94 -54.999c-84 -40.667 -161.667 -61.334 -233 -62.001c-54.667 0 -106.667 8.33301 -156 25s-89 46 -119 88c-17.333 24 -25.666 51 -24.999 81c0 18.667 3.66699 39.334 11 62.001zM61.0029 79.999
c5.33301 -54.667 35.6641 -94.332 90.9971 -118.999c50.667 -23.333 108.667 -35 174 -35c66.667 0 139 19.333 217 58c28.667 14.667 57.334 31 86.001 49c-39.333 39.333 -65.333 63.666 -78 72.999c-101.333 80.667 -205.666 121 -312.999 121
c-53.333 -2.66699 -95.666 -15.667 -126.999 -39c-33.333 -24 -50 -60 -50 -108zM2142 1726c2.66699 0 7.83496 -1.66602 15.501 -4.99902c7.66699 -3.33301 20.667 -8.33301 39 -15l54.5 -20c75.333 -26 147.666 -42.667 217 -50h14c81.333 0 138 18 170 54
c22.667 24 34 48.667 34 74c0 19.333 -6.66699 39.666 -20 60.999c-26.667 32.667 -67.334 49 -122 49c-112.667 -4 -225.334 -39 -338.001 -105z" />
    <glyph glyph-name="M" unicode="M" horiz-adv-x="2437" 
d="M-1135 172c0 82 20.668 155.664 62.001 220.997c8 10.667 16.667 12 26 4c8 -5.33301 10.333 -13.333 7 -24c-38 -54.667 -57.333 -121.667 -58 -201c0 -78 21.333 -140 64 -186c46.667 -56 119 -87.667 217 -95h22c79.333 0 158.666 18.667 237.999 56
c82 39.333 162.667 93.333 242 162c143.333 121.333 322 326.666 536 615.999c174.667 236 331 438 469 606c177.333 212.667 331.666 363 462.999 451c105.333 72.667 200.333 108.667 285 108c60 -2.66699 90 -32.667 90 -90c0 -34 -12.333 -79.667 -37 -137
c-78 -181.333 -143.667 -350 -197 -506c-52 -150 -90.667 -306.333 -116 -469c136.667 188.667 285.334 366.334 446.001 533.001c158.667 164 313.667 303 465 417c132.667 96.667 248 165 346 205c62.667 23.333 116 35 160 35c45.333 -2.66699 74.666 -15 87.999 -37
c9.33301 -14.667 14 -31.334 14 -50.001c0 -35.333 -17 -78.666 -51 -129.999c-130 -190 -253 -416.667 -369 -680c-165.333 -364.667 -254 -685 -266 -961v-2v-26c0 -49.333 5.66699 -91.666 17 -126.999c15.333 -57.333 42.333 -106 80.999 -146
c66.667 -60 148 -90 244 -90c86 0 162.667 29.333 230 88c40.667 35.333 68.334 67.666 83 96.999c6.66699 10.667 15 13.334 25 8.00098c8.66699 -4 13 -8.66699 13 -14c0 -3.33301 -1.66699 -7.66602 -5 -12.999l-4 -6c-2.66699 -4 -6 -9.33301 -10 -16
c-1.33301 -2.66699 -4.33301 -6.5 -9 -11.5s-8 -8.83301 -10 -11.5l-7 -7c-2 -2 -4 -4.66699 -6 -8s-5 -7 -9 -11c-12 -12 -22.333 -21.667 -31 -29c-76.667 -68 -163.334 -102.333 -260 -103c-108 0 -197.333 33.667 -268 101c-31.333 28.667 -56 64 -74 106
c-24.667 62.667 -37 137.334 -37 224.001c12 278.667 101.667 603.334 269 974.001c121.333 272 245.333 500 372 684l25 50c9.33301 18 14.666 35 16 51c2.66699 19.333 -0.666016 33.666 -9.99902 42.999c-10.667 10.667 -27.667 16 -51 16c-45.333 0 -94 -11 -146 -33
c-49.333 -19.333 -110 -50 -182 -92c-134 -82 -278 -195.333 -432 -340c-247.333 -226.667 -470 -482.667 -668 -768c-12.667 -104.667 -18.667 -207 -18 -307c0 -35.333 0.666992 -70.666 2 -105.999c0 -54.667 -4.66699 -100.667 -14 -138
c-12 -58.667 -35.333 -102.334 -70 -131.001c-27.333 -23.333 -60 -35 -98 -35c-31.333 0 -58.666 10.333 -81.999 31c-32 32 -48.333 73 -49 123c0 16.667 2 34.334 6 53.001c8 60 47 144.667 117 254c26 48 82.333 138.333 169 271c22 176 60.333 346.667 115 512
c52 158.667 123 340 213 544c22 49.333 33 89.666 33 120.999c-2.66699 35.333 -20.334 53 -53.001 53c-76.667 0 -164.667 -34 -264 -102c-88.667 -58.667 -188.667 -147.334 -300 -266.001c-140.667 -151.333 -348 -412.333 -622 -783c-160 -216 -298 -382.333 -414 -499
c-137.333 -137.333 -264.333 -233.666 -381 -288.999c-86 -39.333 -170 -59 -252 -59h-24c-109.333 6.66699 -190.666 42 -243.999 106c-48 56 -72 126.333 -72 211zM879.001 93.9971c-2 -15.333 -3 -29.335 -3 -42.002c0 -45.333 11 -79 33 -101c18 -15.333 38 -23 60 -23
c31.333 0 56.333 9 75 27c18.667 16.667 33 39.334 43 68.001c18 40.667 27 98 27 172c-0.666992 24.667 -1 49.334 -1 74.001c0 88.667 3 180 9 274c-50.667 -75.333 -94.334 -145 -131.001 -209c-65.333 -104 -102.666 -184 -111.999 -240z" />
    <glyph glyph-name="N" unicode="N" horiz-adv-x="1884" 
d="M-733 182c0 86 20.335 161.334 61.002 226.001c5.33301 9.33301 13.666 10.666 24.999 3.99902c9.33301 -5.33301 11.333 -13.666 6 -24.999c-36.667 -54.667 -55 -119 -55 -193v-12c0 -53.333 10.667 -103 32 -149c52 -84.667 134 -127 246 -127
c151.333 0 314 71 488 213c157.333 130 341 336 551 618c196.667 264.667 353.667 467.667 471 609c174.667 207.333 321.334 354 440.001 440c94 69.333 176 104 246 104c57.333 0 86 -23 86 -69c0 -20.667 -8.33301 -47.334 -25 -80.001
c-2.66699 -8 -30.667 -61.333 -84 -160l-143 -272l-129 -271c-166.667 -368.667 -255.334 -670.334 -266.001 -905.001c0 -6 -0.333008 -11.667 -1 -17c0 -60.667 10.333 -101.334 31 -122.001c8.66699 -7.33301 19 -11 31 -11c18 0 37.667 9 59 27c18 18 36 40 54 66
c31.333 42 75.666 117.667 132.999 227c161.333 297.333 301.333 530 420 698c68 98 147 197.667 237 299c84.667 95.333 153 167.333 205 216c58.667 53.333 114.667 100.333 168 141c58.667 45.333 96 72 112 80l52 30l80 48c-1.33301 1.33301 -2.83301 3 -4.5 5
s-3.83398 4.33301 -6.5 7c-1.33301 1.33301 -3 3.33301 -5 6l-3 4c-36.667 52 -62.667 102 -78 150c-1.33301 9.33301 3 16 13 20c3.33301 1.33301 6 2 8 2c7.33301 0 12.666 -4 16 -12c20.667 -50.667 44.667 -97 72 -139l20 -25c1.33301 1.33301 7.83301 4.33301 19.5 9
s20.834 9 27.5 13c126.667 60 238 91.667 334 95c48 0 90.333 -7.66699 127 -23c40.667 -19.333 68 -48 82 -86c6.66699 -18.667 10 -36.667 10 -54c0 -20.667 -4.66699 -41 -14 -61c-35.333 -68 -103 -102 -203 -102c-165.333 4 -295.666 58 -391 162l-145 -86
c-46.667 -28.667 -101.334 -69.667 -164.001 -123c-181.333 -150 -361 -349.333 -539 -598c-70.667 -100 -139.667 -205 -207 -315c-56 -92.667 -116.667 -200 -182 -322c-69.333 -130 -108.333 -201 -117 -213c-39.333 -64 -74.666 -112.333 -105.999 -145
c-23.333 -20.667 -46.666 -33 -69.999 -37c-4 -0.666992 -8 -1 -12 -1c-20 0 -39.667 7.66699 -59 23c-27.333 31.333 -41 86 -41 164c8 232 98 538.667 270 920c40.667 94 83.667 185.333 129 274l141 268l86 162c13.333 24.667 20.333 44.667 21 60
c0 24 -16.333 36 -49 36c-58.667 0 -134 -32 -226 -96c-86 -64 -179.333 -151.333 -280 -262c-136.667 -147.333 -343.667 -406.666 -621 -777.999c-212.667 -288 -398.334 -497 -557.001 -627c-177.333 -147.333 -348 -221 -512 -221c-108.667 2 -190.667 34.667 -246 98
c-46 54.667 -69 126.334 -69 215.001zM2855 1804c100 -95.333 219.333 -143 358 -143c79.333 0 132 21 158 63c13.333 19.333 20 40.333 20 63c0 9.33301 -1.33301 19.333 -4 30c-8 34 -29.667 59 -65 75c-32.667 13.333 -69.667 20.333 -111 21
c-86 -2.66699 -186.333 -30 -301 -82z" />
    <glyph glyph-name="O" unicode="O" horiz-adv-x="1945" 
d="M41 623c70.667 263.333 215.336 506.333 434.003 729c182.667 182.667 383.334 322.667 602.001 420c131.333 56 257.666 83.667 378.999 83c34 0 60 -2 78 -6c2.66699 0 6.66699 -2.66699 12 -8c57.333 23.333 112.666 35 165.999 35c78 -2.66699 145.667 -19 203 -49
c60 -31.333 106.333 -76.333 139 -135c24.667 -38 43.667 -82.333 57 -133c2.66699 -13.333 4.33398 -21 5 -23c114.667 -15.333 193.667 -49.333 237 -102c38 -46.667 57 -100.667 57 -162c0 -69.333 -19.667 -130 -59 -182
c-58.667 -79.333 -162.334 -126.666 -311.001 -141.999c-92.667 -202 -230.667 -388.333 -414 -559c-158.667 -144.667 -333.334 -260 -524.001 -346c-171.333 -77.333 -342.333 -116 -513 -116c-16 0 -32 0.333008 -48 1c-206 15.333 -351 87 -435 215
c-56.667 87.333 -85 188.666 -85 303.999c0 56 6.66699 114.667 20 176zM78.002 614c-12.667 -60.667 -19.002 -117.665 -19.002 -170.998c0 -111.333 27.333 -207 82 -287c80.667 -116 214.667 -179.667 402 -191h35c356.667 0 697 150.333 1021 451
c174.667 161.333 308 338 400 530h-19c-94 0 -191.333 17 -292 51c-98 35.333 -176 79.666 -234 132.999c-30 30 -54.667 58 -74 84c-62.667 -64 -114.334 -136.333 -155.001 -217c-5.33301 -9.33301 -13.666 -11.333 -24.999 -6c-9.33301 5.33301 -12 13.666 -8 24.999
c44 80.667 99.333 157.667 166 231c-45.333 76 -68 156 -68 240c6.66699 150 75 260.667 205 332h-39h-24l-338 -80c-221.333 -102.667 -418.666 -240.667 -591.999 -414c-213.333 -214.667 -354.666 -451.667 -423.999 -711zM1327 1487
c0 -75.333 19.668 -146.333 59.001 -213c74 69.333 158 126.666 252 171.999c142 61.333 289 92 441 92c-16.667 56 -35.334 101 -56.001 135c-30 52 -73.667 93 -131 123c-54.667 28.667 -114.667 43 -180 43c-104 -1.33301 -194 -35.333 -270 -102
c-76.667 -65.333 -115 -148.666 -115 -249.999zM1405 1241c19.333 -26 44 -54 74 -84c52 -48 125.667 -89.667 221 -125c94 -32.667 187.333 -49 280 -49c18 0 29.667 0.666992 35 2c57.333 133.333 86 254.333 86 363c0 56 -4.66699 107 -14 153
c-9.33301 0 -18.333 0.333008 -27 1c-143.333 0 -278.333 -30.333 -405 -91c-94 -45.333 -177.333 -102 -250 -170zM2056 987.002c48 1.33301 98.001 13.668 150.001 37.001c48 20.667 86 50 114 88c35.333 46.667 53.333 100 54 160
c-1.33301 57.333 -17 103.666 -47 138.999c-46.667 46.667 -114.334 76 -203.001 88c9.33301 -46.667 14 -97 14 -151v-2c-6.66699 -114 -34 -233.667 -82 -359z" />
    <glyph glyph-name="P" unicode="P" horiz-adv-x="2461" 
d="M-54 -55c0 8.66699 5.00098 13.998 15.001 15.998c10.667 5.33301 18.334 1.33301 23.001 -12c12 -54.667 41.333 -95 88 -121c38 -21.333 80.333 -32 127 -32c10.667 0 21.334 0.333008 32.001 1c78 10.667 150.667 45.667 218 105
c62.667 57.333 125.334 135.666 188.001 234.999c23.333 35.333 86 146 188 332c86 155.333 160 281 222 377c153.333 244 280 428.333 380 553c148.667 180 299 307.667 451 383c13.333 8 41.333 19.667 84 35c-56 20.667 -123 35.667 -201 45
c-58.667 7.33301 -112.667 11 -162 11c-12.667 0 -24.667 -0.333008 -36 -1c-174.667 0 -334.667 -45.667 -480 -137c27.333 -40.667 45.333 -85 54 -133c8 -49.333 12 -93.333 12 -132c0 -74 -13.667 -132 -41 -174c-30 -46.667 -71.333 -70 -124 -70
c-4.66699 0 -9 0.333008 -13 1c-46.667 2.66699 -81 19 -103 49c-23.333 31.333 -34.666 70.333 -33.999 117c0 56 19 117.333 57 184c34 61.333 81 116 141 164c-26 31.333 -53.333 55 -82 71c-42 26 -88.333 47.333 -139 64c-15.333 2.66699 -19.333 10 -12 22
c1.33301 10 7 15 17 15h5c23.333 -5.33301 52.666 -17 87.999 -35c64 -32.667 114.667 -71 152 -115h2c146 96.667 312.667 145.334 500 146.001c148.667 0 302 -24 460 -72c74 22 151.333 33 232 33c198 0 327 -65 387 -195c2 -4 3 -7.33301 3 -10
c0 -6 -3.66699 -10.667 -11 -14c-12 -4 -20.333 -0.666992 -25 10c-26 58.667 -72.333 103 -139 133c-59.333 26 -125.666 39 -199 39h-16c-68 -2.66699 -124.667 -8.66699 -170 -18c1.33301 0 4 -0.833008 8 -2.5s7.33301 -3.16699 10 -4.5l10.5 -5
c4.33301 -2 7.16602 -3 8.49902 -3c132.667 -58.667 231.667 -133 297 -223c94 -116.667 141 -245.667 141 -387c0 -129.333 -37 -248 -111 -356c-74 -109.333 -171.333 -197 -292 -263c-102.667 -56 -207.667 -84 -315 -84c-16.667 0 -33.334 0.666992 -50.001 2
c-126.667 10 -247.334 57.333 -362.001 142c-31.333 24.667 -58 47.667 -80 69c-27.333 27.333 -45.333 46 -54 56l-16 20c-8 9.33301 -6.66699 18.333 4 27c8 8 16.333 6.66699 25 -4c12 -16.667 24.333 -31 37 -43c35.333 -35.333 70.666 -66.666 105.999 -93.999
c100 -75.333 209.333 -119.333 328 -132c19.333 -2 38.666 -3 57.999 -3c99.333 0 199.333 25.667 300 77c112.667 59.333 205 141.333 277 246c72.667 105.333 108.667 218.666 108 339.999c0 80.667 -19.667 164 -59 250c-72.667 146 -191.667 254.333 -357 325l-86 33
c-46.667 -12 -89 -28.333 -127 -49c-105.333 -52 -206.333 -126.333 -303 -223c-134 -134 -305.333 -367 -514 -699l-110 -184l-115 -205l-90 -164c-114.667 -198.667 -211 -331.667 -289 -399c-72.667 -64 -151.667 -102.333 -237 -115
c-13.333 -1.33301 -26.666 -2 -39.999 -2c-49.333 0 -96.333 13 -141 39c-28 16.667 -53.167 38.334 -75.5 65.001s-33.5 54.334 -33.5 83.001zM870.001 1393c0 -80.667 33.666 -123.667 100.999 -129c4 0 7.66699 -0.333008 11 -1c54 0 91.333 29.667 112 89
c12 30 18 69.333 18 118c0 35.333 -4 77 -12 125c-5.33301 42 -20.333 81 -45 117c-57.333 -45.333 -101.666 -96.333 -132.999 -153c-34.667 -62.667 -52 -118 -52 -166z" />
    <glyph glyph-name="Q" unicode="Q" horiz-adv-x="2054" 
d="M68 78c36.667 90 120.335 134.999 251.002 134.999c124 -2.66699 244.333 -28.667 361 -78l10 -4c4 -1.33301 11.667 -4.66602 23 -9.99902l35 -17c12 -5.33301 27 -13.333 45 -24c4 -2.66699 11.833 -7.5 23.5 -14.5l27.5 -16.5l59 -41c18 -12 40 -29 66 -51
c174.667 75.333 342.667 187.333 504 336c151.333 143.333 270 292 356 446c91.333 162.667 139.666 318.334 144.999 467.001c0 78 -8.66699 150.333 -26 217c-26 98 -74.667 174 -146 228c-101.333 78 -222.666 116.667 -363.999 116
c-157.333 -4 -313.833 -46.833 -469.5 -128.5s-283.167 -184.834 -382.5 -309.501c-109.333 -134 -173 -286.333 -191 -457c-0.666992 -13.333 -1 -26.333 -1 -39c0 -141.333 50.333 -259.333 151 -354c109.333 -105.333 243.666 -157.666 402.999 -156.999
c42 0 85.667 4 131 12c164 30 292.333 97 385 201c83.333 91.333 125 196.333 125 315c0 50.667 -9.33301 102.667 -28 156c-27.333 70.667 -69 125 -125 163c-52 31.333 -110 47.333 -174 48h-10c-76 0 -150.667 -24 -224 -72c-9.33301 -8 -17.333 -6.66699 -24 4
c-8 9.33301 -6.66699 18.333 4 27c79.333 52 164 77.667 254 77c70.667 0 135.334 -17.667 194.001 -53c62.667 -44 109 -104 139 -180c20.667 -54.667 31 -111.334 31 -170.001c0 -126.667 -45 -240 -135 -340c-96.667 -109.333 -232 -180.333 -406 -213
c-46.667 -8 -92.334 -12 -137.001 -12c-170.667 0 -314 56 -430 168c-107.333 109.333 -161 235.666 -161 378.999c0 14.667 0.333008 29.667 1 45c18 178.667 84.333 337.667 199 477c109.333 130 244.666 237 405.999 321c164 86 322.333 129 475 129
c143.333 0 272.333 -41 387 -123c74 -57.333 126.333 -139.666 157 -246.999c19.333 -69.333 29 -146 29 -230c-8 -152.667 -58.333 -313 -151 -481c-92.667 -166.667 -213 -319 -361 -457c-157.333 -146 -323.333 -258 -498 -336c90 -76 174 -164 252 -264
c87.333 -112 187 -192.333 299 -241c78 -34 157.333 -51.333 238 -52c120 2.66699 205.333 37.667 256 105c18.667 28.667 29 61.334 31 98.001v11c0 32.667 -7.66699 62.334 -23 89.001c-31.333 49.333 -86 74 -164 74c-36.667 -1.33301 -74.667 -6 -114 -14
c-9.33301 -5.33301 -17 -1.33301 -23 12c-1.33301 10.667 2.66699 18.334 12 23.001l9 2c1.33301 0 3 0.333008 5 1l6 2c2 0.666992 4.33301 1 7 1c2.66699 1.33301 6.66699 2.33301 12 3s9.66602 1 12.999 1c4 1.33301 10 2.33301 18 3s14 1 18 1c8 1.33301 20.333 2 37 2
c96.667 -2.66699 161.667 -33.334 195.001 -92.001c18 -30 26.667 -69.667 26 -119c0 -48 -12 -88.333 -36 -121c-58.667 -79.333 -153.667 -119 -285 -119c-82 0 -166 18 -252 54h2c-122.667 56 -228.334 140.667 -317.001 254c-76 98 -162 188 -258 270
c-105.333 -44 -199.666 -74 -282.999 -90c-63.333 -12.667 -138 -19 -224 -19h-44c-181.333 9.33301 -295.333 56.666 -342 141.999c-11.333 23.333 -17 46.666 -17 69.999c0 20 4.33301 40.333 13 61zM104.001 -35.001c18.667 -30.667 47.335 -55.332 86.002 -73.999
c45.333 -22 80.333 -34 105 -36c30.667 -4 69.667 -8.33301 117 -13c19.333 -1.33301 38.666 -2 57.999 -2c145.333 0 299.333 33.667 462 101c-92 74 -180 127 -264 159c-110.667 50.667 -227 76 -349 76c-108.667 -2 -180.334 -38.667 -215.001 -110
c-7.33301 -17.333 -11 -34.333 -11 -51s3.66699 -33.334 11 -50.001z" />
    <glyph glyph-name="R" unicode="R" horiz-adv-x="2361" 
d="M-197 -127c0 9.33301 5.00488 14.6709 15.0049 16.0039c13.333 2.66699 20.666 -2 21.999 -14c10.667 -48 34.5 -85.667 71.5 -113s81.5 -41 133.5 -41c91.333 0 177.333 36.333 258 109c61.333 53.333 124.333 132 189 236c38 60 98.667 165 182 315l192 334
c-52 39.333 -78 88.333 -78 147c2.66699 64 28.667 106.333 78 127c26 10.667 54.333 16 85 16c28.667 0 59 -4.66699 91 -14c83.333 126.667 164 238 242 334c146 180 296.333 308.333 451 385l84 35c-134 35.333 -267.333 53 -400 53c-60 0 -122 -6.66699 -186 -20
c-113.333 -20.667 -211 -59.667 -293 -117c44 -68 66 -156 66 -264c0 -60 -13.667 -116 -41 -168c-26 -50.667 -69 -76 -129 -76c-45.333 0 -81.666 15.667 -108.999 47c-27.333 32.667 -40.333 73 -39 121c0 53.333 19 114 57 182c36.667 63.333 84 118.666 142 165.999
c-22 24.667 -49.333 48 -82 70c-39.333 27.333 -85 49 -137 65c-12 1.33301 -17 9 -15 23c2 8.66699 7.66699 13 17 13c2 0 4 -0.333008 6 -1c10.667 0 40.667 -11.667 90 -35c60 -28.667 110.667 -66.667 152 -114v2c61.333 42 130.666 74.667 207.999 98
c94 30 191.667 45 293 45c152.667 0 307 -23.333 463 -70c71.333 20.667 141.666 31 210.999 31h18c202 -1.33301 331.333 -65.333 388 -192c1.33301 -3.33301 2 -6.66602 2 -9.99902c0 -6 -3.66699 -11 -11 -15c-10.667 -4 -18.667 -1.33301 -24 8
c-52 114.667 -170.333 172 -355 172c-50.667 0 -106.334 -5.33301 -167.001 -16l6 -2c117.333 -48 212.666 -113.667 286 -197c98 -112 147.333 -238.333 148 -379c0 -120 -20.667 -210.667 -62 -272c-65.333 -125.333 -172.333 -227.666 -321 -306.999
c-125.333 -66.667 -265.333 -100.334 -420 -101.001c-6.66699 0 -36 1.33301 -88 4c9.33301 -42.667 14 -91.334 14 -146.001c0 -65.333 -6.66699 -139.333 -20 -222l-6 -37c-1.33301 -5.33301 -2.33301 -10.833 -3 -16.5s-1.33398 -10.5 -2.00098 -14.5
s-1.33398 -7.33301 -2.00098 -10s-1 -4.66699 -1 -6s-0.833008 -6.83301 -2.5 -16.5s-3.16699 -17.834 -4.5 -24.501c-2.66699 -27.333 -4 -43 -4 -47c0 -5.33301 1.33301 -19 4 -41c1.33301 -10.667 5 -25.667 11 -45c9.33301 -30 27.666 -55.333 54.999 -76
c24.667 -19.333 54.667 -29 90 -29c75.333 0 156.666 40.333 243.999 121c6.66699 6.66699 14.834 6 24.501 -2s9.5 -17 -0.5 -27c-86 -86 -175.333 -129 -268 -129c-36.667 0 -73 11.667 -109 35c-32.667 20.667 -56.334 52 -71.001 94c-9.33301 24.667 -14 56.667 -14 96
c0 49.333 7.33301 109.666 22 180.999c11.333 75.333 17 145.333 17 210c0 56.667 -4.33301 109 -13 157c-92 10 -178 28.333 -258 55c-78 26 -136 48.333 -174 67c-31.333 15.333 -73.666 40.666 -126.999 75.999c-19.333 -31.333 -112.333 -195 -279 -491
c-106.667 -188.667 -202.667 -322 -288 -400c-88 -78 -182.333 -116.667 -283 -116c-57.333 0 -108.666 16.333 -153.999 49c-23.333 17.333 -43.833 38.5 -61.5 63.5s-26.5 50.167 -26.5 75.5zM725.005 1321c0 -42 9.66699 -73.333 29 -94
c20.667 -23.333 48 -35.666 82 -36.999h6c41.333 0 72 19 92 57c19.333 35.333 31 85.333 35 150c0 101.333 -20 181.666 -60 240.999c-52 -39.333 -95.667 -90.333 -131 -153c-35.333 -64 -53 -118.667 -53 -164zM823.005 864.505c0 -49 20.667 -88.833 62 -119.5
c38 65.333 83.667 136.333 137 213c-20 8.66699 -41 13 -63 13c-20 0 -41.333 -3.33301 -64 -10c-48 -15.333 -72 -47.5 -72 -96.5zM915.005 723.005c155.333 -104 330.999 -168.333 526.999 -193c-26 75.333 -67.667 146.333 -125 213
c-57.333 65.333 -112.666 116 -165.999 152c-26 19.333 -57.333 36.333 -94 51zM1077 979.005c39.333 -18 71.667 -35.668 97 -53.001c58.667 -38 116 -90.667 172 -158c66.667 -79.333 112.334 -160 137.001 -242c57.333 -2.66699 90 -4 98 -4c143.333 0 277 32 401 96
c146 80.667 248.667 177.667 308 291c38 74.667 57 154 57 238v12c-2.66699 94 -24.667 180 -66 258c-66.667 125.333 -182 221.666 -346 288.999c-8 4 -26.333 10.667 -55 20c-34.667 -10 -77.667 -26.333 -129 -49c-105.333 -53.333 -206.333 -127.666 -303 -222.999
c-110.667 -109.333 -234.334 -267.666 -371.001 -474.999z" />
    <glyph glyph-name="S" unicode="S" horiz-adv-x="1927" 
d="M-449 -31c39.333 -9.33301 83.3398 -13.9951 132.007 -13.9951c86 0 170.667 19.667 254 59c-80.667 86 -127.334 187.667 -140.001 305c-2 21.333 -3 42.666 -3 63.999c0 91.333 22.333 176.666 67 255.999c62.667 114.667 148 172 256 172
c72 -4 127.333 -28.667 166 -74c39.333 -46.667 59 -103.334 59 -170.001c-4 -133.333 -49 -256 -135 -368c-61.333 -80 -131 -143.667 -209 -191l10 -10c1.33301 -1.33301 3.66602 -3 6.99902 -5l5 -3c124 -95.333 271.667 -143.333 443 -144c109.333 0 212.333 16 309 48
c91.333 30 167.666 68 228.999 114c128.667 94 221.667 213.667 279 359c42 110.667 69.333 254.667 82 432c4 74 7.33301 158 10 252c4 113.333 11 214.333 21 303c-128.667 0 -235.334 32 -320.001 96c-10.667 8 -12 17 -4 27c9.33301 9.33301 18.333 10 27 2
c75.333 -58.667 175.666 -88 300.999 -88c16.667 131.333 44 243 82 335c108 255.333 254.667 383 440 383c101.333 -2.66699 167.666 -38.667 198.999 -108c15.333 -36 23 -73 23 -111c0 -68.667 -25.667 -140.334 -77 -215.001
c-72.667 -106.667 -171.667 -187.667 -297 -243c-106.667 -48 -219 -74 -337 -78c-6.66699 -62.667 -13.667 -171.334 -21 -326.001c-8 -233.333 -21 -394.333 -39 -483c-14.667 -69.333 -33 -133 -55 -191c-57.333 -152.667 -154.333 -279 -291 -379
c-68 -50.667 -148 -90 -240 -118c-101.333 -31.333 -208.333 -47 -321 -47c-178.667 0 -334.334 50.333 -467.001 151l-31 27c-80.667 -46.667 -174.667 -70 -282 -70c-52 0 -98 4.66699 -138 14c-10 1.33301 -14.667 7 -14 17c-0.666992 16 6 22.667 20 20z
M-163.993 311.005c12 -109.333 56.333 -201.999 133 -277.999c54.667 32.667 100.334 68 137.001 106c131.333 135.333 197 278.666 197 429.999c-1.33301 58.667 -18.333 107.334 -51 146.001c-32.667 39.333 -77.667 59 -135 59
c-98 -10.667 -172.333 -60.334 -223 -149.001c-40.667 -80 -61.334 -163 -62.001 -249c0 -22 1.33301 -43.667 4 -65zM1434.01 1391.01c108 4 213.668 28.999 317.001 74.999c121.333 61.333 214.333 137.333 279 228c31.333 45.333 51.666 93 61 143
c4 20.667 6 40.334 6 59.001c0 28 -4.66699 54.667 -14 80c-23.333 64 -78 96.333 -164 97c-178.667 -8 -314.667 -128.333 -408 -361c-34.667 -90 -60.334 -197 -77.001 -321z" />
    <glyph glyph-name="T" unicode="T" horiz-adv-x="1646" 
d="M-213 31c0 20.667 3.33203 50.001 9.99902 88.001c1.33301 12 9 16.667 23 14c12 -1.33301 16.667 -8 14 -20c-6.66699 -38 -10 -65.333 -10 -82c0 -54.667 15 -99 45 -133c46.667 -42 108 -63.333 184 -64c124 4 253.667 77.667 389 221
c86 92.667 231.667 277.667 437 555l24 33.5c6.66699 9 13 17.167 19 24.5c191.333 260.667 349 460 473 598c68 76.667 142.333 150.334 223 221.001c-147.333 38 -301.666 87 -462.999 147c-98 35.333 -195 53.333 -291 54c-128.667 0 -249.334 -31.667 -362.001 -95
c-22 -13.333 -37.667 -23.333 -47 -30l-19.5 -13.5l-19.5 -13.5c-2.66699 -2.66699 -7.16699 -6.33398 -13.5 -11.001s-10.833 -8.66699 -13.5 -12c-4 -4 -7.66699 -7.33301 -11 -10s-6.33301 -5.33398 -9 -8.00098c-4 -4 -7 -6 -9 -6
c-8 -6.66699 -16.667 -7.33398 -26 -2.00098c-8 8 -8 16.667 0 26c31.333 32.667 78.333 68.334 141 107.001c117.333 69.333 247 104 389 104c101.333 0 202.333 -18.333 303 -55c166.667 -60 328.667 -110.333 486 -151c243.333 202 478 303 704 303l103 -6
c27.333 -2.66699 55.333 -9.66699 84 -21c34 -13.333 59 -30.333 75 -51c23.333 -30.667 35 -62.667 35 -96c0 -11.333 -1.33301 -22.333 -4 -33c-10.667 -46.667 -34 -85 -70 -115c-79.333 -66.667 -203.333 -100 -372 -100c-152.667 0 -335 26 -547 78l-68 -62
c-83.333 -79.333 -161.666 -162.666 -234.999 -249.999c-102.667 -122.667 -167.667 -201.667 -195 -237l-213 -283c-226.667 -304.667 -350.667 -469 -372 -493c-46.667 -56 -97.334 -112.667 -152.001 -170c-39.333 -40.667 -94.666 -82.334 -165.999 -125.001
c-66.667 -39.333 -135.667 -59.333 -207 -60c-98 0 -168.333 25.333 -211 76c-36.667 41.333 -55 94 -55 158zM1696 1505c198 -46.667 368.667 -69.667 512 -69h14c146.667 0 256.667 29.333 330 88c34 27.333 55 59.333 63 96c2 8 3 16 3 24c0 24.667 -9 50 -27 76
c-36.667 38 -114.667 59.333 -234 64c-216.667 -3.33301 -437 -96.333 -661 -279z" />
    <glyph glyph-name="U" unicode="U" horiz-adv-x="1845" 
d="M-297 1792c55.333 69.333 157.664 103.997 306.997 103.997c90 0 180.333 -12 271 -36c70.667 -20.667 141.667 -46 213 -76c76.667 -32.667 133.334 -56 170.001 -70c114.667 -46.667 234 -76 358 -88c2.66699 2.66699 5.33398 5 8.00098 7s5.66699 4.83301 9 8.5
s9.5 9.5 18.5 17.5s20.5 17.667 34.5 29c27.333 24.667 56 48.334 86 71.001c19.333 15.333 46.666 31 81.999 47c36.667 18 68.667 27.667 96 29h15c36 0 65 -7.66699 87 -23c27.333 -19.333 41 -48 41 -86c0 -39.333 -17 -70 -51 -92
c-31.333 -20.667 -71.666 -35 -120.999 -43c-52.667 -6 -107.334 -9 -164.001 -9c-42 0 -85 1.66699 -129 5c-117.333 -95.333 -219 -186 -305 -272c-217.333 -212.667 -386 -438.667 -506 -678c-74 -146 -110.667 -277.667 -110 -395c0 -128.667 43.667 -229.667 131 -303
c76.667 -62.667 167.334 -94.334 272.001 -95.001h10c156.667 0 294.667 46.667 414 140c121.333 94 218.333 220 291 378c61.333 144.667 139.666 295.667 234.999 453c53.333 86 94.333 147.333 123 184c83.333 109.333 168 205 254 287
c88.667 84.667 169.167 151.667 241.5 201s139.5 89.666 201.5 120.999c60 31.333 107 52.333 141 63c32.667 10.667 49.667 16.334 51 17.001c13.333 4 21 -0.333008 23 -13c0.666992 -2.66699 0.666992 -5 0 -7c0 -8.66699 -4.33301 -13.667 -13 -15
c-20.667 -5.33301 -34.334 -9.66602 -41 -12.999c-5.33301 -2.66699 -10.666 -5 -16 -7c-5.33301 -2 -9.33301 -3.66699 -12 -5s-4.66699 -2 -6 -2c-57.333 -23.333 -124.333 -57.333 -201 -102c-224 -135.333 -422 -317 -594 -545c-58.667 -79.333 -125 -185 -199 -317
c-96.667 -176 -169 -334.667 -217 -476c-40.667 -121.333 -61 -220.666 -61 -297.999c0 -98.667 32.667 -161.667 98 -189c28 -12 56 -18 84 -18c37.333 0 74.333 10.667 111 32c62.667 38 110.334 93.333 143.001 166c32.667 74 49 147.667 49 221
c0 9.33301 5.33301 16.333 16 21c9.33301 0 16.333 -5.66699 21 -17c0 -57.333 -10.333 -116.666 -31 -177.999c-19.333 -58.667 -48 -113.334 -86 -164.001c-36.667 -49.333 -83 -84 -139 -104c-23.333 -8.66699 -48.333 -13 -75 -13c-34 0 -70.333 7 -109 21
c-79.333 31.333 -119.333 104.333 -120 219c0 74 16.667 165.667 50 275c-86 -116 -177.333 -203.333 -274 -262c-98 -60 -219 -90.333 -363 -91c-114.667 0 -213 34.333 -295 103c-96.667 78 -145 188.667 -145 332c0 121.333 38 258.333 114 411
c116 233.333 286.667 462.666 512 687.999c94 90 187.667 174 281 252c-110.667 15.333 -222 44 -334 86l-162 66c-95.333 39.333 -167.666 66 -216.999 80c-90 23.333 -176.667 35 -260 35c-136.667 0 -229.334 -31 -278.001 -93c-26 -31.333 -39.667 -66.666 -41 -105.999
c0 -3.33301 -0.333008 -6.66602 -1 -9.99902c0 -37.333 11.333 -71.666 34 -102.999c44 -52 108.667 -80.667 194 -86c12 -2.66699 18.333 -9.33398 19 -20.001c0 -12 -7 -17.667 -21 -17c-27.333 2.66699 -54.666 7.66699 -81.999 15c-61.333 20.667 -107 48.667 -137 84
c-30 36 -45 77.333 -45 124c0 55.333 17 103.333 51 144zM1075 1622c32 -3.33301 64.333 -5 97 -5c48.667 0 98.334 3.66699 149.001 11c94 12 141 44.667 141 98c0 48 -29.333 72.333 -88 73c-4.66699 0 -9.33398 -0.333008 -14.001 -1c-27.333 -2.66699 -54 -10 -80 -22
c-31.333 -15.333 -54 -28.333 -68 -39c-26 -19.333 -51 -40 -75 -62z" />
    <glyph glyph-name="V" unicode="V" horiz-adv-x="2351" 
d="M-342 -178c0 38 17.6631 72.667 52.9961 104c58.667 46.667 137.334 70 236.001 70c46.667 0 106.667 -5.33301 180 -16c0 1.33301 0.666992 2.66602 2 3.99902c38 106.667 105.667 252 203 436c88.667 168 182 321.667 280 461
c182.667 248.667 336.334 431.667 461.001 549c35.333 34 78.333 71.333 129 112c-105.333 15.333 -215.333 44 -330 86c-48 19.333 -88.667 36.333 -122 51l-138 56c-36.667 15.333 -76 28.333 -118 39c-90 23.333 -177 34.666 -261 33.999
c-66.667 0 -121 -6.66699 -163 -20c-88.667 -34 -139.334 -84.667 -152.001 -152c-1.33301 -11.333 -2 -22.333 -2 -33c0 -42.667 10.333 -77.334 31 -104.001c15.333 -22 39.666 -41 72.999 -57c46.667 -20.667 87 -31 121 -31c12 -1.33301 18.333 -8 19 -20
c0 -10.667 -7 -16.334 -21 -17.001c-27.333 2.66699 -54.666 7.66699 -81.999 15c-61.333 20.667 -107 48.667 -137 84c-28 38 -42 80.667 -42 128c0 13.333 1 27 3 41c19.333 76.667 61.666 130 126.999 160c61.333 28.667 136.333 43 225 43c90 0 180.333 -12.333 271 -37
c46.667 -12 87 -25 121 -39l139 -57l123 -49c130 -49.333 248.667 -78.666 356 -87.999l152 121c66.667 54.667 128 84 184 88h15c35.333 0 64.333 -7 87 -21c26 -16.667 39 -41 39 -73c0 -4 0.333008 -8 1 -12c0 -46 -22 -81.667 -66 -107
c-53.333 -26 -145.666 -39 -276.999 -39c-42 0 -83.667 2 -125 6c-68 -57.333 -119.667 -102.333 -155 -135c-134 -130 -285.667 -311.667 -455 -545c-98 -136.667 -191.667 -288.334 -281 -455.001c-87.333 -165.333 -153.333 -308.666 -198 -429.999
c243.333 -48 456.333 -71.667 639 -71c294.667 0 563.667 100.333 807 301c400 332 651 895.667 753 1691c0 10.667 7 16.334 21 17.001c10.667 -2.66699 16 -9.66699 16 -21c-104 -804 -360 -1376 -768 -1716c-247.333 -206 -523.666 -309 -828.999 -309
c-216 6.66699 -434.667 31.334 -656 74.001c-31.333 -65.333 -68.666 -118 -111.999 -158c-53.333 -49.333 -124.333 -74.666 -213 -75.999c-48 0 -86.333 9.66699 -115 29c-31.333 20.667 -47.666 50 -48.999 88zM-305.004 -178c2.66699 -27.333 16.333 -48.001 41 -62.001
c26 -13.333 54.667 -20 86 -20c79.333 4 142 26.333 188 67c30 28.667 63.667 74.667 101 138c-65.333 9.33301 -120 14 -164 14c-90 0 -160.333 -20.333 -211 -61c-27.333 -23.333 -41 -48.666 -41 -75.999zM1296 1571c12 -1.33301 39.332 -2 81.999 -2
c132.667 0 218.667 11.667 258 35c32 16.667 48 41.334 48 74.001c0 4 -0.333008 8 -1 12c-5.33301 38.667 -33.333 58 -84 58c-5.33301 0 -10.666 -0.333008 -15.999 -1c-52 -6.66699 -106.667 -33.334 -164 -80.001z" />
    <glyph glyph-name="W" unicode="W" horiz-adv-x="3192" 
d="M-174 -172c4 35.333 21.0078 65.9922 51.0078 91.9922c34.667 28.667 77.667 49.334 129 62.001c52 12.667 96.333 18.667 133 18h15c15.333 0 39.166 -1 71.499 -3s56.833 -3.66699 73.5 -5c44 118.667 111.667 262.667 203 432c95.333 178.667 187.333 328 276 448
c176 241.333 329.667 425 461 551c35.333 34 78.333 71.667 129 113c-106.667 13.333 -216.667 42 -330 86c-28.667 10.667 -85.334 33.334 -170.001 68.001c-95.333 39.333 -165 65 -209 77c-90 23.333 -176.667 35 -260 35c-135.333 -1.33301 -228 -32.666 -278 -93.999
c-26 -34.667 -39 -74 -39 -118c0 -35.333 10.333 -69 31 -101c18 -26 48 -46.5 90 -61.5s76.667 -22.5 104 -22.5c10.667 0 16.334 -7 17.001 -21c-2.66699 -10.667 -9 -16 -19 -16c-22 0 -49.333 4.66699 -82 14c-66.667 22 -113 49.333 -139 82
c-27.333 36.667 -41 78.334 -41 125.001v10c2 49.333 18.333 94.666 49 135.999c61.333 69.333 163.666 104 306.999 104c91.333 0 181 -12.333 269 -37c65.333 -18 137.666 -44 216.999 -78c92 -38.667 147.333 -61 166 -67c112 -46.667 230.667 -76 356 -88l76 61
c44 36.667 72.667 60 86 70c30 22 56.667 38.333 80 49c34 18 66 27.667 96 29c8.66699 0.666992 16.667 1 24 1c50.667 0 85.667 -18.333 105 -55c8.66699 -20.667 13 -39.667 13 -57c0 -40.667 -22.667 -74.667 -68 -102c-50.667 -26 -142.334 -39 -275.001 -39
c-44 0 -85.667 2 -125 6c-68 -57.333 -119.667 -102.333 -155 -135c-132.667 -125.333 -285 -307 -457 -545c-92.667 -131.333 -183.334 -278.666 -272.001 -441.999c-92.667 -173.333 -159 -313.333 -199 -420c196.667 -18 334.667 -27 414 -27
c263.333 0 502.666 77.333 717.999 232c162.667 114.667 301.334 271 416.001 469c0 9.33301 0.666992 15.333 2 18c8 72.667 26.667 253.667 56 543c15.333 168 52.666 294.333 111.999 379c24 34 51.667 51 83 51h5c36.667 -2.66699 55.334 -32.667 56 -90v-23
c0 -2.66699 -0.833008 -6 -2.5 -10s-2.5 -6.66699 -2.5 -8v-11c-50.667 -340 -142 -626.667 -274 -860c-9.33301 -83.333 -22.333 -169.333 -39 -258c-16.667 -87.333 -36.334 -161.666 -59.001 -222.999c-42 -109.333 -99.333 -217.333 -172 -324
c44 -2.66699 72.667 -4 86 -4c101.333 0 194.666 11 279.999 33c108 26 219.333 78 334 156c117.333 80.667 226 185.667 326 315c255.333 334.667 389.666 770.334 403 1307c0 12 6.16699 18 18.5 18s18.5 -6.66699 18.5 -20c-12 -538.667 -149.333 -981 -412 -1327
c-104 -135.333 -215.333 -243.333 -334 -324s-233.334 -134.667 -344.001 -162c-91.333 -22 -188 -33 -290 -33c-45.333 0 -81.666 2.33301 -108.999 7c-61.333 -83.333 -119.333 -137.333 -174 -162c-32.667 -16.667 -66.667 -27 -102 -31c-6 -0.666992 -12 -1 -18 -1
c-26.667 0 -51.667 7.33301 -75 22c-28.667 18 -43 48 -43 90c0 37.333 16 66 48 86c28.667 18 68 31.667 118 41c27.333 4 56.666 6 87.999 6c43.333 0 90 -4 140 -12l32 49c54.667 83.333 103.334 178 146.001 284c23.333 54.667 42.333 127 57 217l29 170
c-104 -165.333 -231 -301 -381 -407c-225.333 -160 -472.333 -240 -741 -240c-78 1.33301 -220 10.333 -426 27c-31.333 -76.667 -73 -136 -125 -178c-50.667 -39.333 -108 -64.666 -172 -75.999c-14.667 -2.66699 -29 -4 -43 -4c-44 0 -83 12.333 -117 37
c-28 22.667 -42 50.334 -42 83.001c0 4 0.333008 8.33301 1 13zM-134.992 -174.008c-0.666992 -4 -1 -8.00098 -1 -12.001c0 -18 7 -35.333 21 -52c31.333 -20.667 65.666 -30.667 102.999 -30c13.333 0 27 1.33301 41 4c56 10.667 104.333 32.334 145 65.001
c40.667 28.667 77.667 80 111 154c-46 5.33301 -88.333 8 -127 8c-117.333 0 -202.666 -24 -255.999 -72c-20.667 -17.333 -33 -39 -37 -65zM1251.01 -274.009c2.66699 -26 10.334 -44 23.001 -54c13.333 -9.33301 31 -14 53 -14c15.333 0 35 2.66699 59 8
c18 4 35.333 10.333 52 19c53.333 26.667 102.333 71.667 147 135c-40 6 -77.333 9 -112 9c-30.667 0 -60.334 -2.33301 -89.001 -7c-35.333 -4 -66 -13.667 -92 -29c-27.333 -14.667 -41 -37 -41 -67zM1462.01 1564.99c46.667 -2.66699 74 -4 82 -4
c128.667 0 214 12 256 36c32.667 19.333 49 43.333 49 72c-4 48 -34.667 72 -92 72h-8c-23.333 -4 -45.333 -10.333 -66 -19c-16.667 -6.66699 -37.667 -18.667 -63 -36l-53 -37c-5.33301 -4 -24 -19 -56 -45c-16 -14 -32.333 -27 -49 -39zM1931.01 753.991
c108 218.667 183.999 478.668 227.999 780.001c1.33301 14 2 26.333 2 37c0 32.667 -7 49.667 -21 51h-4c-12.667 0 -25 -6.66699 -37 -20c-12 -12 -27 -37.333 -45 -76c-35.333 -72.667 -60.666 -174.334 -75.999 -305.001z" />
    <glyph glyph-name="X" unicode="X" horiz-adv-x="1990" 
d="M-584 276c10.667 105.333 48.9971 190.658 114.997 255.991c114 118 277.667 177 491 177h44c12 0 17.333 -7 16 -21c-1.33301 -9.33301 -7.66602 -14 -18.999 -14c-231.333 0 -399 -55.333 -503 -166c-31.333 -31.333 -58 -75.666 -80 -132.999
c-17.333 -44.667 -26 -92 -26 -142c0 -10 0.333008 -20 1 -30c4 -60 26 -111.333 66 -154c98 -102.667 247.333 -153.667 448 -153c206 0 417.667 73.667 635 221c120 83.333 215 163.666 285 240.999c143.333 169.333 264.666 345 363.999 527
c106.667 192.667 162.667 370.667 168 534c0.666992 6.66699 1 13.334 1 20.001c0 72 -20 141.333 -60 208c-56 84.667 -143.333 135.667 -262 153c-50.667 8 -99.334 12 -146.001 12c-143.333 0 -262 -37.333 -356 -112c-82 -65.333 -134.667 -148.666 -158 -249.999
c-10 -42 -15 -81 -15 -117c0 -56.667 12.667 -107 38 -151c35.333 -61.333 88 -103.666 158 -126.999c35.333 -12 70 -18 104 -18c36.667 0 72 6.66699 106 20c94 30 152.333 101 175 213c1.33301 12 8 16.667 20 14c12 -1.33301 16.667 -8 14 -20
c-16.667 -100.667 -65.667 -174.667 -147 -222c-48.667 -26.667 -101 -40 -157 -40c-30 0 -61 4 -93 12c-91.333 22 -161 70.333 -209 145c-30 51.333 -45 110.333 -45 177c0 38 4.66699 78.667 14 122c24.667 108.667 82 199 172 271c100 80.667 226.333 120.667 379 120
c48 0 98.667 -4 152 -12c132.667 -22 228.334 -78.667 287.001 -170c40.667 -64 62.334 -146.667 65.001 -248c-1.33301 -113.333 -37.333 -254 -108 -422c80 108.667 168 211.334 264 308.001c160 160 330.667 280.667 512 362c94 42 191 63.333 291 64
c96.667 0 175.667 -22.667 237 -68c62.667 -46.667 94 -115.667 94 -207l-4 -53c-1.33301 -12 -8.66602 -16.667 -22 -14c-9.33301 1.33301 -14.333 8 -15 20c2.66699 24.667 4.33398 40.334 5 47.001c0 78 -27.333 137.333 -82 178c-53.333 39.333 -124.333 59.333 -213 60
c-92 0 -184.333 -20.667 -277 -62c-173.333 -75.333 -340 -192.666 -500 -351.999c-79.333 -80.667 -151 -162 -215 -244c-190 -241.333 -315.333 -484.333 -376 -729c-9.33301 -33.333 -14 -69.333 -14 -108c0 -25.333 1.66699 -52 5 -80
c9.33301 -75.333 34 -135.333 74 -180c66.667 -75.333 152.667 -113 258 -113c66.667 0 130.834 16.333 192.501 49s106.834 78.334 135.501 137.001c18 32.667 29 73 33 121c0.666992 6.66699 1 13.334 1 20.001c0 34.667 -8.66699 71.667 -26 111c-18 42 -48 70 -90 84
c-24 8.66699 -48.667 13.334 -74 14.001c-18 0 -36.333 -2.66699 -55 -8c-47.333 -12 -86.333 -36.333 -117 -73c-8 -10.667 -16.667 -12.334 -26 -5.00098c-6.66699 6.66699 -7.66699 15.667 -3 27c28.667 38 71 66 127 84c24 7.33301 48.333 11 73 11l87 -15
c46.667 -16.667 81.667 -48 105 -94c22 -44 33 -89 33 -135c0 -4 -0.333008 -7.66699 -1 -11c-2.66699 -53.333 -13.334 -101.666 -32.001 -144.999c-31.333 -64 -80.666 -114.667 -147.999 -152c-69.333 -38 -141 -57 -215 -57c-114.667 0 -209.667 41.667 -285 125
c-58 65.333 -87 155 -87 269c0 40.667 4 84.667 12 132c16.667 65.333 43.334 144 80.001 236c-42 -58.667 -100 -131 -174 -217l-13 -12l-37 -37c-10.667 -10.667 -29.667 -28.667 -57 -54c-22 -19.333 -48 -41 -78 -65c-20.667 -16.667 -51.334 -40 -92.001 -70
c-232 -158.667 -456 -237.667 -672 -237c-214.667 0 -371.667 53 -471 159c-56 63.333 -84 136.333 -84 219c0 12.667 0.666992 25.667 2 39z" />
    <glyph glyph-name="Y" unicode="Y" horiz-adv-x="1884" 
d="M-168 -289c-1.33301 10.667 3.33301 18.3311 14 22.998c56 10.667 114 44.667 174 102l29 29c-31.333 66.667 -47 131.334 -47 194.001c0 70.667 13 128 39 172c28.667 45.333 62.667 68 102 68c31.333 0 56.666 -13.667 75.999 -41c19.333 -28.667 28.333 -62 27 -100
c0 -90 -50.667 -189.667 -152 -299c32.667 -60 81.334 -110.667 146.001 -152c96 -57.333 206.333 -86 331 -86c113.333 0 220.666 30 321.999 90c98 58.667 181.333 140.667 250 246l272 432c-19.333 -19.333 -31.666 -31 -36.999 -35
c-130 -109.333 -264.333 -164 -403 -164c-76.667 0 -147.667 13.667 -213 41c-78 35.333 -134 85.333 -168 150c-26 48 -39 105.333 -39 172c0 114.667 41.667 250.667 125 408c86 164 178.667 301.667 278 413c95.333 106.667 204.666 211.334 327.999 314.001
c-108 15.333 -218 43.333 -330 84c-13.333 5.33301 -54 23 -122 53c-53.333 23.333 -99.333 41.666 -138 54.999c-58.667 20.667 -98 33.667 -118 39c-94.667 24.667 -180 37 -256 37c-62 0 -118 -8.33301 -168 -25c-46.667 -15.333 -83.667 -39 -111 -71
c-30 -36.667 -45 -77 -45 -121c0 -94 75.667 -155.667 227 -185c12 0 18.333 -6 19 -18c-1.33301 -12 -8.33301 -18 -21 -18l-10 2c-6 2 -16.333 4 -31 6c-19.333 2.66699 -33 5.33398 -41 8.00098c-49.333 13.333 -92.333 38.666 -129 75.999c-34 34 -51 77 -51 129
c0 92.667 43.667 162.334 131 209.001c61.333 30 135.333 44.667 222 44c80 0 171.333 -12.667 274 -38c46.667 -12 87 -25 121 -39c65.333 -26 111.666 -45 138.999 -57l121 -52c120 -45.333 239.333 -74 358 -86c4 1.33301 17.667 13 41 35l47 39
c2.66699 2.66699 7.5 6.83398 14.5 12.501l28.5 22.5c6.66699 5.33301 24.334 17.666 53.001 36.999c4 2.66699 10.167 6.33398 18.5 11.001l29.5 17c9.33301 5.33301 27 13 53 23c15.333 5.33301 32.333 9.33301 51 12c8.66699 1.33301 16.667 2 24 2
c34.667 0 62.834 -10.833 84.501 -32.5s32.5 -46.5 32.5 -74.5c0 -6.66699 -0.666992 -13.334 -2 -20.001c-5.33301 -36.667 -26.333 -66 -63 -88c-45.333 -28.667 -110.333 -43.667 -195 -45c-14.667 -0.666992 -29 -0.666992 -43 0
c-64.667 0 -119.334 3.33301 -164.001 10c-130 -104 -242.667 -209.667 -338 -317c-104 -116 -199.333 -256.667 -286 -422c-80.667 -148.667 -121 -278.334 -121 -389.001c0 -60 11.667 -112 35 -156c23.333 -40.667 53.333 -73.334 90 -98.001c68 -48 154 -72 258 -72
c132.667 0 259 52 379 156c76.667 66.667 152.334 151.334 227.001 254.001l313 457c82 116 168.667 219 260 309c91.333 88.667 172.666 156.334 244 203.001c78 50.667 144.333 88 199 112c66.667 30 112.334 48 137.001 54c31.333 6.66699 49 10 53 10
c13.333 1.33301 20.333 -3.66699 21 -15c2.66699 -10.667 -3 -18 -17 -22l-32 -8c-23.333 -5.33301 -36.333 -9 -39 -11c-56 -16.667 -121.667 -46 -197 -88c-216 -122.667 -415.333 -311 -598 -565l-221 -317c-34 -54.667 -64.667 -101.334 -92 -140.001
c-182.667 -272 -328.667 -497.667 -438 -677c-72.667 -109.333 -159.667 -195.333 -261 -258c-104 -64 -218 -96.333 -342 -97c-132.667 0 -249.334 30 -350.001 90c-64 39.333 -115 91.333 -153 156c-27.333 -27.333 -55.333 -51.333 -84 -72
c-42 -32.667 -85.667 -53 -131 -61c-14 -1.33301 -21 3.33398 -21 14.001zM38.999 56.9971c0 -58.667 13 -113 39 -163c87.333 100 131 188 131 264c0 23.333 -5.33301 47 -16 71c-9.33301 22 -26 33 -50 33c-26 0 -49 -16.333 -69 -49
c-22 -31.333 -33.667 -83.333 -35 -156zM1380 1716c50.667 -4.66699 96 -6.66797 136 -6.00098c93.333 0 160.666 12.333 201.999 37c32 16.667 48.333 38.667 49 66c0 8.66699 -2 18 -6 28c-12.667 34.667 -38 52.334 -76 53.001c-5.33301 0 -11.333 -0.666992 -18 -2
c-22 -1.33301 -48.667 -10 -80 -26c-31.333 -15.333 -53.666 -28.333 -66.999 -39c-9.33301 -6.66699 -33.333 -26 -72 -58z" />
    <glyph glyph-name="Z" unicode="Z" horiz-adv-x="2381" 
d="M-143 150c45.333 70 132.669 104.674 262.002 104.007c57.333 0 122.666 -7 195.999 -21c80.667 -16.667 171.667 -38.334 273 -65.001c39.333 35.333 79 73 119 113c158.667 155.333 323.667 334.666 495 537.999l66 80l-346 31c-13.333 1.33301 -19 8 -17 20
c0 12 7 17.667 21 17l368 -33l136 186c69.333 96 124.333 169.667 165 221c58.667 75.333 112.667 137.666 162 186.999c-294.667 44 -554.667 108.667 -780 194c-2.66699 1.33301 -12.5 5.16602 -29.5 11.499s-31.833 12.166 -44.5 17.499l-78 33
c-18 6.66699 -43 13.334 -75 20.001c-34 6.66699 -62 10.334 -84 11.001c-84.667 0 -147.667 -37.667 -189 -113c-22 -38 -33 -84.333 -33 -139c0 -56 11 -112.667 33 -170c12 -34 23.667 -61.333 35 -82c8 -10 6 -18.333 -6 -25c-10 -8 -18.333 -6 -25 6
c-12 23.333 -24.333 50.666 -37 81.999c-24.667 65.333 -36.667 128.333 -36 189c0 56 12 107.667 36 155c49.333 88.667 123.333 133 222 133c23.333 0 52 -3.33301 86 -10c23.333 -4 48.333 -10.667 75 -20c24.667 -8 54 -19 88 -33l76 -31
c235.333 -88 501.666 -153.333 798.999 -196c104 100 208.333 171 313 213c114.667 46.667 211.667 69.667 291 69c38.667 0 73.667 -6 105 -18c34 -12 58.333 -36 73 -72c8 -18.667 12.167 -37.167 12.5 -55.5s-3.83398 -36.833 -12.5 -55.5
c-13.333 -28.667 -32.333 -51.667 -57 -69c-70.667 -54.667 -190 -82 -358 -82c-117.333 0 -235.666 10.333 -354.999 31c-61.333 -63.333 -120.666 -131 -177.999 -203c-20.667 -26 -74.667 -99 -162 -219l-125 -170l426 -41c12 0 18.333 -7 19 -21
c-2.66699 -10.667 -9 -16 -19 -16h-2l-450 43c-31.333 -44 -58 -77.333 -80 -100c-166.667 -192.667 -308.667 -348.334 -426 -467.001c-61.333 -64 -120 -121.333 -176 -172c60 -16.667 167 -53 321 -109c142 -52 254 -89.667 336 -113
c227.333 -61.333 411.666 -92 552.999 -92c181.333 0 296 46.667 344 140c18.667 34.667 28 77.667 28 129c0 26.667 -2.33301 56 -7 88c-2.66699 12 2 18.667 14 20c12 2.66699 18.667 -2 20 -14c8 -34 12.333 -66.667 13 -98c0 -52 -11.667 -100 -35 -144
c-56 -105.333 -181.667 -158 -377 -158c-155.333 0 -342.333 31.667 -561 95c-83.333 23.333 -195.333 60.666 -336 111.999c-134 49.333 -248.667 87.666 -344 114.999c-106.667 -94 -196.667 -163 -270 -207c-80.667 -46.667 -172.334 -70 -275.001 -70
c-101.333 0 -168 29.667 -200 89c-18 30 -27 61.333 -27 94c0 41.333 10.333 80.333 31 117zM-126.997 100.007c-6.66699 -20.667 -9.99805 -41 -9.99805 -61c0 -28.667 6.66699 -56 20 -82c34 -46.667 90.667 -70 170 -70c83.333 0 168.666 22 255.999 66
c58.667 32.667 140.667 94.667 246 186c-78 20.667 -160.667 40 -248 58c-72.667 14 -136.334 21 -191.001 21c-129.333 0 -210.333 -39.333 -243 -118zM1837 1552.01c88.667 -16.667 195.332 -24.667 319.999 -24c122.667 0 218.667 15.667 288 47
c46.667 22 78.334 49.333 95.001 82c5.33301 13.333 7.83301 26.5 7.5 39.5s-2.83301 25.833 -7.5 38.5c-10 24.667 -28.667 43 -56 55c-26 10.667 -56 16 -90 16c-74 0 -166 -22.333 -276 -67c-96 -38.667 -189.667 -101 -281 -187z" />
    <glyph glyph-name="bracketleft" unicode="[" horiz-adv-x="1079" 
d="M49 -442l1510 2326c5.33301 5.33301 10.666 8 15.999 8h291c12 0 18 -6.16699 18 -18.5s-6 -18.5 -18 -18.5h-283l-1485 -2289h303c12 0 18.167 -6.16699 18.5 -18.5s-5.83398 -18.5 -18.501 -18.5h-335c-6.66699 0 -12.334 3.33301 -17.001 10c-4 6.66699 -4 13 0 19z
" />
    <glyph glyph-name="backslash" unicode="\" horiz-adv-x="989" 
d="M172 2079c-2.66699 13.333 2.00098 20.668 14.001 22.001c13.333 2.66699 21 -2 23 -14l479 -2529c1.33301 -10.667 -3.33398 -18.334 -14.001 -23.001h-4c-8 0 -14.333 4.66699 -19 14z" />
    <glyph glyph-name="bracketright" unicode="]" 
d="M-279 -393.5c0 12.333 6.33203 18.5 18.999 18.5h283l1484 2290h-303c-12 0 -18 6.16699 -18 18.5s6 18.5 18 18.5h336c8 0 13.333 -3.33301 16 -10c4 -6 4 -12.333 0 -19l-1509 -2326c-5.33301 -5.33301 -10.666 -8.33301 -15.999 -9h-291
c-12.667 0 -19 6.16699 -19 18.5z" />
    <glyph glyph-name="asciicircum" unicode="^" horiz-adv-x="1652" 
d="M131 1157c-1.33301 9.33301 4.00098 16.3359 16.001 21.0029c6.66699 0 23.334 2.66699 50.001 8c54.667 12 103 23.667 145 35c78 20.667 147.667 41.667 209 63c320.667 112 616.334 271.667 887.001 479c6.66699 6.66699 14.167 7.33398 22.5 2.00098
s10.166 -12.666 5.49902 -21.999c0 -1.33301 -4.66699 -14.333 -14 -39c-9.33301 -27.333 -19 -59.333 -29 -96c-13.333 -54.667 -22 -96.334 -26 -125.001c-6.66699 -50.667 -9.33398 -94.334 -8.00098 -131.001c1.33301 -42 10.666 -78.333 27.999 -109
c22 -36.667 55.667 -58.334 101 -65.001c10.667 -2.66699 16 -10.334 16 -23.001c-1.33301 -9.33301 -7.33301 -14 -18 -14h-5c-56 8 -97.667 36 -125 84c-55.333 98 -47 255.667 25 473c-270.667 -199.333 -554 -349 -850 -449c-54.667 -20.667 -125 -42.334 -211 -65.001
c-49.333 -13.333 -98.333 -25 -147 -35c-27.333 -5.33301 -44.333 -8 -51 -8c-10 -1.33301 -17 4 -21 16z" />
    <glyph glyph-name="underscore" unicode="_" horiz-adv-x="1331" 
d="M27 18.5c0 12.333 6.00098 18.5 18.001 18.5h1239c12 0 18.167 -6.16699 18.5 -18.5s-5.83398 -18.5 -18.501 -18.5h-1239c-12 0 -18 6.16699 -18 18.5z" />
    <glyph glyph-name="grave" unicode="`" horiz-adv-x="878" 
d="M47 2165c0 12 6.16602 18 18.499 18s18.5 -6 18.5 -18c0 -24.667 5.33301 -57 16 -97c26 -75.333 64.333 -136 115 -182c54.667 -49.333 113.334 -84 176.001 -104c65.333 -20.667 135 -35 209 -43c76.667 -8 147.667 -7.33301 213 2c9.33301 0 16.333 -5.66699 21 -17
c0 -13.333 -6.33301 -20 -19 -20c-40.667 -4 -81.667 -6 -123 -6c-146 0 -277.667 30 -395 90s-194.333 150.667 -231 272c-12.667 39.333 -19 74.333 -19 105z" />
    <glyph glyph-name="a" unicode="a" horiz-adv-x="1814" 
d="M-66 233c-1.33301 10.667 -1.66797 21.333 -1.00098 32c0 137.333 96.667 288.666 290 453.999c135.333 114.667 270.666 201.334 405.999 260.001c130 58.667 255 88 375 88c61.333 0 113 -6.66699 155 -20c5.33301 -1.33301 19.666 -6.33301 42.999 -15
c19.333 -6.66699 43.333 -23.667 72 -51c28.667 -26.667 47 -57.334 55 -92.001c3.33301 -14 5 -28.333 5 -43c0 -90.667 -60.333 -200.667 -181 -330c1.33301 1.33301 3.33301 3 6 5s5 3.66699 7 5l3 2c54.667 39.333 112.667 79 174 119
c60 39.333 107.167 69.333 141.5 90s52.166 31 53.499 31c10 8 18.333 6 25 -6c8 -10 5.66699 -18.333 -7 -25l-20 -12l-57 -35l-80 -51l-101 -66c-49.333 -32.667 -84.666 -57 -105.999 -73c-105.333 -79.333 -187.333 -148.333 -246 -207
c-70.667 -75.333 -104 -134 -100 -176c2 -30.667 22.333 -53.334 61 -68.001c40.667 -15.333 80.334 -22.666 119.001 -21.999c112 0 238.333 41.667 379 125c144.667 86 282 189.667 412 311c10.667 9.33301 19.334 8.66602 26.001 -2.00098
c3.33301 -5.33301 5 -10.166 5 -14.499s-1.66699 -8.5 -5 -12.5c-329.333 -296 -601 -444 -815 -444c-52 0 -101 9.33301 -147 28c-48 20 -72 55.333 -72 106c0 42.667 24.667 93.334 74 152.001c-91.333 -75.333 -176.666 -137.333 -255.999 -186
c-136.667 -84.667 -257.667 -127 -363 -127c-88 0 -161.667 24.667 -221 74c-60.667 48.667 -97 114 -109 196zM-29.002 237.999c8 -74 39.332 -132.166 93.999 -174.499s121 -63.5 199 -63.5c53.333 -0 110 10.333 170 31c57.333 20.667 121 54.667 191 102
c78 53.333 132.333 92.333 163 117c31.333 23.333 88 69 170 137c226.667 186 340 338.333 340 457c0 12.667 -1.33301 25 -4 37c-5.33301 27.333 -21 52.333 -47 75c-22 20.667 -43.667 35.667 -65 45c-15.333 6.66699 -26.333 10.334 -33 11.001
c-45.333 12 -93.666 18 -144.999 18c-113.333 0 -236.333 -30 -369 -90c-139.333 -62.667 -268.333 -146 -387 -250c-106.667 -88.667 -184 -176 -232 -262c-30.667 -56.667 -46 -111.334 -46 -164.001c0 -8.66699 0.333008 -17.334 1 -26.001z" />
    <glyph glyph-name="b" unicode="b" horiz-adv-x="1394" 
d="M-2 240c-5.33301 23.333 -7.99512 48.002 -7.99512 74.002c0 102 37.333 226 112 372c72.667 144.667 186.667 320.667 342 528c117.333 152.667 241.666 302.334 372.999 449.001c116 130 207.667 225.667 275 287c76.667 68 140.667 111 192 129
c14.667 4.66699 27.667 7 39 7c20 0 37 -7.33301 51 -22c21.333 -19.333 32 -45 32 -77c0 -30 -9.33301 -65 -28 -105c-6.66699 -16.667 -14.667 -32.334 -24 -47.001l-27 -41c-6.66699 -8 -10 -14 -10 -18c-164 -237.333 -391.333 -510.666 -682 -819.999l-389 -393
c-57.333 -57.333 -127.666 -110.666 -210.999 -159.999c-7.33301 -32 -11 -61.333 -11 -88c0 -21.333 2.33301 -41.666 7 -60.999c0 -2.66699 3.33301 -15.667 10 -39c5.33301 -16.667 19 -44 41 -82c19.333 -31.333 45.333 -59.333 78 -84
c48 -32.667 106.667 -48.667 176 -48c39.333 0 82.333 5 129 15c130 31.333 248 106.666 354 225.999c79.333 87.333 134 185 164 293c-28.667 18 -55.334 43 -80.001 75c-38 48 -61 96.667 -69 146c-2 12.667 -3.33301 24.667 -4 36c0 46 19.667 81 59 105
c19.333 11.333 37.333 17 54 17c21.333 0 41.666 -9 60.999 -27c26 -23.333 40.333 -62.333 43 -117c0.666992 -14.667 1 -29.334 1 -44.001c0 -62 -7.33301 -120.333 -22 -175c59.333 -27.333 117.333 -41 174 -41c25.333 0 50.666 2.66699 75.999 8
c80.667 18 155 57 223 117c10.667 5.33301 19.667 4.66602 27 -2.00098c2.66699 -4.66699 4 -9 4 -13c0 -4.66699 -2 -9.33398 -6 -14.001c-76.667 -66.667 -154.667 -108.334 -234 -125.001c-35.333 -8 -69.333 -11.667 -102 -11c-64 0 -121.333 14.667 -172 44
c-32.667 -109.333 -89.334 -208.333 -170.001 -297c-112 -122.667 -236.333 -201 -373 -235c-47.333 -12 -92.333 -18 -135 -18c-74 0 -139.667 18 -197 54c-78.667 50 -126.334 124 -143.001 222zM47.0049 455.002c61.333 38 119.333 82.999 174 134.999l47 47l148 145
l192 199c284 300.667 510 572.334 678 815.001l10 14c6.66699 10.667 17 28.667 31 54c12 22 21.667 42.333 29 61c8 22 12 44 12 66c0 20.667 -6 37 -18 49c-8 8 -17.667 12 -29 12c-40.667 0 -109 -43.667 -205 -131c-60 -53.333 -151.333 -148.333 -274 -285
c-124 -138 -246.333 -286 -367 -444c-233.333 -305.333 -376 -551 -428 -737zM870.005 762.001c6.66699 -42 27.334 -85.001 62.001 -129.001c18 -23.333 38.333 -43.333 61 -60c12 55.333 18 108 18 158c0 13.333 -0.333008 26.333 -1 39c-2.66699 31.333 -9 56 -19 74
c-12 22 -29 33 -51 33c-30 0 -49.667 -11.667 -59 -35c-8 -18.667 -12 -38 -12 -58c-0.666992 -7.33301 -0.333984 -14.666 0.999023 -21.999z" />
    <glyph glyph-name="c" unicode="c" horiz-adv-x="1443" 
d="M-51 195c-2 12.667 -3.00195 25.3379 -3.00195 38.0049c0 52 15.333 113 46 183c36.667 82 93.334 166 170.001 252c79.333 87.333 163.333 159.666 252 216.999c94 60 182.667 100.333 266 121c62 13.333 114.333 20 157 20c18 0 34.667 -1.33301 50 -4
c48 -8 84 -27.667 108 -59c19.333 -32.667 29 -63 29 -91c0 -32.667 -8.33301 -63.334 -25 -92.001c-5.33301 -9.33301 -14 -12 -26 -8c-9.33301 5.33301 -11.333 13.666 -6 24.999c14.667 26.667 22 51.334 22 74.001c0 24.667 -8 47.667 -24 69
c-23.333 33.333 -66.333 50 -129 50c-40.667 0 -90 -7 -148 -21c-82 -18 -167.333 -56.333 -256 -115c-87.333 -56 -168.666 -126.333 -243.999 -211c-70.667 -79.333 -124.334 -158.333 -161.001 -237c-29.333 -64 -44.333 -120.333 -45 -169
c0 -12.667 1.33301 -24.667 4 -36c5.33301 -46.667 29.833 -84.334 73.5 -113.001s88.167 -45 133.5 -49c8 -1.33301 28 -3.33301 60 -6l73 -6c18 -0.666992 32.333 -1.33398 43 -2.00098c17.333 0 27.333 1.33301 30 4h2c74 0 183.333 18.333 328 55
c251.333 62.667 484 185 698 367c9.33301 8 18.333 7.33301 27 -2c4 -4.66699 6 -9.33398 6 -14.001s-2.66699 -9 -8 -13c-121.333 -98 -247.666 -180.667 -378.999 -248c-112 -56 -224 -98.333 -336 -127c-144.667 -36.667 -256 -55 -334 -55h-12h-26
c-2.66699 0 -8.16699 -0.333008 -16.5 -1s-13.833 -1 -16.5 -1c-44 0 -89.667 3.33301 -137 10c-147.333 26 -229.333 91 -246 195z" />
    <glyph glyph-name="d" unicode="d" horiz-adv-x="1808" 
d="M-59 238l-2 27.999c0 139.333 96.667 291.666 290 456.999c273.333 233.333 530.666 350 771.999 350c180 0 286 -50.333 318 -151c4.66699 -16 7 -33.333 7 -52c0 -30.667 -6.33301 -64 -19 -100l307 428l309 395c92.667 112 154.667 180.333 186 205
c27.333 21.333 53 32 77 32c10 0 20 -1.66699 30 -5c12 -5.33301 21.667 -12.333 29 -21c10.667 -13.333 16.667 -22 18 -26l4 -13c2 -8 3 -16.667 3 -26c0 -78.667 -69.333 -190 -208 -334c-112 -116 -282.667 -274.333 -512 -475l-229 -205
c-133.333 -194.667 -242 -368.667 -326 -522c-18.667 -35.333 -28 -65.666 -28 -90.999c0 -18 4.66699 -33.333 14 -46c14 -18.667 41 -28 81 -28c34.667 0 79.334 7 134.001 21c134 34 274 109.333 420 226c82 64 146 119.333 192 166c9.33301 9.33301 18.333 10 27 2
c8 -9.33301 8 -18.333 0 -27c-57.333 -57.333 -122.333 -114 -195 -170c-157.333 -118.667 -302 -195.667 -434 -231c-53.333 -15.333 -100.333 -23 -141 -23c-52 0 -89.667 13.667 -113 41c-4 5.33301 -8.66699 15 -14 29c-4 9.33301 -6 20 -6 32c0 8 1.33301 19 4 33l6 31
l8 25c0 2.66699 1.33301 6 4 10s4 6.66699 4 8l5 8c52 96.667 110 194.334 174 293.001c-45.333 -49.333 -94.666 -99.333 -147.999 -150c-122.667 -116 -238.667 -208 -348 -276c-128.667 -79.333 -249.334 -119 -362.001 -119c-88 0 -164 24.667 -228 74
s-100.667 115 -110 197zM-23 241.999c6.66699 -74 38.332 -131.998 94.999 -173.998c58.667 -44 128.334 -66 209.001 -66c178.667 0 406.667 129 684 387c216.667 204 325 363.667 325 479c0 15.333 -2 29.666 -6 42.999c-24.667 83.333 -119 125 -283 125
c-229.333 0 -478.333 -114 -747 -342c-185.333 -154.667 -278 -296.334 -278 -425.001c0 -8.66699 0.333008 -17.667 1 -27zM1411 856.001l114.998 100c256 225.333 426 383.333 510 474c132 139.333 198 242.666 198 309.999c0 6 -0.666992 11.667 -2 17
c-4 19.333 -14.667 31 -32 35c-3.33301 0.666992 -6.66602 1 -9.99902 1c-16 0 -36 -8.66699 -60 -26c-23.333 -19.333 -82.666 -86 -177.999 -200c-98 -117.333 -201.333 -247.666 -310 -390.999z" />
    <glyph glyph-name="e" unicode="e" horiz-adv-x="1435" 
d="M-43 227c-1.33301 16.667 -1.99902 33.332 -1.99902 49.999c0 75.333 15 148.333 45 219c38 88.667 83.667 159.667 137 213c-40.667 22.667 -61 34.667 -61 36c-9.33301 5.33301 -11.333 13.666 -6 24.999c8 10.667 16.667 12 26 4
c16.667 -10 39.334 -22.333 68.001 -37c10 12 26.333 28.333 49 49l47 45c181.333 174.667 371.666 276 570.999 304c21.333 2.66699 41.666 3.66699 60.999 3c94 0 172.667 -29 236 -87c44 -40 66 -85.333 66 -136c0 -38.667 -13 -80 -39 -124
c-45.333 -76.667 -115.666 -134.334 -210.999 -173.001c-88.667 -36 -175.334 -53.667 -260.001 -53h-27c-143.333 5.33301 -283 37.666 -419 96.999l-66 28c-31.333 -27.333 -63.333 -71.666 -96 -132.999c-28.667 -54.667 -52.667 -114 -72 -178
c-9.33301 -33.333 -14 -67 -14 -101c0 -28.667 3.33301 -57 10 -85c13.333 -57.333 48 -102.666 104 -135.999c46.667 -26 100.667 -41 162 -45c17.333 -1.33301 35 -1.66602 53 -0.999023c48.667 0 98 4 148 12c62.667 9.33301 121.334 21.333 176.001 36
c61.333 16.667 105 30.334 131 41.001c117.333 48 230 103.333 338 166c100 58.667 211.333 140.667 334 246c10.667 5.33301 19.667 4.66602 27 -2.00098c2.66699 -4 4 -8 4 -12c0 -4.66699 -2.33301 -9.66699 -7 -15c-132.667 -110.667 -246 -193 -340 -247
c-110.667 -64 -225.334 -120 -344.001 -168c-76.667 -28.667 -151 -50.667 -223 -66c-70.667 -15.333 -156 -22.666 -256 -21.999c-90 0 -164.333 15.667 -223 47c-76.667 43.333 -119 110 -127 200zM197.001 718.998l54.998 -24.998
c132.667 -54.667 267.667 -85.334 405 -92.001c8.66699 -0.666992 17.334 -0.666992 26.001 0c84 0 167 18.333 249 55c91.333 40.667 155.333 92 192 154c18.667 36.667 28.334 70.667 29.001 102c0 20.667 -4 40 -12 58c-20.667 46.667 -59.667 82 -117 106
c-42 18 -85.667 27 -131 27c-18 0 -36.333 -1.33301 -55 -4c-91.333 -12 -179.666 -39.333 -264.999 -82c-87.333 -44 -184 -115 -290 -213l-25 -25l-33 -32c-2.66699 -2.66699 -6 -5.83398 -10 -9.50098s-7.33301 -7.16699 -10 -10.5s-5.33398 -6.33301 -8.00098 -9z" />
    <glyph glyph-name="f" unicode="f" horiz-adv-x="1042" 
d="M-977 -1130c-6 13.333 -8.99805 29.6699 -8.99805 49.0029c0 50.667 20 123 60 217c35.333 80.667 64.666 138.667 87.999 174c102.667 199.333 378.667 579 828 1139l299 370c456 557.333 788.333 953.333 997 1188c42 44 84 66 126 66
c8.66699 0 17.334 -0.666992 26.001 -2c39.333 -6.66699 67.333 -28 84 -64c12 -25.333 17.667 -53.333 17 -84c0 -8 -0.333008 -16.333 -1 -25c-4 -38 -9.33301 -71.333 -16 -100c-6.66699 -27.333 -11.667 -43.666 -15 -48.999
c-57.333 -166.667 -169.333 -337.334 -336 -512.001c-178 -188.667 -417.333 -381.334 -718 -578.001c-96.667 -64 -241 -141 -433 -231l-172 -217c44 -44 92.667 -76 146 -96c66.667 -26 140 -39 220 -39c152 0 329 47 531 141c125.333 58.667 243 134.334 353 227.001
c10.667 9.33301 19.5 8.66602 26.5 -2.00098s6.16699 -19.334 -2.5 -26.001c-112.667 -94 -233.334 -172 -362.001 -234c-210 -94 -393.667 -141 -551 -141c-84.667 0 -162 13.667 -232 41c-49.333 18.667 -90 43.334 -122 74.001c3.33301 -36 4.66602 -72.333 3.99902 -109
c0 -178.667 -38.333 -358.334 -115 -539.001c-88.667 -214.667 -204.667 -391.334 -348 -530.001c-109.333 -104 -205 -156 -287 -156c-44 0.666992 -72.667 16.667 -86 48zM-941.998 -1116c6.66699 -10.667 17.002 -18.3311 31.002 -22.998c9.33301 -2 18.666 -3 27.999 -3
c66.667 0 150.667 49 252 147c139.333 131.333 254.666 306.666 345.999 525.999c71.333 172 107.333 342 108 510c0 42.667 -2.33301 85 -7 127c-330.667 -423.333 -537.667 -715 -621 -875c-38 -68 -67.333 -125.333 -88 -172c-37.333 -86 -56 -151.333 -56 -196
c0 -16.667 2.33301 -30.334 7 -41.001zM74.0039 494.007c154 76.667 273.333 142.001 358 196.001c574.667 376.667 921.667 733.667 1041 1071c4 4 8.66699 17.667 14 41c4 18 8.66699 48.667 14 92c1.33301 8.66699 2 17.334 2 26.001
c0 25.333 -4.66699 49.666 -14 72.999c-9.33301 24.667 -29 39 -59 43c-4 0.666992 -8 0.666992 -12 0c-34.667 0 -69 -18 -103 -54c-5.33301 -6.66699 -14.833 -17.834 -28.5 -33.501l-59.5 -69.5l-76 -87l-371 -438l-463 -557z" />
    <glyph glyph-name="g" unicode="g" horiz-adv-x="1560" 
d="M-575 -1155c-8.66699 16 -12.998 33.998 -12.998 53.998c0 47.333 24 105 72 173c56 78 140.667 165.333 254 262c263.333 228 561.666 430.333 894.999 607l74 106c36.667 56 83 115.333 139 178c-88.667 -68 -155 -115 -199 -141c-138 -84.667 -259.333 -127 -364 -127
c-84 0 -158 24.667 -222 74c-62.667 48 -98 113.333 -106 196c-1.33301 10.667 -2 21.667 -2 33c0 138 96.333 289 289 453c276 233.333 533.333 350 772 350c49.333 0 94.333 -4.16699 135 -12.5s81.667 -26.833 123 -55.5c38 -27.333 64 -64.666 78 -111.999
c3.33301 -14 4.66602 -28.667 3.99902 -44c0 -84 -49.333 -181.333 -148 -292c126.667 86 229 148 307 186c12 4 20.333 0.666992 25 -10c4 -9.33301 1.33301 -17.666 -8 -24.999c-4 0 -16.333 -5.33301 -37 -16l-104 -59c-34 -19.333 -80.667 -49.666 -140 -90.999
c-208.667 -144.667 -379.334 -313 -512.001 -505c-22 -30 -33.667 -46.667 -35 -50c96.667 45.333 161.667 73.333 195 84c96.667 35.333 199.667 85.333 309 150c102.667 61.333 186 114.666 250 159.999c57.333 40.667 89.333 64.334 96 71.001c12 8 21 7.33301 27 -2
c3.33301 -4 5 -8 5 -12c0 -4.66699 -3 -9.33398 -9 -14.001c-53.333 -42 -122.333 -91.333 -207 -148c-169.333 -109.333 -321.666 -188.333 -456.999 -237c-68 -24.667 -152.667 -63 -254 -115c-122.667 -176 -259 -356.333 -409 -541
c-182.667 -222.667 -329.667 -381 -441 -475c-8 -8 -22.333 -19.667 -43 -35c-27.333 -20.667 -60 -39.667 -98 -57c-43.333 -20.667 -82.333 -31 -117 -31c-58 0 -99.333 23.333 -124 70zM-542.998 -1137c19.333 -34 45.998 -51.666 79.998 -52.999h11
c30.667 0 62.667 8.33301 96 25c32.667 16.667 63.334 34.334 92.001 53.001c20.667 13.333 36.334 25.666 47.001 36.999c102.667 90 225 219 367 387c152.667 181.333 297.334 369 434.001 563c-303.333 -166.667 -578 -356.334 -824 -569.001
c-118.667 -104 -200.334 -188.667 -245.001 -254c-43.333 -63.333 -65.333 -114 -66 -152c0 -14 2.66699 -26.333 8 -37zM-8 230.999c8 -72 38.668 -129.331 92.001 -171.998c52 -40.667 118.333 -62.334 199 -65.001c55.333 0 112.666 10.333 171.999 31
c56 19.333 120 53.333 192 102c65.333 44 119.333 83 162 117c39.333 30 96 75.667 170 137c225.333 188 338 340.333 338 457c0 12.667 -1.33301 24.667 -4 36c-12 55.333 -47 94.333 -105 117c-58.667 23.333 -123.334 35 -194.001 35
c-229.333 0 -478.666 -113.333 -747.999 -340c-108 -91.333 -184.333 -179.333 -229 -264c-31.333 -56.667 -47 -109.667 -47 -159c0 -10.667 0.666992 -21.334 2 -32.001z" />
    <glyph glyph-name="h" unicode="h" horiz-adv-x="1585" 
d="M-242 8c79.333 206 200.338 436 363.005 690l133 199l10 14c91.333 131.333 204.666 282.333 339.999 453c155.333 195.333 304.333 366.666 447 513.999c128.667 136.667 216 216.667 262 240c29.333 14 57 21 83 21c14.667 0 29.334 -2.33301 44.001 -7
c31.333 -10.667 55 -32 71 -64c4 -5.33301 7.66699 -16 11 -32c2.66699 -13.333 4 -24.333 4 -33c0 -13.333 -0.666992 -23.666 -2 -30.999l-6 -30c-1.33301 -6.66699 -5 -15.667 -11 -27c-1.33301 -1.33301 -3 -4.83301 -5 -10.5s-3.66699 -9.83398 -5 -12.501l-8 -16
l-6 -12l-4 -6c-109.333 -147.333 -311.666 -335.333 -606.999 -564c-170.667 -128.667 -364.334 -265 -581.001 -409c-182.667 -266 -323.334 -502.333 -422.001 -709c105.333 144.667 170 232 194 262c105.333 131.333 205 243.333 299 336
c118.667 116 226.667 198.667 324 248c1.33301 1.33301 9 4.66602 23 9.99902c24.667 10.667 45.167 18.834 61.5 24.501s44.166 13.167 83.499 22.5c44 7.33301 81 11 111 11c15.333 0 29.666 -1 42.999 -3c57.333 -6.66699 107 -27 149 -61
c49.333 -40.667 74 -91.667 74 -153c0 -52.667 -16.333 -111 -49 -175c-34.667 -67.333 -65.334 -116.333 -92.001 -147c-27.333 -31.333 -51.333 -57.333 -72 -78c-50.667 -50.667 -97 -104 -139 -160c-77.333 -96.667 -116 -167.667 -116 -213c0 -7.33301 1 -14 3 -20
c8 -15.333 24.333 -25 49 -29c11.333 -1.33301 22.666 -2 33.999 -2c80.667 0 176.667 31.333 288 94c118.667 68 270.667 180.667 456 338c9.33301 8 18.333 7.33301 27 -2c4 -4.66699 6 -9.33398 6 -14.001c0 -5.33301 -2.66699 -9.33301 -8 -12
c-182.667 -154 -337.667 -268 -465 -342c-112.667 -65.333 -214.334 -98 -305.001 -98c-12.667 0 -25 0.333008 -37 1c-45.333 4 -72.666 22.667 -81.999 56c-2.66699 8.66699 -4 18.334 -4 29.001c0 56 41.667 135 125 237c9.33301 13.333 44.666 53 105.999 119
c44 46.667 84.333 92.334 121 137.001c28.667 35.333 56 80.333 82 135c23.333 50.667 35 98.334 35 143.001c0 52.667 -19.667 95.667 -59 129c-43.333 36 -94.666 54.333 -153.999 55c-8.66699 0 -17.667 -0.333008 -27 -1
c-69.333 -6.66699 -126.666 -17.667 -171.999 -33c-50.667 -18 -77.334 -28.333 -80.001 -31c-170.667 -84.667 -374 -276.334 -610 -575.001c-79.333 -101.333 -130.333 -169 -153 -203l-111 -162c-24.667 -36.667 -37 -55.667 -37 -57zM350.005 967
c560 376.667 926.002 680.999 1098 912.999c2.66699 2.66699 8.66699 12.334 18 29.001c5.33301 10.667 13 31.667 23 63c2.66699 10 4 19.667 4 29c0 17.333 -4.66699 34.333 -14 51c-14 34 -39.333 51 -76 51h-6c-18.667 0 -41.334 -6 -68.001 -18
c-40.667 -19.333 -128 -100 -262 -242c-148.667 -158.667 -293.334 -326.667 -434.001 -504c-80.667 -96.667 -175 -220.667 -283 -372z" />
    <glyph glyph-name="i" unicode="i" horiz-adv-x="876" 
d="M-127 102c-4.66699 15.333 -7 32.335 -7 51.002c0 21.333 3 45.333 9 72c10.667 50.667 32 102.667 64 156l84 141c39.333 60 71.333 105.667 96 137c4 5.33301 10.667 15 20 29l142 195c52 68 91.333 117.667 118 149l23.5 27.5l17.5 20.5l6 7
c5.33301 9.33301 14.333 10.333 27 3c9.33301 -5.33301 10 -14.333 2 -27l-6 -7l-17.5 -20.5l-23.5 -27.5c-5.33301 -5.33301 -45 -55.333 -119 -150c-51.333 -65.333 -98.333 -128.666 -141 -189.999c-112 -162.667 -183.667 -276.667 -215 -342
c-32.667 -68.667 -49 -127.334 -49 -176.001c0 -14 1.33301 -27 4 -39c12 -44 62.333 -66 151 -66c110.667 0 239 40.333 385 121c148.667 82 288 179.667 418 293c10.667 9.33301 19.667 8.66602 27 -2.00098c2.66699 -4.66699 4 -9 4 -13
c0 -4.66699 -2 -9.33398 -6 -14.001c-333.333 -281.333 -609.333 -422 -828 -422c-110.667 0 -172.667 31.333 -186 94zM545 1350c0 28.667 10 51.667 30 69c22 19.333 45.333 29 70 29c26 0 48.667 -9.66699 68 -29c20.667 -20.667 30.667 -43.667 30 -69
c0 -24.667 -9.33301 -48 -28 -70c-18 -20.667 -41.333 -31 -70 -31c-26 0 -49.167 10.333 -69.5 31s-30.5 44 -30.5 70z" />
    <glyph glyph-name="j" unicode="j" horiz-adv-x="649" 
d="M-1364 -1124c-3.33301 14 -5.00391 27.998 -5.00391 41.998c0 46.667 18 95.334 54 146.001c75.333 105.333 183.333 209.666 324 312.999c128.667 94 309.334 211.667 542.001 353c36.667 56 134.334 213.667 293.001 473l252 428l193 332
c40.667 70.667 63 111.334 67 122.001c8 10 16.333 12.333 25 7c10.667 -4 13.334 -12.333 8.00098 -25c-2.66699 -8 -25 -48.333 -67 -121l-193 -334l-254 -430l-252 -409l70 41l354 211c76.667 46.667 177 113.334 301 200.001c113.333 79.333 211 158 293 236
c9.33301 9.33301 18.333 9.33301 27 0c4 -4 6 -8.16699 6 -12.5s-2 -9.16602 -6 -14.499c-76.667 -70.667 -175 -149 -295 -235c-91.333 -66.667 -193 -134.334 -305 -203.001l-357 -215l-131 -78c-229.333 -362 -412.333 -617.333 -549 -766
c-106.667 -106.667 -196 -160 -268 -160c-71.333 0.666992 -113.666 33.667 -126.999 99zM-1327 -1114c6.66699 -28.667 18.334 -48.6689 35.001 -60.002c14 -9.33301 29.333 -13.666 46 -12.999c5.33301 0 11 0.333008 17 1c26 4 49.333 11 70 21
c23.333 10.667 43 22.334 59 35.001c31.333 24.667 49 39 53 43l37 36l13 13c124 134 292.333 366.667 505 698c-191.333 -116 -355 -224 -491 -324c-130 -95.333 -231 -193.333 -303 -294c-30.667 -42 -46.334 -81.667 -47.001 -119c0.666992 -12.667 2.66699 -25 6 -37z
M405.996 1352c0 27.333 10.001 51.001 30.001 71.001c19.333 19.333 42.666 29 69.999 29c28.667 0 51.667 -9.66699 69 -29c19.333 -22 29 -45.667 29 -71c0 -28.667 -9.66699 -52 -29 -70c-22 -19.333 -45.167 -29 -69.5 -29s-47.5 9.66699 -69.5 29
c-20 19.333 -30 42.666 -30 69.999z" />
    <glyph glyph-name="k" unicode="k" horiz-adv-x="1372" 
d="M-195 -10c49.333 133.333 149.669 329.998 301.002 589.998c98 169.333 236.667 383 416 641l160 227l145 203l113 153l82 107l27 37c12 18 27 36.333 45 55c23.333 24.667 57.333 52 102 82c46.667 30 91 45 133 45h2c50.667 -1.33301 93.667 -26.666 129 -75.999
c14 -19.333 21.333 -42.333 22 -69c0 -37.333 -14 -83.333 -42 -138c-36.667 -72.667 -97.667 -156 -183 -250c-96.667 -109.333 -224.334 -234 -383.001 -374l-280 -228c68 24.667 129.333 44.667 184 60c76 18.667 142.667 27.667 200 27
c64.667 0 118.334 -11.667 161.001 -35c58.667 -32.667 92 -81.334 100 -146.001c1.33301 -10.667 2 -21.334 2 -32.001c0 -54 -17.667 -102 -53 -144c-36.667 -49.333 -92.667 -91 -168 -125s-151 -54.333 -227 -61c-18.667 -1.33301 -38 -2.33301 -58 -3
c-73.333 0 -155.333 11.667 -246 35c-35.333 9.33301 -75.333 23 -120 41c-12 -40.667 -23 -91.667 -33 -153c-6 -42.667 -9 -82 -9 -118c0 -78.667 14 -144 42 -196c46.667 -88 130 -132 250 -132c40.667 0 85.667 5.33301 135 16c72.667 15.333 160 55.666 262 120.999
c95.333 60 212 152.667 350 278c9.33301 9.33301 18.333 9.33301 27 0c5.33301 -9.33301 4.66602 -18.333 -2.00098 -27c-262 -241.333 -472.333 -377 -631 -407c-54 -10.667 -103.333 -16 -148 -16c-57.333 0 -107 8.66699 -149 26c-50.667 22 -93 63.667 -127 125
c-30 60 -45 133 -45 219c0 36.667 2.66699 75.667 8 117c2.66699 20.667 8 50 16 88c2.66699 10.667 6.5 23.834 11.5 39.501s7.5 25.167 7.5 28.5l6 22l6 19l21 -9l8 -4c12 -4 19.333 -6.66699 22 -8c9.33301 -4 20.333 -8 33 -12l21.5 -7.5
c10.333 -3.66699 18.166 -6.16699 23.499 -7.5s13.833 -4 25.5 -8s21 -6.66699 28 -8s17 -3 30 -5s22.167 -3.66699 27.5 -5c26 -5.33301 47.667 -8.66602 65 -9.99902l68 -7c16.667 0 39.667 1.33301 69 4c80.667 6.66699 152.667 25.334 216 56.001
c69.333 34 121 73 155 117c28 34.667 42.333 74.667 43 120c0 8.66699 -0.666992 17.667 -2 27c-5.33301 54.667 -32 94.334 -80 119.001c-30 18 -70.333 28 -121 30c-8.66699 0.666992 -17 1 -25 1c-38 0 -76.667 -3.66699 -116 -11
c-50.667 -9.33301 -95.667 -20.333 -135 -33c-35.333 -10.667 -69.333 -22 -102 -34c-8 -2.66699 -16.5 -6.16699 -25.5 -10.5s-14.167 -6.5 -15.5 -6.5c-181.333 -75.333 -354.333 -250 -519 -524c-94 -162 -167.667 -311.667 -221 -449zM303.003 824.998
c207.333 146 389.666 287.998 546.999 425.998c157.333 136.667 284.333 260.334 381 371.001c84.667 94 143.334 174.667 176.001 242c24.667 46.667 37 86.334 37 119.001c0 20 -4.66699 37 -14 51c-27.333 38 -61 57.667 -101 59c-78 0 -162 -56 -252 -168l-524 -727z
" />
    <glyph glyph-name="l" unicode="l" horiz-adv-x="1089" 
d="M-82 289c76.667 218.667 246.001 526.331 508.001 922.998l170 244l129 180c27.333 36.667 43 57.334 47 62.001c0 2.66699 9 13.667 27 33l78 84c34.667 36.667 69.334 69.334 104.001 98.001c70.667 61.333 132.667 103 186 125c37.333 16.667 71.666 25 102.999 25
c30 0 56.667 -7.66699 80 -23c38 -24.667 59 -61.667 63 -111c0.666992 -6 1 -11.667 1 -17c0 -92.667 -59.667 -222.667 -179 -390c-112.667 -153.333 -241.667 -294.666 -387 -423.999c-170 -149.333 -434.333 -346 -793 -590c-36.667 -74 -70.667 -152 -102 -234
c-1.33301 -4 -3 -10.333 -5 -19s-3.66699 -15 -5 -19c-2 -9.33301 -3.33301 -22 -4 -38c0 -10 0.666992 -22.667 2 -38c2.66699 -36.667 12.667 -65.334 30 -86.001c36.667 -39.333 87 -59 151 -59c40.667 0 86.667 8 138 24c164 49.333 308 106.666 432 171.999
c125.333 66.667 256.333 153.334 393 260.001c10.667 5.33301 19.667 4.66602 27 -2.00098c8 -9.33301 7.33301 -18.333 -2 -27c-143.333 -109.333 -279.333 -198.666 -408 -267.999c-126.667 -68 -271.334 -125.333 -434.001 -172c-42 -13.333 -92.333 -20 -151 -20
c-78 0 -136 22.333 -174 67c-30.667 34 -46 76 -46 126c0 34.667 7 72.667 21 114zM90.001 574.997c350.667 244.667 594.999 428.333 732.999 551c148.667 132.667 276.334 272 383.001 418c113.333 156 170.333 278.667 171 368c0 4.66699 -0.333008 9 -1 13
c-2.66699 38 -18.334 66 -47.001 84c-17.333 11.333 -37.666 17 -60.999 17c-66.667 0 -154 -46.667 -262 -140l-64 -59l-55 -55l-45 -48c-6.66699 -6.66699 -17 -18 -31 -34l-10 -15l-49 -65l-129 -178l-166 -240c-154.667 -238 -277 -443.667 -367 -617z" />
    <glyph glyph-name="m" unicode="m" horiz-adv-x="2533" 
d="M-514 -10l83.998 85.999l188 190c72 72 123.333 125.333 154 160c261.333 290.667 392 475.334 392 554.001c0 4 -0.333008 7.66699 -1 11c-4 9.33301 -10.667 16.333 -20 21c-10 4 -14.333 12 -13 24c3.33301 8 8.66602 12 15.999 12c2.66699 0 5.66699 -0.333008 9 -1
c24.667 -10.667 39 -27.334 43 -50.001c1.33301 -5.33301 2 -11 2 -17c0 -52.667 -39 -131.667 -117 -237c-40.667 -60 -100 -134.333 -178 -223l57 47c182.667 154 356.334 277.667 521.001 371c95.333 53.333 176.333 87.333 243 102c47.333 12 89.333 18 126 18
c94 0 153.667 -39.333 179 -118c6 -20.667 9.33301 -43.334 10 -68.001c0 -67.333 -23 -149.666 -69 -246.999c-9.33301 -22 -29 -59.667 -59 -113c1.33301 1.33301 4 4.33301 8 9s7.33301 8.33398 10 11.001l19 19c152.667 152.667 292.334 270 419.001 352
c134 85.333 256 128 366 128c16 0 32 -1 48 -3c69.333 -9.33301 114.333 -38.666 135 -87.999c7.33301 -18.667 11.333 -39.334 12 -62.001c0 -111.333 -92 -271 -276 -479c-101.333 -118 -152 -205.333 -152 -262c0 -14 3 -26.333 9 -37
c19.333 -31.333 54.666 -49 105.999 -53c10.667 -0.666992 21.667 -1 33 -1c37.333 0 75 5 113 15c49.333 13.333 91 27.666 125 42.999c158.667 68 324.334 185.667 497 353c9.33301 9.33301 18.333 9.33301 27 0c4 -4 6 -8.16699 6 -12.5s-2 -9.16602 -6 -14.499
c-188.667 -177.333 -359.334 -297.333 -512.001 -360c-49.333 -20.667 -98.666 -37.334 -147.999 -50.001c-30.667 -8 -63.667 -11.667 -99 -11c-18.667 0 -38 1 -58 3c-54.667 5.33301 -93.667 28.666 -117 69.999c-8 14.667 -12.333 31.667 -13 51
c0 23.333 6.33301 50 19 80c19.333 52 67 122.333 143 211c117.333 135.333 196 248 236 338c19.333 43.333 29 81.333 29 114c0 18 -3 34.667 -9 50c-8 18 -20.667 33 -38 45c-16.667 10.667 -31 17.334 -43 20.001c-13.333 2.66699 -21 4 -23 4
c-12.667 1.33301 -25.667 2 -39 2c-102.667 0 -220 -41.667 -352 -125c-125.333 -80.667 -262.666 -196.667 -411.999 -348c-64 -64 -128.667 -133.667 -194 -209c-22 -23.333 -64.333 -75 -127 -155c-60 -76.667 -106 -132.667 -138 -168l-28 22
c22.667 22.667 110.667 131.334 264 326.001c80.667 110.667 142.667 211 186 301c42.667 88 64 163.333 64 226c0 22.667 -2.66699 43.667 -8 63c-6.66699 22 -15 38.333 -25 49c-12 13.333 -23 22.333 -33 27l-12 6c-23.333 8 -49 11.667 -77 11
c-78.667 0 -176.667 -29.667 -294 -89c-165.333 -83.333 -355 -215 -569 -395c-121.333 -98 -241.666 -206 -360.999 -324l-251 -250z" />
    <glyph glyph-name="n" unicode="n" horiz-adv-x="1744" 
d="M-354 8l153 208.997c60 80.667 116.667 162 170 244c182.667 273.333 274.334 447.666 275.001 522.999c0 8.66699 -1.33301 16 -4 22c-4 10.667 -1.33301 18.667 8 24c10.667 4 18.667 1.33301 24 -8c4.66699 -9.33301 7 -20.666 7 -33.999c0 -44 -23.333 -112 -70 -204
c-52 -95.333 -112.667 -197 -182 -305l90 92c166.667 162.667 325 283 475 361c146 76 283.333 114 412 114c41.333 0 82 -4 122 -12c75.333 -16.667 122.666 -50.667 141.999 -102c5.33301 -16.667 8 -30.334 8 -41.001c0 -9.33301 -1.33301 -23.666 -4 -42.999
c-1.33301 -9.33301 -4.66602 -23.666 -9.99902 -42.999c-4 -12 -9.66699 -25.667 -17 -41c-2.66699 -4 -6 -10.167 -10 -18.5s-7.33301 -14.5 -10 -18.5s-6.5 -10.167 -11.5 -18.5s-8.16699 -13.166 -9.5 -14.499l-16 -26c-5.33301 -8 -10 -14.333 -14 -19l-7 -6l-20 -29
l-62 -79c-18 -23.333 -41.667 -57 -71 -101c-82.667 -128.667 -124.334 -227.667 -125.001 -297c0 -11.333 1.33301 -22.333 4 -33c6 -28.667 24.333 -49 55 -61c16 -6 34.333 -9 55 -9c94.667 0 234.667 65 420 195c56 38 108.667 77 158 117l48 38l46.5 37l30.5 25
c27.333 23.333 41 36.333 41 39c10.667 9.33301 19.667 8.66602 27 -2.00098c2.66699 -4.66699 4 -9 4 -13c0 -4.66699 -2 -9 -6 -13c-100.667 -90 -209.334 -176 -326.001 -258c-195.333 -134 -343.666 -201 -444.999 -201c-26.667 0 -49 4 -67 12
c-40.667 16.667 -66.667 45.334 -78 86.001c-2.66699 12 -4 25 -4 39c0 76.667 43.667 183.334 131 320.001l72 102l61 82l25 27l35 45c9.33301 12 25 44.667 47 98c10.667 26.667 16 51 16 73c0 13.333 -2 26 -6 38c-12 39.333 -50.333 65 -115 77
c-38.667 8 -78.334 12 -119.001 12c-253.333 0 -538.666 -154 -855.999 -462c-106.667 -104 -211 -221.333 -313 -352c-102.667 -133.333 -154 -203 -154 -209z" />
    <glyph glyph-name="o" unicode="o" horiz-adv-x="1771" 
d="M-37 258c-1.33301 9.33301 -1.83691 18.167 -1.50391 26.5s0.833008 16.5 1.5 24.5c0 5.33301 0.333008 12.5 1 21.5s1.66699 15.5 3 19.5c0 4 0.333008 9.16699 1 15.5s1.66699 10.833 3 13.5l2 10c34 131.333 120.667 265.333 260 402c120 116 242.333 202 367 258
c105.333 45.333 196.666 69.666 273.999 72.999c12.667 0.666992 25.334 1 38.001 1c57.333 0 109.666 -7.66699 156.999 -23l31 -13c4 -1.33301 9 -3.66602 15 -6.99902s9.66699 -5.66602 11 -6.99902l25 -12c2.66699 -1.33301 6 -4 10 -8s6.66699 -7 8 -9
c2.66699 -2.66699 5.83398 -5 9.50098 -7s6.16699 -3.66699 7.5 -5l10 -10l8 -8l6 -6l2 -4c4 -8 4 -15.667 0 -23c19.333 -4 35.333 -13.667 48 -29c14.667 -16 22 -39 22 -69c0 -20 -3.33301 -43.333 -10 -70c-18 -62.667 -61.667 -143.334 -131 -242.001
c-46.667 -61.333 -83 -106.333 -109 -135c91.333 -88 198 -131.667 320 -131h24c136.667 6.66699 264.334 57.334 383.001 152.001c9.33301 8 18.333 6.66699 27 -4c2.66699 -4.66699 4 -9 4 -13s-2 -8 -6 -12c-121.333 -92.667 -245.666 -145.334 -372.999 -158.001
c-16.667 -1.33301 -33 -2 -49 -2c-59.333 0 -117.333 9 -174 27c-68 22 -128 59.667 -180 113c-28.667 -32.667 -67 -71.667 -115 -117c-109.333 -101.333 -212.333 -177.333 -309 -228c-105.333 -56 -203.666 -83.667 -294.999 -83h-21
c-114.667 6.66699 -198 44.667 -250 114c-12 16.667 -22 35.334 -30 56.001c-9.33301 23.333 -15.666 41.666 -18.999 54.999c0 1.33301 -2 19 -6 53zM1.99609 332.001c-0.666992 -7.33301 -0.998047 -16.001 -0.998047 -26.001c0 -21.333 1.66699 -45.666 5 -72.999
c6.66699 -49.333 21 -88.666 43 -117.999c47.333 -61.333 121 -94.333 221 -99c8.66699 -0.666992 17.667 -1 27 -1c75.333 0 159.333 23.667 252 71c104 53.333 209.667 130.333 317 231c39.333 36.667 79.666 77.667 120.999 123c-16.667 27.333 -29 57.333 -37 90
c-8 36 -12 72.833 -12 110.5s4 75.5 12 113.5c13.333 62.667 36.666 113 69.999 151c35.333 44 77.666 70 126.999 78c5.33301 1.33301 16.333 2 33 2c-34 40.667 -75.667 68 -125 82c-42 13.333 -87 20 -135 20c-92.667 0 -194.667 -24.333 -306 -73
c-114.667 -50.667 -236.667 -137.334 -366 -260.001c-125.333 -118.667 -204.666 -243.667 -237.999 -375l-3 -19c-2 -12 -3.66699 -21.333 -5 -28zM984.998 745c-8 -38.667 -12 -75.3359 -12 -110.003c0 -61.333 13 -116.666 39 -165.999
c128.667 148.667 203.667 267.334 225 356.001c4 21.333 6 40 6 56c0 22 -4 38.333 -12 49c-9.33301 12 -26.333 18 -51 18c-47.333 -2 -88.333 -20.333 -123 -55c-32.667 -33.333 -56.667 -82.666 -72 -147.999z" />
    <glyph glyph-name="p" unicode="p" horiz-adv-x="1822" 
d="M-1018 -1051c8 82 56.667 203.663 146 364.996c98 180 215.333 364.333 352 553c162.667 220 335.334 425.333 518.001 616c157.333 161.333 316.333 305.333 477 432l92 166c19.333 35.333 43.333 76.333 72 123l20 37c4 6.66699 8.33301 10 13 10
c3.33301 0 7.33301 -1.33301 12 -4c12 -6 14 -14 6 -24c0 -1.33301 -46.333 -84.666 -139 -249.999c144.667 117.333 317.334 176 518.001 176c149.333 0 258 -41 326 -123c42 -50.667 65 -108 69 -172c0.666992 -8 1 -16 1 -24c0 -53.333 -12.667 -106.666 -38 -159.999
c-30 -62.667 -64.667 -119.334 -104 -170.001c-50.667 -64 -95.667 -114 -135 -150c-170 -151.333 -354.333 -247.666 -553 -288.999c-48 -9.33301 -91 -14 -129 -14c36.667 -9.33301 64.667 -14.666 84 -15.999c39.333 -4 101.333 -7.66699 186 -11h16
c57.333 0 125.666 9.66699 204.999 29c90 22 175.333 49.333 256 82c91.333 36.667 185.666 87.334 282.999 152.001c113.333 75.333 216.333 154.333 309 237c9.33301 8 18.333 8 27 0c4 -4.66699 6 -9.33398 6 -14.001c0 -5.33301 -2.66699 -9.33301 -8 -12
c-240 -216 -480.333 -363.667 -721 -443c-131.333 -43.333 -266.666 -65.666 -405.999 -66.999c-53.333 0 -106.333 4 -159 12c-92.667 12 -182.334 36 -269.001 72c-87.333 27.333 -161 69 -221 125l-422 -674c-174 -262 -307 -440.333 -399 -535l-8 -8l-14.5 -14.5
l-16.5 -16.5c-19.333 -16.667 -47.333 -37 -84 -61c-35.333 -23.333 -66.666 -35 -93.999 -35c-50 2 -75 28 -75 78c-0.666992 6.66699 -0.333984 14 0.999023 22zM-981 -1055c-0.666992 -6 -1 -11.334 -1 -16.001c0 -28.667 13.333 -43 40 -43c44 0 106.667 41 188 123
c168 172 455.667 598 863 1278l317 542c-324.667 -266 -629.667 -594.333 -915 -985c-139.333 -191.333 -255 -372.666 -347 -543.999c-88.667 -168.667 -137 -287 -145 -355zM115 224.995c49.333 -49.333 120.332 -90.334 212.999 -123.001
c47.333 -12 97.666 -18 150.999 -18c47.333 0 96.666 4.66699 147.999 14c195.333 39.333 374 133 536 281c58.667 53.333 101.667 98.333 129 135c34 45.333 65.333 98 94 158c24.667 51.333 37.334 104.333 38.001 159c0 4 -0.333008 8.33301 -1 13
c-1.33301 56 -21 109.333 -59 160c-56 72.667 -154.333 108.667 -295 108c-49.333 0 -97.666 -4 -144.999 -12c-49.333 -8 -87.666 -17 -114.999 -27c-35.333 -12 -69.333 -27 -102 -45c-44 -24.667 -70 -39.667 -78 -45
c-2.66699 -1.33301 -8.16699 -4.66602 -16.5 -9.99902s-17 -11.5 -26 -18.5l-27.5 -20.5l-55 -43l-365 -625z" />
    <glyph glyph-name="q" unicode="q" horiz-adv-x="1632" 
d="M-6 270c-1.33301 10.667 -2.00098 21.666 -2.00098 32.999c0 138.667 97 289.667 291 453c276 232 532.667 348 770 348c195.333 0 307.333 -60 336 -180c3.33301 -13.333 5 -27.666 5 -42.999c0 -63.333 -32 -139.333 -96 -228l97 62c94 52 183.333 83.333 268 94
c13.333 1.33301 20 -3.33398 20 -14.001c1.33301 -13.333 -4 -20.333 -16 -21c-143.333 -20.667 -302.333 -104 -477 -250c-6.66699 -5.33301 -34 -30.333 -82 -75l-96 -97l-41 -43l-8 -10c1.33301 -1.33301 2 -5.33301 2 -12c-13.333 -147.333 -47 -301.666 -101 -462.999
c-48 -140.667 -108.667 -278.667 -182 -414c-62.667 -113.333 -133.667 -220.333 -213 -321c-76.667 -98 -148.334 -169 -215.001 -213c-53.333 -35.333 -97.666 -53.333 -132.999 -54c-46.667 2.66699 -78.667 24 -96 64c-8 12 -12.333 28.667 -13 50
c0 8.66699 0.666992 18 2 28c4 31.333 8.33301 54.333 13 69c4 16.667 8 27.667 12 33c72.667 151.333 245.334 409.333 518.001 774l342 439c-76.667 -61.333 -147.667 -112 -213 -152c-136.667 -84.667 -258 -127 -364 -127c-84 0 -158 24.667 -222 74
c-62.667 48.667 -98 114 -106 196zM30.999 273.999c8 -72.667 39.334 -129.998 94.001 -171.998c56 -44 121.667 -65.667 197 -65c55.333 0 112.666 10.333 171.999 31c54.667 19.333 118 52.666 190 99.999c57.333 38 112 77 164 117l170 137
c2.66699 2.66699 9.16699 8.16699 19.5 16.5s18.833 15.833 25.5 22.5c30 27.333 45.667 41.666 47 42.999c163.333 152.667 245 278 245 376c0 12 -1 23.667 -3 35c-23.333 101.333 -123 152 -299 152c-233.333 0 -482.666 -113.333 -747.999 -340
c-108 -91.333 -184.333 -179.333 -229 -264c-30.667 -55.333 -46.334 -109 -47.001 -161zM57 -1100c18 -27.333 41.3311 -40.999 69.998 -40.999h6c28.667 1.33301 61.334 16.333 98.001 45c63.333 49.333 133 121 209 215c76.667 95.333 146.334 198.666 209.001 309.999
c150 272 241.667 546.333 275 823c-462.667 -582.667 -746.667 -982.667 -852 -1200c-18 -37.333 -27 -70.333 -27 -99c-0.666992 -19.333 3.33301 -37 12 -53z" />
    <glyph glyph-name="r" unicode="r" horiz-adv-x="1333" 
d="M8 430c-2.66699 4.66699 -3.99707 8.99512 -3.99707 12.9951c0 4.66699 2 9.33398 6 14.001c147.333 132.667 291.333 314 432 544c2.66699 2.66699 5 5.66699 7 9c0 1.33301 0.333008 3 1 5s1.66699 3.66699 3 5l2 4c-38.667 28.667 -58 65.334 -58 110.001
c0 9.33301 0.666992 19 2 29c5.33301 42 28.666 63.333 69.999 64c31.333 0 53.333 -14.333 66 -43c2.66699 -8.66699 3.66699 -18.334 3 -29.001c0 -31.333 -11.333 -71.666 -34 -120.999c56 -31.333 131.667 -49 227 -53c79.333 0 127 -17 143 -51
c5.33301 -10 8.33301 -21.333 9 -34c0 -24 -11 -52.333 -33 -85l-94 -129c-126.667 -169.333 -213.334 -297.666 -260.001 -384.999c-35.333 -74 -55.333 -133.333 -60 -178c-0.666992 -8.66699 -1 -17 -1 -25c0 -83.333 49.667 -125 149 -125c44 0 108 15 192 45
c160 56 326.667 137.333 500 244c10.667 6.66699 18.667 5.33398 24 -3.99902c2 -4 3.33301 -7.66699 4 -11c0 -5.33301 -3.33301 -10.666 -10 -15.999c-180 -112 -348.667 -194.333 -506 -247c-92.667 -31.333 -165 -47.333 -217 -48h-10
c-57.333 2 -100.333 20.667 -129 56c-22.667 28 -34 63 -34 105c0 9.33301 0.333008 19.333 1 30c4 53.333 25.333 116.666 64 189.999c39.333 79.333 126.666 210 261.999 392c20.667 24.667 52 66.667 94 126c18 25.333 27 46.333 27 63
c0 6.66699 -1.33301 12.334 -4 17.001c-12 22 -48.333 33 -109 33c-18 0 -34.333 0.666992 -49 2c-22 1.33301 -53.333 7.66602 -94 18.999c-42 10.667 -76.333 22.667 -103 36c-6.66699 -8 -10.667 -14.667 -12 -20c-124 -216 -270.667 -400.333 -440 -553
c-11.333 -9.33301 -20.333 -8.66602 -27 2.00098zM438.003 1155c-0.666992 -3.33301 -0.667969 -7.33301 -0.000976562 -12c0 -13.333 2 -27.666 6 -42.999c5.33301 -20.667 15 -35 29 -43c19.333 38.667 29 69 29 91c0 8.66699 -1.33301 15.667 -4 21
c-5.33301 13.333 -15.666 20.333 -30.999 21c-15.333 -2.66699 -25 -14.334 -29 -35.001z" />
    <glyph glyph-name="s" unicode="s" horiz-adv-x="1105" 
d="M-18 444c-4 4 -6 7.99707 -6 11.9971c0 4.66699 2.66699 9 8 13c6.66699 6.66699 34 31.334 82 74.001l215 186l247 209c0 140.667 24 232.667 72 276c22.667 21.333 46.667 32.333 72 33c10.667 0 21.667 -2 33 -6c27.333 -8 43.666 -25 48.999 -51c2 -8 3 -16 3 -24
c0 -24 -8.66699 -50.333 -26 -79c-23.333 -36.667 -45 -64.334 -65 -83.001c-13.333 -12 -42.666 -36 -87.999 -72c-4 -2.66699 -8.33301 -6 -13 -10v-13c2.66699 -65.333 8.33398 -131.333 17.001 -198c8.66699 -76.667 12.667 -139.667 12 -189v-26
c46.667 19.333 87.667 35 123 47c49.333 16.667 81.333 26.667 96 30l35 11c109.333 32 210.333 48 303 48c15.333 0 30.333 -0.333008 45 -1c12 0 18 -6.16699 18 -18.5s-6 -18.5 -18 -18.5c-14 0.666992 -28 1 -42 1c-86 0 -184.667 -15.333 -296 -46
c-88.667 -26 -176.667 -57.333 -264 -94v-23c0 -4 -0.333008 -8 -1 -12s-1 -6.66699 -1 -8c-12 -202.667 -57 -338 -135 -406c-33.333 -28 -75 -42 -125 -42c-9.33301 0 -19 0.333008 -29 1c-64 6.66699 -107 33.334 -129 80.001c-10.667 22.667 -16 47 -16 73
c0 28.667 6.66699 58.334 20 89.001c36.667 88.667 159.667 178 369 268c2.66699 0 4.66699 0.666992 6 2l4 2v23c0 38 -4 105.667 -12 203c-4 44 -9 106 -15 186c-307.333 -258 -481.333 -407.667 -522 -449c-10.667 -9.33301 -19.334 -8.66602 -26.001 2.00098z
M207 60.9971c18 -36.667 54.001 -57 108.001 -61c7.33301 -0.666992 14.666 -1 21.999 -1c42 0 74.333 11.333 97 34c74 64 115 199.667 123 407c-198 -82 -313.333 -165.333 -346 -250c-11.333 -28 -17 -53 -17 -75c0 -20 4.33301 -38 13 -54zM565.001 966.997
c28.667 19.333 58.001 43.666 88.001 72.999c45.333 48.667 68 89.334 68 122.001c0 6 -0.666992 12 -2 18c-4 13.333 -13.667 22 -29 26c-4.66699 1.33301 -9.33398 2 -14.001 2c-16 0 -33 -7.33301 -51 -22c-36 -31.333 -56 -104.333 -60 -219z" />
    <glyph glyph-name="t" unicode="t" horiz-adv-x="1357" 
d="M-51 422c-2 4 -3.32812 7.6709 -3.99512 11.0039c0 5.33301 3.33301 11.333 10 18l324 274l319 258l127 102c-138 0 -286.667 8.33301 -446 25c-12 2.66699 -18.167 9.5 -18.5 20.5s5.83398 16.5 18.501 16.5c13.333 0 24.666 -0.666992 33.999 -2
c147.333 -12 290.666 -20.333 429.999 -25c273.333 512 472.666 850 597.999 1014c24.667 32.667 46 56 64 70c8 5.33301 16.667 8 26 8c6.66699 0 13.667 -1.33301 21 -4c6.66699 -5.33301 12 -11.666 16 -19c2.66699 -7.33301 4.33398 -16 5.00098 -26
c0 -26.667 -9.66699 -63.667 -29 -111c-76.667 -196.667 -218.667 -426 -426 -688c-86 -105.333 -155 -187.333 -207 -246c72 -0.666992 134 -1 186 -1c106.667 0 195.667 1.66699 267 5c12 0 18 -6.16699 18 -18.5s-6 -18.5 -18 -18.5c-88.667 -4 -180.334 -6 -275.001 -6
c-12 0 -82.333 1.33301 -211 4c-1.33301 -1.33301 -3.33301 -3.66602 -6 -6.99902s-5.33398 -6.33301 -8.00098 -9l-14 -14l-193 -367l-151 -293c-34 -66.667 -51.333 -101.334 -52 -104.001c0 -1.33301 -1.33301 -3.83301 -4 -7.5s-4.66699 -6.83398 -6 -9.50098
c-2.66699 -4 -7.33398 -18.333 -14.001 -43l-17 -59c-4 -20.667 -5.33301 -41 -4 -61c2.66699 -23.333 9.66699 -42 21 -56c24.667 -33.333 71.334 -50 140.001 -50c29.333 0 62.333 3 99 9c109.333 19.333 223.333 61.666 342 126.999
c122.667 67.333 217 126.666 283 177.999c78 60 138.667 110 182 150c10.667 9.33301 19.667 8.66602 27 -2.00098c6.66699 -9.33301 6 -18.333 -2 -27c-116 -104 -241.667 -197.333 -377 -280c-158.667 -96.667 -308.334 -157.667 -449.001 -183
c-45.333 -6.66699 -80 -10 -104 -10c-82 0 -138.667 22.667 -170 68c-18 23.333 -27.667 50 -29 80c-0.666992 5.33301 -0.666992 10.333 0 15c0 24.667 3.66699 49.667 11 75c5.33301 20.667 12.666 43 21.999 67c5.33301 15.333 11 27 17 35l38.5 74l139 264.5
l200.5 378.5c-5.33301 -2.66699 -61.333 -47 -168 -133l-339 -279c-121.333 -101.333 -192.333 -164 -213 -188c-12.667 -12 -23 -12 -31 0zM821.005 1186l168 200c233.333 292 379.333 534.667 438 728c6.66699 22 10.334 38.333 11.001 49c0 4.66699 -0.666992 8 -2 10
s-3 3 -5 3s-4.66699 -1 -8 -3c-6.66699 -5.33301 -24.334 -26 -53.001 -62c-102.667 -132 -285.667 -440.333 -549 -925z" />
    <glyph glyph-name="u" unicode="u" horiz-adv-x="1716" 
d="M-82 274c46.667 124 146.999 297.666 300.999 520.999l105 147l84 115l28 37c5.33301 5.33301 10.666 8 15.999 8c3.33301 0 7 -1.33301 11 -4c10.667 -8 12 -17 4 -27l-14 -18l-41 -54l-58 -77l-69 -97l-76 -110l-78 -119c-18 -27.333 -42 -67 -72 -119
c-20.667 -34 -41 -72.333 -61 -115c-23.333 -46.667 -38.333 -80 -45 -100c-13.333 -38 -20 -70.833 -20 -98.5s6.66699 -50.167 20 -67.5c23.333 -30 58 -45.667 104 -47h18c44 0 89.333 7 136 21c53.333 15.333 101 31.666 143 48.999c38 15.333 73.667 31.666 107 48.999
c206 110.667 413.333 279.334 622 506.001l93 110l94 113c12 15.333 21.833 27.333 29.5 36s15.167 18.5 22.5 29.5s15.333 21.833 24 32.5c12 16.667 23.5 30.834 34.5 42.501s19.167 21.5 24.5 29.5l20 29l29 -25l-344 -424c-112 -139.333 -192.667 -266.333 -242 -381
c-25.333 -53.333 -38 -99.333 -38 -138c0 -19.333 3.33301 -36.666 10 -51.999c16 -38.667 54.667 -58.334 116 -59.001c8.66699 0 17.667 0.333008 27 1c62.667 5.33301 131.667 27.333 207 66c154 75.333 320 199 498 371c9.33301 8 18 8 26 0
c4 -5.33301 6 -10.166 6 -14.499s-2 -8.5 -6 -12.5c-176 -169.333 -345.333 -295 -508 -377c-92.667 -45.333 -176.667 -68.333 -252 -69c-3.33301 0 -6.66602 -0.333008 -9.99902 -1c-46 0 -83.667 12.333 -113 37c-25.333 22 -38 53 -38 93c0 8 0.666992 16 2 24
c6.66699 54.667 20.334 103.334 41.001 146.001c36.667 75.333 76 144.666 118 207.999l-47 -43c-146 -134 -290.667 -238.333 -434 -313c-150 -79.333 -280.333 -119 -391 -119c-75.333 0 -128 20 -158 60c-18.667 24 -28 54 -28 90c0 32 7.33301 68.667 22 110z" />
    <glyph glyph-name="v" unicode="v" horiz-adv-x="1757" 
d="M-68 168c0 49.333 15.001 106.662 45.001 171.995c49.333 108 112.333 224.667 189 350c90 150 135 252.667 135 308c0 20.667 -6 34.667 -18 42c-5.33301 4 -14.333 7.66699 -27 11c-9.33301 1.33301 -18.333 1.33301 -27 0c-10.667 -2.66699 -19.334 -5.5 -26.001 -8.5
s-15.667 -8.5 -27 -16.5l-24 -18l-21 -21l-10 -10c-4 -4 -6.66699 -7.33301 -8 -10c-2.66699 -2.66699 -5.5 -6.16699 -8.5 -10.5s-5.16699 -7.16602 -6.5 -8.49902c-4 -4 -6.66699 -7.33301 -8 -10l-4 -6c-5.33301 -9.33301 -13.666 -10.666 -24.999 -3.99902
c-10 6 -12 14 -6 24l4 6c1.33301 1.33301 3.16602 3.83301 5.49902 7.5s4.16602 6.16699 5.49902 7.5c2.66699 4 8 10 16 18c1.33301 1.33301 4.33301 4.83301 9 10.5s8.33398 9.83398 11.001 12.501c1.33301 1.33301 3.83301 4 7.5 8l9.50098 10s5.33398 4.66699 8.00098 6
c39.333 34 76.333 51.333 111 52c21.333 0 41.666 -6.33301 60.999 -19c20.667 -15.333 31 -39.333 31 -72c0 -40.667 -16.333 -96.667 -49 -168c-20.667 -46.667 -59.667 -116.667 -117 -210c-62.667 -105.333 -115.334 -204.333 -158.001 -297
c-28 -61.333 -41.667 -114 -41 -158c0 -36.667 9.66699 -66.667 29 -90c32 -40 76.333 -60 133 -60c16 0 33 1.33301 51 4c220 34 429 156.333 627 367c135.333 143.333 239 298.333 311 465c-56 49.333 -84 114.333 -84 195c-2 40.667 8.33301 73.334 31 98.001
c18 20 41.667 30 71 30c5.33301 0 11 -0.333008 17 -1c27.333 -4 47 -20.667 59 -50c4.66699 -14.667 7.33398 -31.334 8.00098 -50.001c0 -54 -19 -124 -57 -210c32.667 -22 73 -38.333 121 -49c23.333 -5.33301 47.333 -8 72 -8c44.667 0 91.667 8 141 24
c79.333 26 140 53.333 182 82c49.333 32.667 91 65 125 97c8 9.33301 17 9.33301 27 0c4 -4.66699 6 -9.33398 6 -14.001s-2.66699 -9 -8 -13c-65.333 -57.333 -140.333 -108.666 -225 -153.999c-84.667 -39.333 -164.334 -58.666 -239.001 -57.999
c-30.667 0 -60.334 3 -89.001 9c-50.667 10.667 -93 27 -127 49c-78 -168 -183 -324.333 -315 -469c-84.667 -88.667 -177 -165 -277 -229c-131.333 -83.333 -255 -131.666 -371 -144.999c-15.333 -2 -30.333 -3.33301 -45 -4c-53.333 0 -100.333 13.667 -141 41
c-49.333 32.667 -72.666 81 -69.999 145zM1075 1047c0 -64 20.666 -116.667 61.999 -158c32 81.333 48 143 48 185c0 14 -1.66699 26 -5 36c-6.66699 15.333 -17.667 24.333 -33 27c-3.33301 0.666992 -6.66602 0.666992 -9.99902 0c-13.333 0 -25 -3.66699 -35 -11
c-18 -12.667 -27 -35.667 -27 -69v-10z" />
    <glyph glyph-name="w" unicode="w" horiz-adv-x="1943" 
d="M-94 172c13.333 140.667 88.998 331.666 226.998 572.999l92 154c36.667 61.333 61.334 100.333 74.001 117l29 37c5.33301 9.33301 13.333 10.666 24 3.99902c9.33301 -5.33301 10.666 -13.666 3.99902 -24.999l-26 -39l-74 -114l-92 -152
c-132.667 -230.667 -205.667 -417 -219 -559c-0.666992 -7.33301 -1 -14.333 -1 -21c0 -52.667 20.667 -87.334 62 -104.001c22 -8.66699 46.333 -13 73 -13c56.667 0 126 19.333 208 58c30 15.333 68 38 114 68c34 23.333 71 53.333 111 90c36.667 34 69.334 66 98.001 96
c44 46.667 77 85.667 99 117l86 116c13.333 18 41.333 60.333 84 127l45 74l28 45l72 121l63 107l31 -21c-108 -188.667 -187 -345.667 -237 -471c-66.667 -162 -100.334 -288.667 -101.001 -380c0 -48.667 9.66699 -87.334 29 -116.001c27.333 -37.333 71 -56 131 -56
c17.333 0 35.666 1.66699 54.999 5c131.333 18 263.333 103.333 396 256c91.333 104 173.666 231 246.999 381c-36.667 38 -57.667 87.333 -63 148c-1.33301 13.333 -2 26.666 -2 39.999c0 50.667 9.66699 98 29 142c29.333 68 68 101.667 116 101
c5.33301 0 11 -0.333008 17 -1c18.667 -4 33 -14 43 -30c7.33301 -14 11 -32.333 11 -55c0 -34 -8.66699 -77.333 -26 -130c-20.667 -68 -47.334 -136.333 -80.001 -205c32.667 -24.667 75.334 -36.667 128.001 -36c54 0 118.667 12.667 194 38
c34.667 12 69.334 26.333 104.001 43c34 16.667 60 29.834 78 39.501s27 15.167 27 16.5c9.33301 4 18.333 2 27 -6c1.33301 -3.33301 2 -6.66602 2 -9.99902c0 -6 -3 -11.667 -9 -17c-106.667 -54.667 -179 -88 -217 -100c-70.667 -23.333 -133.334 -37 -188.001 -41
c-4.66699 0 -9.33398 -0.333008 -14.001 -1c-61.333 0 -110.666 13.333 -147.999 40c-78 -152.667 -161.333 -279.667 -250 -381c-65.333 -76 -130.666 -135.667 -195.999 -179c-74 -49.333 -147.333 -79.333 -220 -90c-22.667 -4 -43 -6 -61 -6
c-75.333 0 -129.333 24.667 -162 74c-22.667 34 -33.667 79 -33 135c0 98.667 33.667 230.334 101 395.001l16 37c-96.667 -143.333 -186.667 -258.666 -270 -345.999s-179.666 -156.333 -288.999 -207c-87.333 -41.333 -162.666 -62 -225.999 -62
c-31.333 0 -59.666 5 -84.999 15c-58 25.333 -87.333 71.333 -88 138zM1612 798.999c4 -46.667 18.333 -85 43 -115c4 12 8.66699 23.667 14 35l10 23.5c2.66699 6.33301 5 10.833 7 13.5c44 108 66 186.667 66 236c0 15.333 -2.33301 27.333 -7 36c-6 8 -14.333 12 -25 12
c-32.667 0 -60.667 -25.667 -84 -77c-18 -38 -27 -79 -27 -123c0 -13.333 1 -27 3 -41z" />
    <glyph glyph-name="x" unicode="x" horiz-adv-x="1536" 
d="M-203 -70c16.667 16.667 37.335 35.335 62.002 56.002l182 153l258 205c100 76.667 193.667 144.334 281 203.001c1.33301 4 3.66602 12.5 6.99902 25.5s8.66602 31.5 15.999 55.5l22 72c23.333 82 38.333 143 45 183c4.66699 24 7 44.333 7 61c0 25.333 -5 41 -15 47
c-10 8 -25.333 12.333 -46 13c-53.333 0 -145.333 -29.667 -276 -89c-86 -38 -206 -101.333 -360 -190c-10 -6 -18.333 -4 -25 6c-5.33301 9.33301 -3.33301 18.333 6 27c134 78 255.667 142 365 192c83.333 36.667 153 62 209 76c32 8 59.667 12 83 12
c28.667 0 50.667 -6 66 -18c19.333 -15.333 29 -42 29 -80c0 -18.667 -2 -39.667 -6 -63c-4 -18 -30.667 -117 -80 -297l184 122c211.333 134 408.666 240.667 591.999 320c10.667 4 18.667 1.33301 24 -8c4 -10.667 1.33301 -19 -8 -25c-251.333 -112 -521 -267 -809 -465
c-36 -130.667 -53.667 -236.334 -53 -317.001c0 -56.667 9 -100.334 27 -131.001c20.667 -34 52.667 -56.667 96 -68c22.667 -5.33301 46.667 -8 72 -8c80.667 0 179 27.333 295 82c143.333 69.333 303 180.666 479 333.999c9.33301 6.66699 18 6 26 -2c4 -4 6 -8 6 -12
c0 -4.66699 -2.66699 -9 -8 -13c-173.333 -152.667 -336.333 -266 -489 -340c-117.333 -57.333 -220.333 -86 -309 -86c-32.667 0 -59.334 2.66699 -80.001 8c-53.333 12 -93.666 40.667 -120.999 86c-22 36.667 -33 87.334 -33 152.001c0 75.333 15 169.666 45 282.999
c-70.667 -48 -151 -107.667 -241 -179l-259 -202l-178 -152c-34.667 -30.667 -55 -49 -61 -55l-12 -4c-5.33301 0 -10.166 2 -14.499 6s-6.5 8 -6.5 12s2 8 6 12z" />
    <glyph glyph-name="y" unicode="y" horiz-adv-x="1613" 
d="M-473 -1044c10.667 48 34.0039 92.999 70.0039 134.999c86 105.333 209.333 220 370 344c128.667 98 278.334 197.667 449.001 299c57.333 35.333 138.333 82.333 243 141l220 397c-186 -139.333 -350.667 -227.333 -494 -264c-56 -14.667 -107.333 -21.667 -154 -21
c-74.667 0 -138.667 18 -192 54c-52 32.667 -82 79 -90 139c-2 13.333 -3 27 -3 41c0 118.667 68.667 268.334 206 449.001c62.667 84.667 141.667 165 237 241c95.333 78 199 137.667 311 179c3.33301 1.33301 6.33301 1.66602 9 0.999023c6.66699 0 12 -4 16 -12
c4 -9.33301 0.666992 -17.333 -10 -24c-199.333 -74 -377 -209.333 -533 -406c-5.33301 -5.33301 -25 -32 -59 -80c-28.667 -39.333 -61.334 -100.666 -98.001 -183.999c-27.333 -61.333 -41.333 -116.666 -42 -165.999c0 -12 1 -23.667 3 -35
c8 -49.333 32.333 -86.666 73 -111.999c47.333 -32 104.333 -48 171 -48c44 0 92.333 7 145 21c160 42 343 144.333 549 307l180 326l72 129l63 117c2.66699 4 13.667 23.667 33 59c13.333 30 36.333 54.667 69 74c17.333 10.667 34 15.667 50 15c12.667 0 24.667 -3 36 -9
c13.333 -8 23 -16.333 29 -25c7.33301 -10.667 11 -29.334 11 -56.001c0 -5.33301 -0.333008 -11 -1 -17c-2.66699 -39.333 -16.334 -82.333 -41.001 -129c-24.667 -52 -75.834 -121 -153.501 -207s-160.834 -166.667 -249.501 -242
c-5.33301 -5.33301 -16.333 -14.333 -33 -27c-10.667 -8 -23 -18.667 -37 -32l-233 -422c152.667 80.667 231 121 235 121l19 10c4 1.33301 21 10 51 26l33.5 17.5c19.667 10.333 35.167 18.833 46.5 25.5l102 62c69.333 44 109.666 69.333 120.999 76l137 92
c44 31.333 92 68 144 110c10.667 6.66699 18.667 6 24 -2c4 -4.66699 6 -9.33398 6 -14.001c0 -5.33301 -2.66699 -9.33301 -8 -12c-42 -35.333 -90.333 -72.333 -145 -111c-49.333 -35.333 -95 -66.666 -137 -93.999l-121 -78c-38.667 -24.667 -73.667 -45 -105 -61
l-78 -43c-12 -6.66699 -23.167 -12.5 -33.5 -17.5s-17.5 -8.16699 -21.5 -9.5l-18 -10l-285 -148l-8 -16c-124 -229.333 -277 -447.666 -459 -654.999c-228.667 -260.667 -414 -391.334 -556 -392.001h-3c-54.667 1.33301 -93 18.666 -115 51.999
c-15.333 22.667 -23 48.667 -23 78c0 14 1.66699 28.333 5 43zM-436.996 -1097c0 -22 6.99902 -40.665 20.999 -55.998c16.667 -18 42.667 -27 78 -27c65.333 0 148 36.333 248 109c88 65.333 182.333 155.333 283 270c172 199.333 316.667 404.333 434 615
c-69.333 -38 -133.666 -75 -192.999 -111c-389.333 -234.667 -659 -446.334 -809 -635.001c-18.667 -22.667 -33 -47.334 -43 -74.001c-12.667 -32 -19 -62.333 -19 -91zM999.003 416.001c92 80 174 159.832 246 239.499s121.333 145.167 148 196.5c28 56 42 99.333 42 130
c0 23.333 -8 39.333 -24 48c-8 4.66699 -15.667 7 -23 7c-26 0 -53.667 -23.333 -83 -70c-4 -5.33301 -7.16699 -10.166 -9.5 -14.499l-9.5 -17.5l-16 -30l-64 -117l-71 -129z" />
    <glyph glyph-name="z" unicode="z" horiz-adv-x="1388" 
d="M-532 -1075c8 69.333 60.3311 156.665 156.998 261.998c80 86 194.667 188.333 344 307c191.333 146 385.333 277 582 393c-1.33301 24.667 -7.66602 48.667 -18.999 72c-18 36.667 -50 69.334 -96 98.001c-45.333 27.333 -81.333 45.333 -108 54
c-28.667 8 -47.334 12 -56.001 12l-57 10l51 25c1.33301 0 15 6.66699 41 20c20.667 10.667 59 32.667 115 66c42 24.667 89 54.667 141 90c202 142 321.667 278.333 359 409c7.33301 26 11 52 11 78c0 37.333 -8 75 -24 113c-27.333 64 -71 102.333 -131 115
c-14.667 3.33301 -30.334 4.66602 -47.001 3.99902c-38 0 -80.333 -7.66699 -127 -23c-64 -22 -116.667 -44.333 -158 -67c-42 -24.667 -64.333 -38.334 -67 -41.001c-61.333 -39.333 -116 -81.666 -164 -126.999c-5.33301 -9.33301 -14.333 -10 -27 -2
c-5.33301 9.33301 -5.33301 18 0 26c49.333 49.333 106 93.666 170 132.999c147.333 92.667 271 139 371 139c20 0 39 -2 57 -6c72.667 -16.667 124.667 -61.667 156 -135c18 -43.333 27 -86.333 27 -129c0 -29.333 -4.33301 -58.666 -13 -87.999
c-40.667 -140.667 -164.667 -284 -372 -430c-72.667 -50.667 -158 -102.667 -256 -156c118.667 -36.667 197.667 -94 237 -172c10.667 -20.667 17.667 -43 21 -67c90 50.667 165 91 225 121c24.667 12 75.334 39.333 152.001 82c64 35.333 110.333 62.666 139 81.999l121 81
l100 74l78 58l49 40l18 17c8 8 16.333 7.33301 25 -2c5.33301 -3.33301 8 -7 8 -11s-2.66699 -8.66699 -8 -14c-12 -12 -41.333 -36.667 -88 -74c-45.333 -35.333 -126.666 -92.666 -243.999 -171.999c-106.667 -72.667 -218 -137.334 -334 -194.001
c-82 -40.667 -161 -83.667 -237 -129c-1.33301 -49.333 -15 -98.666 -41 -147.999c-76.667 -158.667 -208.334 -340.667 -395.001 -546c-199.333 -217.333 -366.666 -343.666 -501.999 -378.999c-18 -4.66699 -35.333 -7 -52 -7c-33.333 0 -61.666 9 -84.999 27
c-32 24 -48 56.333 -48 97c0 4.66699 0.333008 9.33398 1 14.001zM-496.002 -1079c-1.33301 -38 11.667 -65.334 39 -82.001c18.667 -10.667 39 -16 61 -16c12.667 0 26 2 40 6c122.667 30 283.667 152.667 483 368c181.333 200.667 311 380.334 389 539.001
c19.333 40.667 31 76.667 35 108c-208.667 -125.333 -395 -251.666 -559 -378.999c-144.667 -114.667 -258 -216.334 -340 -305.001c-92 -99.333 -141.333 -179 -148 -239z" />
    <glyph glyph-name="braceleft" unicode="{" horiz-adv-x="899" 
d="M125 -152c0 57.333 12.9961 105.332 38.9961 143.999c24.667 36.667 62 76.334 112 119.001c146 117.333 243 211.333 291 282c47.333 69.333 72 155.333 74 258c0 18 -1.33301 31.833 -4 41.5s-8 22.5 -16 38.5c-4 8 -11.667 19 -23 33l-25 29
c-2.66699 2.66699 -12 10.667 -28 24l-16.5 11.5c-7 5 -11.167 8.16699 -12.5 9.5c-2.66699 2.66699 -6.66699 5.66699 -12 9s-8.66602 5 -9.99902 5c-8 5.33301 -13.667 8.66602 -17 9.99902l-6 4c-8 1.33301 -12 7.66602 -12 18.999c2.66699 10.667 8 16 16 16
c52 0 112.667 22.667 182 68c126.667 83.333 209.334 221 248.001 413c42 221.333 126.667 391.333 254 510c108.667 98 233.667 147.333 375 148c12 0 18 -6.16699 18 -18.5s-6 -18.5 -18 -18.5c-147.333 0 -273.666 -56 -378.999 -168
c-102.667 -109.333 -173.667 -263 -213 -461c-22 -109.333 -59.667 -203.333 -113 -282c-43.333 -63.333 -94.333 -114.666 -153 -153.999c-38 -24.667 -87.333 -46 -148 -64c95.333 -54.667 145.333 -129 150 -223c1.33301 -45.333 -4 -91.666 -16 -138.999
c-10.667 -40.667 -26 -79 -46 -115c-15.333 -27.333 -43.333 -62.833 -84 -106.5s-72 -74.167 -94 -91.5l-112 -97c-6.66699 -4 -12.167 -8 -16.5 -12s-7.16602 -6.66699 -8.49902 -8c-91.333 -74 -137 -150.333 -137 -229c0 -86 36 -145.667 108 -179
c15.333 -6.66699 21 -14 17 -22c-4 -10.667 -12.333 -14 -25 -10c-46.667 16.667 -81.5 44.667 -104.5 84s-34.5 80 -34.5 122z" />
    <glyph glyph-name="bar" unicode="|" 
d="M68 -432l1665 2601c5.33301 9.33301 14 10.666 26 4c9.33301 -5.33301 10.666 -13.666 3.99902 -25l-1665 -2601c-4 -5.33301 -9.33301 -8 -16 -8c-5.33301 0 -8.66602 0.666992 -9.99902 2c-10.667 8.66699 -12 17.667 -4 27z" />
    <glyph glyph-name="braceright" unicode="}" horiz-adv-x="1409" 
d="M-117 -280.5c0 12.333 6.33301 18.498 19 18.498c146 0 271.667 56 377 168c104.667 110.667 176.334 264.334 215.001 461.001c22 109.333 59.333 203.333 112 282c43.333 63.333 94.666 114.666 153.999 153.999c42 27.333 91 48.333 147 63
c-95.333 54.667 -145 129.334 -149 224.001c-1.33301 40.667 4.66699 87 18 139c12 46.667 26.333 84.667 43 114c15.333 27.333 43.5 63 84.5 107s72.167 74.667 93.5 92l113 96c5.33301 4 10 8.16699 14 12.5s7.66699 7.16602 11 8.49902c91.333 74 137 150.333 137 229
c0 86 -36.333 145.333 -109 178c-15.333 6.66699 -20.666 14.334 -15.999 23.001c4 10.667 12 14 24 10c46.667 -16.667 81.667 -44.667 105 -84s35 -80.333 35 -123c0 -58.667 -12.333 -106.334 -37 -143.001c-26 -38 -64.333 -77.667 -115 -119
c-146 -117.333 -243 -211.333 -291 -282c-47.333 -69.333 -71.666 -155.333 -72.999 -258c0 -13.333 2 -27 6 -41c6.66699 -22 10.667 -35 12 -39c2.66699 -4 10.334 -14.333 23.001 -31c5.33301 -5.33301 10 -10.833 14 -16.5s8.66699 -10.5 14 -14.5
c8 -9.33301 17 -18 27 -26c4 -2.66699 8.66699 -6.16699 14 -10.5s9.66602 -7.16602 12.999 -8.49902l24 -14c8 -5.33301 13.333 -8.66602 16 -9.99902l7 -5c8 -2 12 -8 12 -18c-2.66699 -10.667 -8 -16 -16 -16c-52 0 -113 -22.667 -183 -68
c-126.667 -83.333 -209.334 -221.333 -248.001 -414c-42 -221.333 -126.667 -391.333 -254 -510c-108.667 -98 -233.334 -147 -374.001 -147c-12.667 0 -19 6.16699 -19 18.5z" />
    <glyph glyph-name="asciitilde" unicode="~" horiz-adv-x="901" 
d="M72 1751l-0.00390625 37.0049c0 9.33301 1.33301 19.666 4 30.999c1.33301 9.33301 2.66602 16.666 3.99902 21.999l2 10c4 10 12 14.333 24 13c10 -4 14.333 -12.333 13 -25c-1.33301 -1.33301 -4 -9.33301 -8 -24c-4 -16.667 -5.66699 -36 -5 -58
c2.66699 -24.667 9 -43.667 19 -57c16.667 -22 44 -33 82 -33c36.667 0 76.334 11.667 119.001 35c34 19.333 69.333 44.666 106 75.999c28.667 24.667 64.334 46.334 107.001 65.001c40.667 18.667 81.667 22.667 123 12c76.667 -18 125.667 -58.667 147 -122
c4 -12 6 -41.333 6 -88c-1.33301 -12 -8.66602 -17 -21.999 -15c-12 1.33301 -17 9 -15 23c1.33301 1.33301 2 6.66602 2 15.999c0 13.333 -0.666992 24.833 -2 34.5s-6 24.167 -14 43.5c-5.33301 12 -18.333 26.333 -39 43c-16.667 12 -40.667 21.667 -72 29
c-40.667 9.33301 -85.667 -1.66699 -135 -33c-18 -12 -35.167 -22.833 -51.5 -32.5s-31.666 -19.334 -45.999 -29.001l-55.5 -38.5c-53.333 -36.667 -106 -55.334 -158 -56.001c-53.333 0 -91 16.333 -113 49c-9.33301 15.333 -14.666 26.333 -15.999 33c-4 14 -6 27 -6 39z
" />
    <glyph glyph-name="uni00A0" unicode="&#xa0;" horiz-adv-x="841" 
 />
    <glyph glyph-name="cent" unicode="&#xa2;" horiz-adv-x="1675" 
d="M51 -489l259.998 406.999c-50.667 18 -91.667 50 -123 96c-44 64 -65.667 152.333 -65 265c0 78 11.667 159 35 243c62.667 216 171.667 423 327 621c143.333 180 297.666 320.667 462.999 422c158.667 96.667 308.334 145 449.001 145c32.667 0 53 -0.666992 61 -2
l260 403c5.33301 8 13.666 10.333 24.999 7c12 -5.33301 14 -14.333 6 -27l-250 -389c80.667 -13.333 134.667 -46 162 -98c15.333 -23.333 21.333 -52 18 -86c-1.33301 -27.333 -6 -56.666 -14 -87.999c-5.33301 -22 -15.666 -48 -30.999 -78
c-9.33301 -19.333 -21 -39.333 -35 -60c-2.66699 -4 -5.66699 -9 -9 -15s-5.66602 -9.66699 -6.99902 -11c-8 -10.667 -17 -12 -27 -4c-9.33301 5.33301 -10.666 13.333 -3.99902 24c6.66699 6.66699 17.667 24.334 33 53.001c19.333 36.667 36.333 77 51 121
c16.667 48 14 90.333 -8 127c-26 45.333 -75.667 72.666 -149 81.999l-1108 -1730l43 -7c199.333 -16.667 361 27 485 131c32.667 27.333 57.334 52 74.001 74c20.667 26.667 35 47.334 43 62.001c6.66699 12 10 20 10 24c5.33301 9.33301 13.666 12 24.999 8
c10.667 -6.66699 14 -14 10 -22c-36.667 -70.667 -82.334 -128.667 -137.001 -174c-60 -48 -127 -84.333 -201 -109c-76.667 -23.333 -154.667 -35 -234 -35c-28.667 0 -54.334 1.66699 -77.001 5c-26 1.33301 -46.667 4.66602 -62 9.99902l-266 -416
c-5.33301 -5.33301 -10.666 -8 -15.999 -8c-1.33301 0 -2.66602 0.333008 -3.99902 1c-2 0.666992 -4.33301 1.66699 -7 3c-9.33301 6 -11.333 14.333 -6 25zM163.998 364.999c-6.66699 -54.667 -5.99902 -111.999 2.00098 -171.999c8 -65.333 25.667 -117.333 53 -156
c30 -44 67.667 -73.333 113 -88l1104 1722c-4 1.33301 -15.667 2 -35 2h-4c-138 -2.66699 -285.667 -52.334 -443 -149.001c-157.333 -98 -304 -232.667 -440 -404c-150 -190 -257 -393.333 -321 -610c-12.667 -38 -22.334 -86.333 -29.001 -145z" />
    <glyph glyph-name="sterling" unicode="&#xa3;" horiz-adv-x="2574" 
d="M168 20c4 39.333 17.0039 74.333 39.0039 105c28.667 40.667 66.834 68.5 114.501 83.5s98.834 15.833 153.501 2.5c61.333 -15.333 110.666 -30.333 147.999 -45c61.333 -24.667 113 -47.334 155 -68.001c13.333 -8 27.666 -14.667 42.999 -20
c100 100 212 241.333 336 424c40.667 58.667 68.667 101.667 84 129l-434 39c-10.667 2.66699 -16 9.33398 -16 20.001c1.33301 13.333 8 19 20 17l453 -41c57.333 91.333 100.333 164.333 129 219l-463 43c-10.667 0 -16.334 6 -17.001 18c1.33301 12 8.33301 17.667 21 17
l475 -43l152 266c23.333 39.333 67.666 108.333 132.999 207c54.667 82 105.667 148.667 153 200c86 92.667 172.667 159.667 260 201c101.333 45.333 205.333 55 312 29c96.667 -23.333 159.334 -65.666 188 -126.999c12 -27.333 18.333 -56.666 19 -87.999
c0 -35.333 -1.66699 -58 -5 -68l-10 -31c-6.66699 -12 -14.667 -15.333 -24 -10c-10.667 5.33301 -14.334 13.666 -11 24.999c1.33301 1.33301 4.33301 9.33301 9 24c4 13.333 6 33.333 6 60c0 30 -5.66699 53.667 -17 71c-27.333 52 -82.666 88.333 -166 109
c-180 45.333 -358 -27.667 -534 -219c-28.667 -30.667 -57.334 -65.667 -86.001 -105l-40 -52l-36 -48c-4 -5.33301 -28.667 -44.333 -74 -117c-28.667 -45.333 -49.667 -80.666 -63 -105.999l-66 -119l-59 -107l416 -38c12 0 17.333 -7 16 -21c0 -10.667 -6 -16 -18 -16h-2
l-432 41c-13.333 -26 -55 -99 -125 -219l438 -41c10.667 0 16 -7 16 -21c0 -10.667 -6 -16 -18 -16h-2l-457 43c-26 -45.333 -57.333 -94 -94 -146c-69.333 -106.667 -146 -209.667 -230 -309l-100 -113l47 -20c8 -4 16.833 -8.16699 26.5 -12.5l23 -10.5l12.5 -6l63 -26
c27.333 -12 52.666 -21 75.999 -27c9.33301 -2.66699 33.833 -10.167 73.5 -22.5s66.5 -19.166 80.5 -20.499c4 0 14.5 -1 31.5 -3l41.5 -5c31.333 -2.66699 56 -2 74 2c22 4 44 10 66 18c26 9.33301 45 19.666 57 30.999c9.33301 9.33301 18 8.66602 26 -2.00098
c8 -8 7.33301 -16.333 -2 -25c-36.667 -30 -80.167 -49 -130.5 -57s-102.833 -6.66699 -157.5 4c-66.667 13.333 -116 26.333 -148 39c-53.333 19.333 -105.666 40.666 -156.999 63.999c-65.333 27.333 -109.333 45 -132 53c-78 -78 -169.333 -142.333 -274 -193
c-102.667 -49.333 -193.334 -52.666 -272.001 -9.99902c-80.667 43.333 -119 106.666 -115 189.999zM205.004 18c-1.33301 -69.333 29.999 -121.001 93.999 -155.001c66.667 -34 148 -28.667 244 16c96.667 46.667 180.667 103.334 252 170.001
c-1.33301 0 -2.66602 0.666992 -3.99902 2c-176 83.333 -299.667 127 -371 131c-48 4 -95 -9.66699 -141 -41c-45.333 -30.667 -70 -71.667 -74 -123z" />
    <glyph glyph-name="uni00AD" unicode="&#xad;" horiz-adv-x="1464" 
d="M96 639c0 12 6.33301 18 19 18h1239c12 0 18 -6 18 -18s-6 -18 -18 -18h-1239c-12.667 0 -19 6 -19 18z" />
    <glyph glyph-name="acute" unicode="&#xb4;" horiz-adv-x="1032" 
d="M29 1679c1.33301 12 7.99902 17 19.999 15c152.667 -19.333 311 -6.33301 475 39c162.667 44 315 111.333 457 202c10.667 6.66699 19.667 5.33398 27 -3.99902c5.33301 -9.33301 3 -18 -7 -26c-315.333 -199.333 -634.666 -282 -957.999 -248
c-12 1.33301 -16.667 8.66602 -14 21.999z" />
    <glyph glyph-name="uni2000" unicode="&#x2000;" horiz-adv-x="1130" 
 />
    <glyph glyph-name="uni2001" unicode="&#x2001;" horiz-adv-x="2263" 
 />
    <glyph glyph-name="uni2002" unicode="&#x2002;" horiz-adv-x="1130" 
 />
    <glyph glyph-name="uni2003" unicode="&#x2003;" horiz-adv-x="2263" 
 />
    <glyph glyph-name="uni2004" unicode="&#x2004;" horiz-adv-x="753" 
 />
    <glyph glyph-name="uni2005" unicode="&#x2005;" horiz-adv-x="565" 
 />
    <glyph glyph-name="uni2006" unicode="&#x2006;" horiz-adv-x="376" 
 />
    <glyph glyph-name="uni2007" unicode="&#x2007;" horiz-adv-x="376" 
 />
    <glyph glyph-name="uni2008" unicode="&#x2008;" horiz-adv-x="282" 
 />
    <glyph glyph-name="uni2009" unicode="&#x2009;" horiz-adv-x="450" 
 />
    <glyph glyph-name="uni200A" unicode="&#x200a;" horiz-adv-x="124" 
 />
    <glyph glyph-name="uni2010" unicode="&#x2010;" horiz-adv-x="1464" 
d="M96 639c0 12 6.33301 18 19 18h1239c12 0 18 -6 18 -18s-6 -18 -18 -18h-1239c-12.667 0 -19 6 -19 18z" />
    <glyph glyph-name="uni2011" unicode="&#x2011;" horiz-adv-x="1464" 
d="M96 639c0 12 6.33301 18 19 18h1239c12 0 18 -6 18 -18s-6 -18 -18 -18h-1239c-12.667 0 -19 6 -19 18z" />
    <glyph glyph-name="figuredash" unicode="&#x2012;" horiz-adv-x="1464" 
d="M96 639c0 12 6.33301 18 19 18h1239c12 0 18 -6 18 -18s-6 -18 -18 -18h-1239c-12.667 0 -19 6 -19 18z" />
    <glyph glyph-name="endash" unicode="&#x2013;" horiz-adv-x="1024" 
d="M96 621v36h834v-36h-834z" />
    <glyph glyph-name="emdash" unicode="&#x2014;" horiz-adv-x="2048" 
d="M96 621v36h1858v-36h-1858z" />
    <glyph glyph-name="quoteleft" unicode="&#x2018;" horiz-adv-x="468" 
d="M106 1174l281 563c5.33301 12 13.666 14.667 24.999 8c10.667 -4 13.334 -12.333 8.00098 -25l-281 -563c-2.66699 -6.66699 -8 -10 -16 -10c-4 0 -6.66699 0.666992 -8 2c-10 6 -13 14.333 -9 25z" />
    <glyph glyph-name="quoteright" unicode="&#x2019;" horiz-adv-x="479" 
d="M106 1174l281 563c5.33301 12 13.666 14.667 24.999 8c10.667 -4 13.334 -12.333 8.00098 -25l-281 -563c-2.66699 -6.66699 -8 -10 -16 -10c-4 0 -6.66699 0.666992 -8 2c-10 6 -13 14.333 -9 25z" />
    <glyph glyph-name="quotedblleft" unicode="&#x201c;" horiz-adv-x="641" 
d="M106 1174l281 563c5.33301 12 13.666 14.667 24.999 8c10.667 -4 13.334 -12.333 8.00098 -25l-281 -563c-2.66699 -6.66699 -8 -10 -16 -10c-4 0 -6.66699 0.666992 -8 2c-10 6 -13 14.333 -9 25zM285 1174l280.001 563.001c5.33301 12 13.666 14.667 24.999 8
c10.667 -4 13.334 -12.333 8.00098 -25l-281 -563c-2.66699 -6.66699 -8 -10 -16 -10c-4 0 -6.66699 0.666992 -8 2c-10.667 7.33301 -13.334 15.666 -8.00098 24.999z" />
    <glyph glyph-name="quotedblright" unicode="&#x201d;" horiz-adv-x="667" 
d="M106 1174l281 563c5.33301 12 13.666 14.667 24.999 8c10.667 -4 13.334 -12.333 8.00098 -25l-281 -563c-2.66699 -6.66699 -8 -10 -16 -10c-4 0 -6.66699 0.666992 -8 2c-10 6 -13 14.333 -9 25zM285 1174l280.001 563.001c5.33301 12 13.666 14.667 24.999 8
c10.667 -4 13.334 -12.333 8.00098 -25l-281 -563c-2.66699 -6.66699 -8 -10 -16 -10c-4 0 -6.66699 0.666992 -8 2c-10.667 7.33301 -13.334 15.666 -8.00098 24.999z" />
    <glyph glyph-name="bullet" unicode="&#x2022;" horiz-adv-x="583" 
d="M104 641c0 53.333 18.667 99.666 56 138.999c36.667 38 83 57.333 139 58c54.667 0 101.167 -19.167 139.5 -57.5s57.5 -84.833 57.5 -139.5c0 -53.333 -19.167 -99.166 -57.5 -137.499s-84.833 -57.5 -139.5 -57.5c-56 0 -102.5 18.5 -139.5 55.5
s-55.5 83.5 -55.5 139.5z" />
    <glyph glyph-name="ellipsis" unicode="&#x2026;" horiz-adv-x="1366" 
d="M1069 94c0 31.333 11.5 58.666 34.5 81.999s49.5 35 79.5 35c31.333 0 58.666 -11.667 81.999 -35s35 -50.666 35 -81.999c0 -30 -11.667 -56.5 -35 -79.5s-50.666 -34.5 -81.999 -34.5c-30 0 -56.5 11.5 -79.5 34.5s-34.5 49.5 -34.5 79.5zM615 94
c0 31.333 11.5 58.666 34.5 81.999s49.5 35 79.5 35c31.333 0 58.666 -11.667 81.999 -35s35 -50.666 35 -81.999c0 -30 -11.667 -56.5 -35 -79.5s-50.666 -34.5 -81.999 -34.5c-30 0 -56.5 11.5 -79.5 34.5s-34.5 49.5 -34.5 79.5zM158 94
c0 31.333 11.5 58.666 34.5 81.999s49.5 35 79.5 35c31.333 0 58.666 -11.667 81.999 -35s35 -50.666 35 -81.999c0 -30 -11.667 -56.5 -35 -79.5s-50.666 -34.5 -81.999 -34.5c-30 0 -56.5 11.5 -79.5 34.5s-34.5 49.5 -34.5 79.5z" />
    <glyph glyph-name="uni202F" unicode="&#x202f;" horiz-adv-x="450" 
 />
    <glyph glyph-name="uni205F" unicode="&#x205f;" horiz-adv-x="565" 
 />
    <glyph glyph-name="Euro" unicode="&#x20ac;" horiz-adv-x="1669" 
d="M-272 706.5c0 12.333 6.00098 18.5 18.001 18.5h1239c12 0 18.167 -6.16699 18.5 -18.5s-5.83398 -18.5 -18.501 -18.5h-1239c-12 0 -18 6.16699 -18 18.5zM-19.999 1134.5c0 12.333 6 18.5 18 18.5h1239c12 0 18 -6.16699 18 -18.5s-6 -18.5 -18 -18.5h-1239
c-12 0 -18 6.16699 -18 18.5zM84.001 389c0 206 99.665 439.669 298.998 701.002c146 191.333 321.333 363.333 526 516c-50.667 70.667 -80.667 145.667 -90 225c-1.33301 12 3.66699 18.667 15 20c10.667 2.66699 17.334 -3.33301 20.001 -18
c16.667 -82 45.334 -150.333 86.001 -205c24.667 19.333 56 41.333 94 66c166.667 106.667 319 178.334 457 215.001c69.333 16.667 128 24.667 176 24c106.667 0 177.667 -40.333 213 -121c34 -78 20.333 -159 -41 -243c-48 -66.667 -110.667 -117.334 -188 -152.001
c-80.667 -35.333 -162 -53.666 -244 -54.999c-142 0 -265.667 37.667 -371 113c-45.333 31.333 -80 65.333 -104 102l-109 -86c-244.667 -202 -433 -419.667 -565 -653c-39.333 -72.667 -68.666 -140.334 -87.999 -203.001c-23.333 -76.667 -39 -152.334 -47 -227.001
c-8 -78 2.33301 -149.667 31 -215c28.667 -66.667 77 -116.667 145 -150c142 -68 309.333 -55 502 39c194 94 347.667 228.333 461 403c5.33301 9.33301 14 11.666 26 6.99902c10.667 -8 12 -17 4 -27c-70.667 -109.333 -162 -207.666 -274 -294.999
c-110.667 -86 -230.334 -148 -359.001 -186c-130 -38 -256 -29.333 -378 26c-131.333 61.333 -197 187.666 -197 378.999zM960.999 1597c27.333 -32.667 59.332 -63.333 95.999 -92c108 -79.333 224.667 -114.666 350 -105.999c178.667 8 313 71.333 403 190
c54.667 75.333 67 145 37 209c-30 65.333 -90 98 -180 98c-52 0 -108 -8 -168 -24c-167.333 -42.667 -346.666 -134.334 -537.999 -275.001z" />
    <glyph glyph-name="trademark" unicode="&#x2122;" horiz-adv-x="4085" 
d="M514 172c0 82 20.668 155.664 62.001 220.997c8 10.667 16.667 12 26 4c8 -5.33301 10.333 -13.333 7 -24c-38 -54.667 -57.333 -121.667 -58 -201c0 -78 21.333 -140 64 -186c46.667 -56 119 -87.667 217 -95h22c79.333 0 158.666 18.667 237.999 56
c82 39.333 162.667 93.333 242 162c143.333 121.333 322 326.666 536 615.999c174.667 236 331 438 469 606c177.333 212.667 331.666 363 463 451c105.333 72.667 200.333 108.667 285 108c60 -2.66699 90 -32.667 90 -90c0 -34 -12.333 -79.667 -37 -137
c-78 -181.333 -143.667 -350 -197 -506c-52 -150 -90.667 -306.333 -116 -469c136.667 188.667 285.334 366.334 446 533.001c158.667 164 313.667 303 465 417c132.667 96.667 248 165 346 205c62.666 23.333 116 35 160 35c45.334 -2.66699 74.667 -15 88 -37
c9.33398 -14.667 14 -31.334 14 -50.001c0 -35.333 -17 -78.666 -51 -129.999c-130 -190 -253 -416.667 -369 -680c-165.333 -364.667 -254 -685 -266 -961v-2v-26c0 -49.333 5.66699 -91.666 17 -126.999c15.333 -57.333 42.333 -106 81 -146c66.667 -60 148 -90 244 -90
c86 0 162.666 29.333 230 88c40.666 35.333 68.333 67.666 83 96.999c6.66602 10.667 15 13.334 25 8.00098c8.66602 -4 13 -8.66699 13 -14c0 -3.33301 -1.66602 -7.66602 -5 -12.999l-4 -6c-2.66602 -4 -6 -9.33301 -10 -16c-1.33398 -2.66699 -4.33398 -6.5 -9 -11.5
s-8 -8.83301 -10 -11.5l-7 -7c-2 -2 -4 -4.66699 -6 -8s-5 -7 -9 -11c-12 -12 -22.334 -21.667 -31 -29c-76.666 -68 -163.333 -102.333 -260 -103c-108 0 -197.333 33.667 -268 101c-31.333 28.667 -56 64 -74 106c-24.667 62.667 -37 137.334 -37 224.001
c12 278.667 101.667 603.334 269 974.001c121.333 272 245.333 500 372 684l25 50c9.33398 18 14.667 35 16 51c2.66602 19.333 -0.666992 33.666 -10 42.999c-10.666 10.667 -27.666 16 -51 16c-45.334 0 -94 -11 -146 -33c-49.333 -19.333 -110 -50 -182 -92
c-134 -82 -278 -195.333 -432 -340c-247.333 -226.667 -470 -482.667 -668 -768c-12.667 -104.667 -18.667 -207 -18 -307c0 -35.333 0.666992 -70.666 2 -105.999c0 -54.667 -4.66699 -100.667 -14 -138c-12 -58.667 -35.333 -102.334 -70 -131.001
c-27.333 -23.333 -60 -35 -98 -35c-31.333 0 -58.666 10.333 -82 31c-32 32 -48.333 73 -49 123c0 16.667 2 34.334 6 53.001c8 60 47 144.667 117 254c26 48 82.333 138.333 169 271c22 176 60.333 346.667 115 512c52 158.667 123 340 213 544
c22 49.333 33 89.666 33 120.999c-2.66699 35.333 -20.334 53 -53.001 53c-76.667 0 -164.667 -34 -264 -102c-88.667 -58.667 -188.667 -147.334 -300 -266.001c-140.667 -151.333 -348 -412.333 -622 -783c-160 -216 -298 -382.333 -414 -499
c-137.333 -137.333 -264.333 -233.666 -381 -288.999c-86 -39.333 -170 -59 -252 -59h-24c-109.333 6.66699 -190.666 42 -243.999 106c-48 56 -72 126.333 -72 211zM2528 93.9971c-2 -15.333 -3.00098 -29.335 -3.00098 -42.002c0 -45.333 11 -79 33 -101
c18 -15.333 38 -23 60 -23c31.333 0 56.333 9 75 27c18.667 16.667 33 39.334 43 68.001c18 40.667 27 98 27 172c-0.666992 24.667 -1 49.334 -1 74.001c0 88.667 3 180 9 274c-50.667 -75.333 -94.334 -145 -131 -209c-65.333 -104 -102.666 -184 -111.999 -240z
M-213 30.9951c0 20.667 3.33203 50.001 9.99902 88.001c1.33301 12 9 16.667 23 14c12 -1.33301 16.667 -8 14 -20c-6.66699 -38 -10 -65.333 -10 -82c0 -54.667 15 -99 45 -133c46.667 -42 108 -63.333 184 -64c124 4 253.667 77.667 389 221
c86 92.667 231.667 277.667 437 555l24 33.5c6.66699 9 13 17.167 19 24.5c191.333 260.667 349 460 473 598c68 76.667 142.333 150.334 223 221.001c-147.333 38 -301.666 87 -462.999 147c-98 35.333 -195 53.333 -291 54c-128.667 0 -249.334 -31.667 -362.001 -95
c-22 -13.333 -37.667 -23.333 -47 -30l-19.5 -13.5l-19.5 -13.5c-2.66699 -2.66699 -7.16699 -6.33398 -13.5 -11.001s-10.833 -8.66699 -13.5 -12c-4 -4 -7.66699 -7.33301 -11 -10s-6.33301 -5.33398 -9 -8.00098c-4 -4 -7 -6 -9 -6
c-8 -6.66699 -16.667 -7.33398 -26 -2.00098c-8 8 -8 16.667 0 26c31.333 32.667 78.333 68.334 141 107.001c117.333 69.333 247 104 389 104c101.333 0 202.333 -18.333 303 -55c166.667 -60 328.667 -110.333 486 -151c243.333 202 478 303 704 303l103 -6
c27.333 -2.66699 55.333 -9.66699 84 -21c34 -13.333 59 -30.333 75 -51c23.333 -30.667 35 -62.667 35 -96c0 -11.333 -1.33301 -22.333 -4 -33c-10.667 -46.667 -34 -85 -70 -115c-79.333 -66.667 -203.333 -100 -372 -100c-152.667 0 -335 26 -547 78l-68 -62
c-83.333 -79.333 -161.666 -162.666 -234.999 -249.999c-102.667 -122.667 -167.667 -201.667 -195 -237l-213 -283c-226.667 -304.667 -350.667 -469 -372 -493c-46.667 -56 -97.334 -112.667 -152.001 -170c-39.333 -40.667 -94.666 -82.334 -165.999 -125.001
c-66.667 -39.333 -135.667 -59.333 -207 -60c-98 0 -168.333 25.333 -211 76c-36.667 41.333 -55 94 -55 158zM1696 1505c198 -46.667 368.667 -69.667 512 -69h14c146.667 0 256.667 29.333 330 88c34 27.333 55 59.333 63 96c2 8 3 16 3 24c0 24.667 -9 50 -27 76
c-36.667 38 -114.667 59.333 -234 64c-216.667 -3.33301 -437 -96.333 -661 -279z" />
    <glyph glyph-name="uniE000" unicode="&#xe000;" horiz-adv-x="1040" 
d="M0 1040h1040v-1040h-1040v1040z" />
    <glyph glyph-name="uniFB01" unicode="&#xfb01;" horiz-adv-x="1925" 
d="M-977 -1130c-22 46.667 -4.99805 135.334 51.002 266.001c35.333 80.667 64.666 138.667 87.999 174c102.667 199.333 378.667 579 828 1139l299 370c456 557.333 788.333 953.333 997 1188c50.667 52 101.334 73.333 152.001 64c39.333 -6.66699 67.333 -28 84 -64
c15.333 -31.333 20.666 -67.666 15.999 -108.999c-4 -38 -9.33301 -71.333 -16 -100c-6.66699 -27.333 -11.667 -43.666 -15 -48.999c-57.333 -166.667 -169.333 -337.334 -336 -512.001c-178 -188.667 -417.333 -381.334 -718 -578.001c-96.667 -64 -241 -141 -433 -231
l-172 -217c44 -44 92.667 -76 146 -96c194 -75.333 444.333 -41.333 751 102c125.333 58.667 243 134.334 353 227.001c10.667 9.33301 19.5 8.66602 26.5 -2.00098s6.16699 -19.334 -2.5 -26.001c-112.667 -94 -233.334 -172 -362.001 -234
c-322 -144.667 -583 -178 -783 -100c-49.333 18.667 -90 43.334 -122 74.001c19.333 -214.667 -17.667 -430.667 -111 -648c-88.667 -214.667 -204.667 -391.334 -348 -530.001c-109.333 -104 -205 -156 -287 -156c-44 0.666992 -72.667 16.667 -86 48zM-941.998 -1116
c6.66699 -10.667 17.001 -18.332 31.001 -22.999c70.667 -16.667 164 31.333 280 144c139.333 131.333 254.666 306.666 345.999 525.999c90 216 123.667 428.333 101 637c-330.667 -423.333 -537.667 -715 -621 -875c-38 -68 -67.333 -125.333 -88 -172
c-52 -117.333 -68.333 -196.333 -49 -237zM74.0029 494.002c154 76.667 273.333 142.001 358 196.001c574.667 376.667 921.667 733.667 1041 1071c4 4 8.66699 17.667 14 41c4 18 8.66699 48.667 14 92c4 34.667 0 67.667 -12 99c-9.33301 24.667 -29 39 -59 43
c-38 4 -76.333 -14 -115 -54c-5.33301 -6.66699 -14.833 -17.834 -28.5 -33.501l-59.5 -69.5l-76 -87l-371 -438l-463 -557zM922.003 102.003c-9.33301 32.667 -8.66602 73.6689 2.00098 123.002c10.667 50.667 31.667 102.667 63 156c54.667 92.667 82.667 139.667 84 141
c27.333 42 59.333 87.667 96 137l21 29c27.333 39.333 75 104.333 143 195c52 68 91.667 117.667 119 149l23.5 27.5c7.66699 9 13.167 15.833 16.5 20.5l5 7c5.33301 9.33301 14.333 10.333 27 3c9.33301 -5.33301 10 -14.333 2 -27l-5 -7
c-3.33301 -4.66699 -8.83301 -11.5 -16.5 -20.5l-23.5 -27.5c-5.33301 -5.33301 -45 -55.333 -119 -150c-64 -82 -111.667 -145.333 -143 -190c-112 -162.667 -184 -276.667 -216 -342c-42 -88.667 -57 -160.334 -45 -215.001c12 -44 62.667 -66 152 -66
c110.667 0 239 40.333 385 121c143.333 79.333 282.666 177 417.999 293c10.667 9.33301 19.334 8.66602 26.001 -2.00098c5.33301 -9.33301 4.66602 -18.333 -2.00098 -27c-333.333 -281.333 -609 -422 -827 -422c-110.667 0 -172.667 31.333 -186 94zM1593 1350
c0 28.667 9.66699 51.668 29 69.001c22 19.333 46 29 72 29c27.333 0 50.5 -9.5 69.5 -28.5s28.5 -42.167 28.5 -69.5c0 -24.667 -9.66699 -48 -29 -70c-18 -20.667 -41 -31 -69 -31c-27.333 0 -51.333 10.333 -72 31c-19.333 19.333 -29 42.666 -29 69.999z" />
    <glyph glyph-name="uniFB02" unicode="&#xfb02;" horiz-adv-x="2117" 
d="M-977 -1130c-22 46.667 -4.99805 135.334 51.002 266.001c35.333 80.667 64.666 138.667 87.999 174c102.667 199.333 378.667 579 828 1139l299 370c456 557.333 788.333 953.333 997 1188c50.667 52 101.334 73.333 152.001 64c39.333 -6.66699 67.333 -28 84 -64
c15.333 -31.333 20.666 -67.666 15.999 -108.999c-4 -38 -9.33301 -71.333 -16 -100c-6.66699 -27.333 -11.667 -43.666 -15 -48.999c-57.333 -166.667 -169.333 -337.334 -336 -512.001c-178 -188.667 -417.333 -381.334 -718 -578.001c-96.667 -64 -241 -141 -433 -231
l-172 -217c44 -44 92.667 -76 146 -96c194 -75.333 444.333 -41.333 751 102c125.333 58.667 243 134.334 353 227.001c10.667 9.33301 19.5 8.66602 26.5 -2.00098s6.16699 -19.334 -2.5 -26.001c-112.667 -94 -233.334 -172 -362.001 -234
c-322 -144.667 -583 -178 -783 -100c-49.333 18.667 -90 43.334 -122 74.001c19.333 -214.667 -17.667 -430.667 -111 -648c-88.667 -214.667 -204.667 -391.334 -348 -530.001c-109.333 -104 -205 -156 -287 -156c-44 0.666992 -72.667 16.667 -86 48zM-941.998 -1116
c6.66699 -10.667 17.001 -18.332 31.001 -22.999c70.667 -16.667 164 31.333 280 144c139.333 131.333 254.666 306.666 345.999 525.999c90 216 123.667 428.333 101 637c-330.667 -423.333 -537.667 -715 -621 -875c-38 -68 -67.333 -125.333 -88 -172
c-52 -117.333 -68.333 -196.333 -49 -237zM74.0029 494.002c154 76.667 273.333 142.001 358 196.001c574.667 376.667 921.667 733.667 1041 1071c4 4 8.66699 17.667 14 41c4 18 8.66699 48.667 14 92c4 34.667 0 67.667 -12 99c-9.33301 24.667 -29 39 -59 43
c-38 4 -76.333 -14 -115 -54c-5.33301 -6.66699 -14.833 -17.834 -28.5 -33.501l-59.5 -69.5l-76 -87l-371 -438l-463 -557zM946.003 289.003c76.667 218.667 245.999 526.328 507.999 922.995l168 244l131 180c27.333 36.667 43 57.334 47 62.001c0 2.66699 9 13.667 27 33
l78 84c34.667 36.667 69.334 69.334 104.001 98.001c70.667 61.333 132.667 103 186 125c74 32.667 135 33.334 183 2.00098c38 -24.667 59 -61.667 63 -111c8 -94 -51.333 -229.667 -178 -407c-112.667 -153.333 -241.667 -294.666 -387 -423.999
c-170 -149.333 -434.333 -346 -793 -590c-36.667 -74 -70.667 -152 -102 -234c-1.33301 -4 -3 -10.333 -5 -19s-3.66699 -15 -5 -19c-4 -13.333 -4.66699 -38.666 -2 -75.999s12.667 -66 30 -86c60 -64 156.333 -75.667 289 -35c164 49.333 308 106.666 432 171.999
c125.333 66.667 256.666 153.334 393.999 260.001c10.667 5.33301 19.334 4.66602 26 -2.00098c8 -9.33301 7.33301 -18.333 -2 -27c-143.333 -109.333 -279 -198.666 -407 -267.999c-126.667 -68 -271.667 -125.333 -435 -172c-42 -13.333 -92.333 -20 -151 -20
c-78 0 -136 22.333 -174 67c-51.333 57.333 -59.666 137.333 -24.999 240zM1118 574.997c350.667 244.667 594.999 428.333 732.999 551c148.667 132.667 276.334 272 383.001 418c120 164 176.667 291 170 381c-2.66699 38 -18.334 66 -47 84c-69.333 44 -177 3 -323 -123
l-64 -59l-55 -55l-45 -48c-6.66699 -6.66699 -17 -18 -31 -34l-10 -15l-49 -65l-129 -178l-166 -240c-154.667 -238 -277 -443.667 -367 -617z" />
    <glyph glyph-name="uniFB03" unicode="&#xfb03;" horiz-adv-x="2965" 
d="M1962 102c-4.66699 15.333 -7 32.335 -7 51.002c0 21.333 3 45.333 9 72c10.667 50.667 32 102.667 64 156l84 141c39.333 60 71.333 105.667 96 137c4 5.33301 10.667 15 20 29l142 195c52 68 91.333 117.667 118 149l23.5 27.5l17.5 20.5l6 7
c5.33301 9.33301 14.333 10.333 27 3c9.33301 -5.33301 10 -14.333 2 -27l-6 -7l-17.5 -20.5l-23.5 -27.5c-5.33301 -5.33301 -45 -55.333 -119 -150c-51.333 -65.333 -98.333 -128.666 -141 -189.999c-112 -162.667 -183.667 -276.667 -215 -342
c-32.667 -68.667 -49 -127.334 -49 -176.001c0 -14 1.33301 -27 4 -39c12 -44 62.333 -66 151 -66c110.667 0 239 40.333 385 121c148.667 82 288 179.667 418 293c10.667 9.33301 19.667 8.66602 27 -2.00098c2.66699 -4.66699 4 -9 4 -13
c0 -4.66699 -2 -9.33398 -6 -14.001c-333.333 -281.333 -609.333 -422 -828 -422c-110.667 0 -172.667 31.333 -186 94zM2634 1350c0 28.667 10 51.667 30 69c22 19.333 45.333 29 70 29c26 0 48.667 -9.66699 68 -29c20.667 -20.667 30.667 -43.667 30 -69
c0 -24.667 -9.33301 -48 -28 -70c-18 -20.667 -41.333 -31 -70 -31c-26 0 -49.167 10.333 -69.5 31s-30.5 44 -30.5 70zM67 -1130c-6 13.333 -8.99707 29.6699 -8.99707 49.0029c0 50.667 20 123 60 217c35.333 80.667 64.666 138.667 87.999 174
c102.667 199.333 378.667 579 828 1139l299 370c456 557.333 788.333 953.333 997 1188c42 44 84 66 126 66c8.66699 0 17.334 -0.666992 26 -2c39.333 -6.66699 67.333 -28 84 -64c12 -25.333 17.667 -53.333 17 -84c0 -8 -0.333008 -16.333 -1 -25
c-4 -38 -9.33301 -71.333 -16 -100c-6.66699 -27.333 -11.667 -43.666 -15 -48.999c-57.333 -166.667 -169.333 -337.334 -336 -512.001c-178 -188.667 -417.333 -381.334 -718 -578.001c-96.667 -64 -241 -141 -433 -231l-172 -217c44 -44 92.667 -76 146 -96
c66.667 -26 140 -39 220 -39c152 0 329 47 531 141c125.333 58.667 243 134.334 353 227.001c10.667 9.33301 19.5 8.66602 26.5 -2.00098s6.16699 -19.334 -2.5 -26.001c-112.667 -94 -233.334 -172 -362.001 -234c-210 -94 -393.667 -141 -551 -141
c-84.667 0 -162 13.667 -232 41c-49.333 18.667 -90 43.334 -122 74.001c3.33301 -36 4.66602 -72.333 3.99902 -109c0 -178.667 -38.333 -358.334 -115 -539.001c-88.667 -214.667 -204.667 -391.334 -348 -530.001c-109.333 -104 -205 -156 -287 -156
c-44 0.666992 -72.667 16.667 -86 48zM102.003 -1115.99c6.66699 -10.667 17.002 -18.3311 31.002 -22.998c9.33301 -2 18.666 -3 27.999 -3c66.667 0 150.667 49 252 147c139.333 131.333 254.666 306.666 345.999 525.999c71.333 172 107.333 342 108 510
c0 42.667 -2.33301 85 -7 127c-330.667 -423.333 -537.667 -715 -621 -875c-38 -68 -67.333 -125.333 -88 -172c-37.333 -86 -56 -151.333 -56 -196c0 -16.667 2.33301 -30.334 7 -41.001zM1118 494.009c154 76.667 273.333 142.001 358 196.001
c574.667 376.667 921.667 733.667 1041 1071c4 4 8.66699 17.667 14 41c4 18 8.66699 48.667 14 92c1.33301 8.66699 2 17.334 2 26.001c0 25.333 -4.66699 49.666 -14 72.999c-9.33301 24.667 -29 39 -59 43c-4 0.666992 -8 0.666992 -12 0c-34.667 0 -69 -18 -103 -54
c-5.33301 -6.66699 -14.833 -17.834 -28.5 -33.501l-59.5 -69.5l-76 -87l-371 -438l-463 -557zM-976.995 -1129.99c-6 13.333 -8.99805 29.6699 -8.99805 49.0029c0 50.667 20 123 60 217c35.333 80.667 64.666 138.667 87.999 174c102.667 199.333 378.667 579 828 1139
l299 370c456 557.333 788.333 953.333 997 1188c42 44 84 66 126 66c8.66699 0 17.334 -0.666992 26.001 -2c39.333 -6.66699 67.333 -28 84 -64c12 -25.333 17.667 -53.333 17 -84c0 -8 -0.333008 -16.333 -1 -25c-4 -38 -9.33301 -71.333 -16 -100
c-6.66699 -27.333 -11.667 -43.666 -15 -48.999c-57.333 -166.667 -169.333 -337.334 -336 -512.001c-178 -188.667 -417.333 -381.334 -718 -578.001c-96.667 -64 -241 -141 -433 -231l-172 -217c44 -44 92.667 -76 146 -96c66.667 -26 140 -39 220 -39
c152 0 329 47 531 141c125.333 58.667 243 134.334 353 227.001c10.667 9.33301 19.5 8.66602 26.5 -2.00098s6.16699 -19.334 -2.5 -26.001c-112.667 -94 -233.334 -172 -362.001 -234c-210 -94 -393.667 -141 -551 -141c-84.667 0 -162 13.667 -232 41
c-49.333 18.667 -90 43.334 -122 74.001c3.33301 -36 4.66602 -72.333 3.99902 -109c0 -178.667 -38.333 -358.334 -115 -539.001c-88.667 -214.667 -204.667 -391.334 -348 -530.001c-109.333 -104 -205 -156 -287 -156c-44 0.666992 -72.667 16.667 -86 48z
M-941.993 -1115.99c6.66699 -10.667 17.002 -18.3311 31.002 -22.998c9.33301 -2 18.666 -3 27.999 -3c66.667 0 150.667 49 252 147c139.333 131.333 254.666 306.666 345.999 525.999c71.333 172 107.333 342 108 510c0 42.667 -2.33301 85 -7 127
c-330.667 -423.333 -537.667 -715 -621 -875c-38 -68 -67.333 -125.333 -88 -172c-37.333 -86 -56 -151.333 -56 -196c0 -16.667 2.33301 -30.334 7 -41.001zM74.0088 494.017c154 76.667 273.333 142.001 358 196.001c574.667 376.667 921.667 733.667 1041 1071
c4 4 8.66699 17.667 14 41c4 18 8.66699 48.667 14 92c1.33301 8.66699 2 17.334 2 26.001c0 25.333 -4.66699 49.666 -14 72.999c-9.33301 24.667 -29 39 -59 43c-4 0.666992 -8 0.666992 -12 0c-34.667 0 -69 -18 -103 -54
c-5.33301 -6.66699 -14.833 -17.834 -28.5 -33.501l-59.5 -69.5l-76 -87l-371 -438l-463 -557z" />
    <glyph glyph-name="uniFB04" unicode="&#xfb04;" horiz-adv-x="3178" 
d="M2007 289c76.667 218.667 246 526.331 508 922.998l170 244l129 180c27.333 36.667 43 57.334 47 62.001c0 2.66699 9 13.667 27 33l78 84c34.667 36.667 69.334 69.334 104 98.001c70.667 61.333 132.667 103 186 125c37.333 16.667 71.666 25 103 25
c30 0 56.667 -7.66699 80 -23c38 -24.667 59 -61.667 63 -111c0.666992 -6 1 -11.667 1 -17c0 -92.667 -59.667 -222.667 -179 -390c-112.667 -153.333 -241.667 -294.666 -387 -423.999c-170 -149.333 -434.333 -346 -793 -590c-36.667 -74 -70.667 -152 -102 -234
c-1.33301 -4 -3 -10.333 -5 -19s-3.66699 -15 -5 -19c-2 -9.33301 -3.33301 -22 -4 -38c0 -10 0.666992 -22.667 2 -38c2.66699 -36.667 12.667 -65.334 30 -86.001c36.667 -39.333 87 -59 151 -59c40.667 0 86.667 8 138 24c164 49.333 308 106.666 432 171.999
c125.333 66.667 256.333 153.334 393 260.001c10.667 5.33301 19.667 4.66602 27 -2.00098c8 -9.33301 7.33301 -18.333 -2 -27c-143.333 -109.333 -279.333 -198.666 -408 -267.999c-126.667 -68 -271.334 -125.333 -434 -172c-42 -13.333 -92.333 -20 -151 -20
c-78 0 -136 22.333 -174 67c-30.667 34 -46 76 -46 126c0 34.667 7 72.667 21 114zM2179 574.997c350.667 244.667 595 428.333 733 551c148.667 132.667 276.334 272 383 418c113.333 156 170.333 278.667 171 368c0 4.66699 -0.333008 9 -1 13
c-2.66699 38 -18.334 66 -47 84c-17.333 11.333 -37.666 17 -61 17c-66.667 0 -154 -46.667 -262 -140l-64 -59l-55 -55l-45 -48c-6.66699 -6.66699 -17 -18 -31 -34l-10 -15l-49 -65l-129 -178l-166 -240c-154.667 -238 -277 -443.667 -367 -617zM67 -1130
c-6 13.333 -8.99707 29.6699 -8.99707 49.0029c0 50.667 20 123 60 217c35.333 80.667 64.666 138.667 87.999 174c102.667 199.333 378.667 579 828 1139l299 370c456 557.333 788.333 953.333 997 1188c42 44 84 66 126 66c8.66699 0 17.334 -0.666992 26 -2
c39.333 -6.66699 67.333 -28 84 -64c12 -25.333 17.667 -53.333 17 -84c0 -8 -0.333008 -16.333 -1 -25c-4 -38 -9.33301 -71.333 -16 -100c-6.66699 -27.333 -11.667 -43.666 -15 -48.999c-57.333 -166.667 -169.333 -337.334 -336 -512.001
c-178 -188.667 -417.333 -381.334 -718 -578.001c-96.667 -64 -241 -141 -433 -231l-172 -217c44 -44 92.667 -76 146 -96c66.667 -26 140 -39 220 -39c152 0 329 47 531 141c125.333 58.667 243 134.334 353 227.001c10.667 9.33301 19.5 8.66602 26.5 -2.00098
s6.16699 -19.334 -2.5 -26.001c-112.667 -94 -233.334 -172 -362.001 -234c-210 -94 -393.667 -141 -551 -141c-84.667 0 -162 13.667 -232 41c-49.333 18.667 -90 43.334 -122 74.001c3.33301 -36 4.66602 -72.333 3.99902 -109c0 -178.667 -38.333 -358.334 -115 -539.001
c-88.667 -214.667 -204.667 -391.334 -348 -530.001c-109.333 -104 -205 -156 -287 -156c-44 0.666992 -72.667 16.667 -86 48zM102.003 -1116c6.66699 -10.667 17.002 -18.3311 31.002 -22.998c9.33301 -2 18.666 -3 27.999 -3c66.667 0 150.667 49 252 147
c139.333 131.333 254.666 306.666 345.999 525.999c71.333 172 107.333 342 108 510c0 42.667 -2.33301 85 -7 127c-330.667 -423.333 -537.667 -715 -621 -875c-38 -68 -67.333 -125.333 -88 -172c-37.333 -86 -56 -151.333 -56 -196c0 -16.667 2.33301 -30.334 7 -41.001z
M1118 494.003c154 76.667 273.333 142.001 358 196.001c574.667 376.667 921.667 733.667 1041 1071c4 4 8.66699 17.667 14 41c4 18 8.66699 48.667 14 92c1.33301 8.66699 2 17.334 2 26.001c0 25.333 -4.66699 49.666 -14 72.999c-9.33301 24.667 -29 39 -59 43
c-4 0.666992 -8 0.666992 -12 0c-34.667 0 -69 -18 -103 -54c-5.33301 -6.66699 -14.833 -17.834 -28.5 -33.501l-59.5 -69.5l-76 -87l-371 -438l-463 -557zM-976.995 -1130c-6 13.333 -8.99805 29.6699 -8.99805 49.0029c0 50.667 20 123 60 217
c35.333 80.667 64.666 138.667 87.999 174c102.667 199.333 378.667 579 828 1139l299 370c456 557.333 788.333 953.333 997 1188c42 44 84 66 126 66c8.66699 0 17.334 -0.666992 26.001 -2c39.333 -6.66699 67.333 -28 84 -64c12 -25.333 17.667 -53.333 17 -84
c0 -8 -0.333008 -16.333 -1 -25c-4 -38 -9.33301 -71.333 -16 -100c-6.66699 -27.333 -11.667 -43.666 -15 -48.999c-57.333 -166.667 -169.333 -337.334 -336 -512.001c-178 -188.667 -417.333 -381.334 -718 -578.001c-96.667 -64 -241 -141 -433 -231l-172 -217
c44 -44 92.667 -76 146 -96c66.667 -26 140 -39 220 -39c152 0 329 47 531 141c125.333 58.667 243 134.334 353 227.001c10.667 9.33301 19.5 8.66602 26.5 -2.00098s6.16699 -19.334 -2.5 -26.001c-112.667 -94 -233.334 -172 -362.001 -234
c-210 -94 -393.667 -141 -551 -141c-84.667 0 -162 13.667 -232 41c-49.333 18.667 -90 43.334 -122 74.001c3.33301 -36 4.66602 -72.333 3.99902 -109c0 -178.667 -38.333 -358.334 -115 -539.001c-88.667 -214.667 -204.667 -391.334 -348 -530.001
c-109.333 -104 -205 -156 -287 -156c-44 0.666992 -72.667 16.667 -86 48zM-941.993 -1115.99c6.66699 -10.667 17.002 -18.3311 31.002 -22.998c9.33301 -2 18.666 -3 27.999 -3c66.667 0 150.667 49 252 147c139.333 131.333 254.666 306.666 345.999 525.999
c71.333 172 107.333 342 108 510c0 42.667 -2.33301 85 -7 127c-330.667 -423.333 -537.667 -715 -621 -875c-38 -68 -67.333 -125.333 -88 -172c-37.333 -86 -56 -151.333 -56 -196c0 -16.667 2.33301 -30.334 7 -41.001zM74.0088 494.011
c154 76.667 273.333 142.001 358 196.001c574.667 376.667 921.667 733.667 1041 1071c4 4 8.66699 17.667 14 41c4 18 8.66699 48.667 14 92c1.33301 8.66699 2 17.334 2 26.001c0 25.333 -4.66699 49.666 -14 72.999c-9.33301 24.667 -29 39 -59 43
c-4 0.666992 -8 0.666992 -12 0c-34.667 0 -69 -18 -103 -54c-5.33301 -6.66699 -14.833 -17.834 -28.5 -33.501l-59.5 -69.5l-76 -87l-371 -438l-463 -557z" />
    <glyph glyph-name=".null" horiz-adv-x="0" 
 />
    <glyph glyph-name="nonmarkingreturn" horiz-adv-x="682" 
 />
  </font>
</defs>
</svg>
